<?xml version="1.0" encoding="UTF-8" standalone="no"?>
<svg
   xmlns:dc="http://purl.org/dc/elements/1.1/"
   xmlns:cc="http://creativecommons.org/ns#"
   xmlns:rdf="http://www.w3.org/1999/02/22-rdf-syntax-ns#"
   xmlns:svg="http://www.w3.org/2000/svg"
   xmlns="http://www.w3.org/2000/svg"
   viewBox="0 0 1400 269.33334"
   height="269.33334"
   width="1400"
   xml:space="preserve"
   id="svg2"
   version="1.1"><metadata
     id="metadata8"><rdf:RDF><cc:Work
         rdf:about=""><dc:format>image/svg+xml</dc:format><dc:type
           rdf:resource="http://purl.org/dc/dcmitype/StillImage" /></cc:Work></rdf:RDF></metadata><defs
     id="defs6"><clipPath
       id="clipPath18"
       clipPathUnits="userSpaceOnUse"><path
         id="path16"
         d="M 0,202 H 1050 V 0 H 0 Z" /></clipPath></defs><g
     transform="matrix(1.3333333,0,0,-1.3333333,0,269.33333)"
     id="g10"><g
       id="g12"><g
         clip-path="url(#clipPath18)"
         id="g14"><g
           transform="translate(67.2402,60.2402)"
           id="g20"><path
             id="path22"
             style="fill:#ffffff;fill-opacity:1;fill-rule:nonzero;stroke:none"
             d="M 0,0 C 26.13,0.02 52.25,0 78.38,0.02 65.16,25.609 52.01,51.25 38.82,76.86 25.85,51.26 12.88,25.66 0,0 m -18.51,0 c 2.25,0.01 4.51,0.01 6.77,0.02 C 3.2,29.319 18.17,58.6 33.16,87.87 32.02,90 30.92,92.16 29.82,94.31 13.57,62.95 -2.33,31.399 -18.51,0 m -18.34,0.02 c 2.19,-0.01 4.38,-0.01 6.57,-0.02 18.23,35.09 36.32,70.26 54.4,105.44 -1.26,2.38 -2.47,4.79 -3.69,7.19 C 1.42,75.05 -17.86,37.609 -36.85,0.02 M -55.37,0.01 h 6.76 c 21.02,41.06 42.37,81.97 63.32,123.06 -0.77,2.68 -2.33,5.05 -3.52,7.54 C -10.91,87.04 -33.17,43.54 -55.37,0.01 M 5.45,141.76 H 17.12 C 51.88,74.47 86.36,7.029 121.16,-60.24 H 109.47 C 99.05,-40.521 89.04,-20.59 78.76,-0.79 v -9.45 H -62.5 c -1.57,3.3 -3.17,6.59 -4.73,9.889 24.14,47.411 48.3,94.831 72.68,142.111" /></g><g
           transform="translate(91.25,202)"
           id="g24"><path
             id="path26"
             style="fill:#ffffff;fill-opacity:1;fill-rule:nonzero;stroke:none"
             d="M 0,0 H 11.78 C 46.6,-67.26 81.02,-134.74 115.85,-202 H 104.11 C 69.27,-134.74 34.89,-67.23 0,0" /></g><g
           transform="translate(110.04,202)"
           id="g28"><path
             id="path30"
             style="fill:#ffffff;fill-opacity:1;fill-rule:nonzero;stroke:none"
             d="M 0,0 H 11.67 C 46.53,-67.24 80.9,-134.76 115.77,-202 H 104.08 C 69.18,-134.78 34.77,-67.29 0,0" /></g><g
           transform="translate(128.6299,202)"
           id="g32"><path
             id="path34"
             style="fill:#ffffff;fill-opacity:1;fill-rule:nonzero;stroke:none"
             d="M 0,0 H 11.76 C 46.63,-67.24 81.03,-134.73 115.85,-202 H 104.08 C 69.31,-134.71 34.91,-67.22 0,0" /></g><g
           transform="translate(981.0703,145.8901)"
           id="g36"><path
             id="path38"
             style="fill:#ffffff;fill-opacity:1;fill-rule:nonzero;stroke:none"
             d="m 0,0 c 4.77,4.29 11.58,4.59 17.62,3.69 -0.65,-4.95 -0.77,-9.94 -0.49,-14.93 -0.34,-0.16 -1,-0.47 -1.34,-0.63 -4.16,1.47 -8.32,3.89 -12.91,3.08 -2.561,-0.1 -6.07,-2.19 -4.95,-5.16 0.95,-4.77 3.04,-9.2 4.849,-13.69 H 14.41 c -0.091,-2.58 -0.1,-5.17 -0.011,-7.75 -3.58,0 -7.149,0 -10.719,-0.01 -0.031,-16.27 0.049,-32.55 -0.04,-48.82 -5.38,0.75 -10.821,0.73 -16.201,0.03 -0.029,16.26 0,32.53 -0.009,48.8 -2.84,0 -5.66,0 -8.481,-0.01 0.091,2.59 0.08,5.17 0,7.76 2.79,0 5.601,0 8.41,0.01 C -11.12,-17.55 -7.78,-7.03 0,0" /></g><g
           transform="translate(687.3496,147.5698)"
           id="g40"><path
             id="path42"
             style="fill:#ffffff;fill-opacity:1;fill-rule:nonzero;stroke:none"
             d="M 0,0 C 5.83,3.28 14.131,-1.83 13.45,-8.59 13.681,-15.55 4.681,-20.23 -0.92,-16.07 -6.75,-12.53 -6.27,-2.81 0,0" /></g><g
           transform="translate(938.3799,147.4502)"
           id="g44"><path
             id="path46"
             style="fill:#ffffff;fill-opacity:1;fill-rule:nonzero;stroke:none"
             d="M 0,0 C 5.57,3.29 13.36,-1 13.79,-7.37 14.68,-14.42 6.021,-20.11 -0.05,-16.34 -6.3,-13.15 -6.29,-3.12 0,0" /></g><g
           transform="translate(267.9502,93.2402)"
           id="g48"><path
             id="path50"
             style="fill:#ffffff;fill-opacity:1;fill-rule:nonzero;stroke:none"
             d="M 0,0 C 6.91,0.01 13.83,0.02 20.75,0 17.36,8.81 14.05,17.65 10.63,26.45 7.13,17.62 3.5,8.84 0,0 m 10.45,49.16 c 3.05,-0.17 6.1,-0.17 9.15,0.03 10.82,-26.92 21.66,-53.82 32.4,-80.77 -6.73,0.769 -13.51,0.769 -20.24,0.03 -2.5,8.14 -5.14,16.239 -8.14,24.21 -8.94,0.22 -17.89,0.04 -26.83,0.1 -2.76,-7.99 -5.84,-15.87 -8.15,-24.01 -3.78,0.31 -7.58,0.3 -11.36,-0.021 11.06,26.811 22.17,53.601 33.17,80.431" /></g><g
           transform="translate(878,141.5098)"
           id="g52"><path
             id="path54"
             style="fill:#ffffff;fill-opacity:1;fill-rule:nonzero;stroke:none"
             d="m 0,0 c 5.8,-0.69 11.68,-0.72 17.49,0.01 0.02,-23.5 0.01,-47.01 0,-70.51 8.89,-0.22 17.76,0.59 26.59,1.521 -0.62,-3.411 -0.61,-6.871 0.01,-10.281 -14.7,0 -29.39,0.01 -44.09,0 -0.01,26.42 0,52.84 0,79.26" /></g><g
           transform="translate(646.5098,131.27)"
           id="g56"><path
             id="path58"
             style="fill:#ffffff;fill-opacity:1;fill-rule:nonzero;stroke:none"
             d="m 0,0 c 5.49,2.25 10.891,4.71 16.23,7.32 0.01,-6.78 0,-13.56 0.01,-20.34 h 9.72 c -0.1,-2.58 -0.1,-5.17 0,-7.75 -3.25,0 -6.48,0 -9.72,-0.01 0,-11.51 -0.01,-23.03 -0.01,-34.55 0.17,-2.68 0.03,-6.01 2.35,-7.85 2.601,-1.5 5.66,-0.43 8.43,-0.11 -0.02,-1.58 -0.039,-3.16 -0.05,-4.75 -6.359,-2.22 -13.75,-4 -20.109,-0.9 -5.38,2.75 -6.661,9.33 -6.83,14.82 -0.081,11.11 0,22.23 -0.031,33.35 -2.599,0 -5.179,0 -7.769,-0.01 0.05,2.59 0.059,5.18 0.019,7.77 2.58,-0.01 5.17,-0.01 7.76,0 -0.02,4.33 -0.02,8.67 0,13.01" /></g><g
           transform="translate(338.4302,118.4302)"
           id="g60"><path
             id="path62"
             style="fill:#ffffff;fill-opacity:1;fill-rule:nonzero;stroke:none"
             d="m 0,0 c 7.96,2.06 16.68,0.11 23.36,-4.57 -0.99,-3.54 -1.97,-7.08 -2.9,-10.64 -1.08,0.02 -2.16,0.04 -3.23,0.06 -1.44,4.8 -5.3,9.38 -10.57,9.74 -3.8,0.31 -8.79,-1.69 -8.94,-6.08 -0.34,-2.92 2,-5.21 4.42,-6.4 5.98,-2.99 13.07,-4.07 18.07,-8.84 4.66,-4.38 5.48,-11.46 4.07,-17.431 -1.41,-5.789 -6.27,-10.25 -11.83,-12.059 -8.63,-2.85 -18.52,-1.821 -26.21,3.11 0.71,3.779 1.31,7.59 1.86,11.4 0.96,0.02 1.94,0.03 2.91,0.04 1.95,-4.53 5.51,-8.75 10.59,-9.661 4.74,-1.299 11.2,1.571 11.54,6.951 -0.27,3.38 -3.39,5.28 -6.17,6.53 -5.74,2.689 -12.35,4.26 -16.76,9.12 -4.25,4.45 -4.72,11.31 -3.04,16.97 1.74,5.88 7,10.23 12.83,11.76" /></g><g
           transform="translate(376.2598,114.77)"
           id="g64"><path
             id="path66"
             style="fill:#ffffff;fill-opacity:1;fill-rule:nonzero;stroke:none"
             d="m 0,0 c 8.83,6.9 21.91,5.27 30.66,-0.97 -1.08,-3.49 -2.02,-7.02 -2.95,-10.55 -1.07,0 -2.13,0.01 -3.19,0.02 -1.5,4.81 -5.4,9.44 -10.74,9.75 -3.75,0.35 -8.5,-1.79 -8.79,-5.98 -0.45,-2.93 1.85,-5.27 4.28,-6.45 6.22,-3.13 13.74,-4.18 18.72,-9.44 6.95,-7.6 5.21,-21.35 -3.7,-26.72 -9.28,-5.58 -21.71,-4.82 -30.76,0.88 0.67,3.81 1.27,7.63 1.81,11.45 0.97,0 1.95,-0.01 2.93,-0.02 2.06,-5.19 6.64,-9.65 12.46,-9.92 4.42,-0.31 10.35,3.06 9.47,8.14 -0.74,3.13 -3.88,4.7 -6.56,5.91 -5.57,2.5 -11.89,4.13 -16.16,8.77 C -8.81,-18.05 -7.45,-5.76 0,0" /></g><g
           transform="translate(498.23,110.1899)"
           id="g68"><path
             id="path70"
             style="fill:#ffffff;fill-opacity:1;fill-rule:nonzero;stroke:none"
             d="m 0,0 c 5.33,7.46 15.82,11.5 24.45,7.5 3.76,-1.56 6.26,-4.99 7.92,-8.58 3.6,5.16 9,9.43 15.44,10.03 5.84,0.49 12.69,-0.64 16.44,-5.62 3.34,-4.42 3.9,-10.18 3.79,-15.53 -0.05,-12.1 0,-24.2 -0.03,-36.29 -5.39,0.72 -10.84,0.7 -16.23,-0.01 -0.02,11.44 0,22.88 0,34.33 -0.13,3.8 -0.42,8.03 -2.99,11.07 -2.81,2.91 -7.59,2.66 -10.91,0.81 -3.22,-2.11 -3.81,-6.34 -3.86,-9.89 -0.02,-12.1 0.02,-24.21 -0.01,-36.31 -5.39,0.71 -10.84,0.71 -16.23,0 -0.02,11.11 0,22.21 -0.01,33.32 -0.16,4.12 -0.31,8.67 -3.04,12.02 C 12.08,-0.22 7.23,-0.37 4.15,-2.5 1,-5.03 0.06,-9.31 0.02,-13.16 0,-24.94 0.04,-36.72 0.01,-48.5 c -5.39,0.69 -10.84,0.74 -16.23,0.01 -0.02,18.83 -0.01,37.66 -0.01,56.49 C -10.84,7.25 -5.38,7.28 0.02,8.03 0.02,5.35 0.02,2.68 0,0" /></g><g
           transform="translate(602.29,110.6401)"
           id="g72"><path
             id="path74"
             style="fill:#ffffff;fill-opacity:1;fill-rule:nonzero;stroke:none"
             d="m 0,0 c -5.48,-3.07 -6.63,-9.96 -7.3,-15.64 -0.471,-6.93 -0.68,-14.27 2.11,-20.78 1.29,-3.201 4.32,-5.89 7.94,-5.75 4.01,0.26 7.09,3.56 8.49,7.12 2.5,6.3 2.44,13.23 2.07,19.89 -0.45,4.53 -0.91,9.45 -3.84,13.14 C 7.29,0.78 3.13,1.63 0,0 m 2.6,7.84 c 7.96,2.17 17.5,-0.21 22.55,-7.01 4.43,-5.8 5.67,-13.34 5.82,-20.46 -0.11,-8.53 -1.88,-17.8 -8.13,-24.05 -5.54,-5.83 -14.6,-7.81 -22.111,-5.1 -3.429,1.19 -5.899,3.98 -8.069,6.739 0.12,-12.119 0.02,-24.239 0.05,-36.369 -5.39,0.69 -10.85,0.69 -16.25,0.01 -0.01,28.64 0,57.29 0,85.94 5.23,-0.7 10.519,-0.69 15.76,-0.01 -0.01,-3.1 0.009,-6.19 -0.1,-9.29 2.27,4.26 5.64,8.28 10.48,9.6" /></g><g
           transform="translate(737.4102,113.2798)"
           id="g76"><path
             id="path78"
             style="fill:#ffffff;fill-opacity:1;fill-rule:nonzero;stroke:none"
             d="m 0,0 c -4.62,-1.62 -6.57,-6.69 -7.5,-11.09 -1.45,-7.65 -1.55,-15.57 -0.36,-23.26 0.759,-4.26 2.11,-8.949 5.86,-11.55 3.27,-2.24 8.05,-1.26 10.3,1.97 3.96,5.32 4.66,12.23 5.19,18.64 0.27,7.26 0.43,15.13 -3.39,21.6 C 8.13,-0.26 3.74,1.48 0,0 M -5.87,4.99 C 1.399,6.7 9.26,6.23 16.16,3.29 23.67,0.04 29.13,-7.21 30.42,-15.27 32.24,-25.629 30.21,-37.51 22.439,-45.1 17.03,-50.54 9.149,-52.879 1.6,-52.57 c -8.39,-0.099 -17.201,3.18 -22.27,10.12 -5.86,7.8 -6.221,18.33 -4.29,27.54 2.03,9.5 9.47,17.79 19.09,19.9" /></g><g
           transform="translate(794,109.8901)"
           id="g80"><path
             id="path82"
             style="fill:#ffffff;fill-opacity:1;fill-rule:nonzero;stroke:none"
             d="m 0,0 c 4.01,4.36 8.96,8.36 15.04,9.15 5.9,0.73 12.8,-0.38 16.75,-5.26 3.76,-4.69 4.23,-11.02 4.45,-16.8 0.03,-11.76 0,-23.53 0,-35.3 -5.39,0.73 -10.84,0.73 -16.23,0.02 -0.03,10.09 0,20.18 -0.01,30.27 -0.21,4.76 -0.24,9.9 -2.83,14.07 C 14.11,0.76 6.21,0.34 3.59,-4.51 0.28,-10.01 0.76,-16.69 0.74,-22.85 0.72,-31.31 0.81,-39.77 0.69,-48.23 c -5.37,0.74 -10.81,0.75 -16.18,0.04 -0.04,18.819 0.01,37.649 -0.02,56.48 C -10.36,7.58 -5.15,7.56 0,8.31 -0.01,5.54 -0.01,2.77 0,0" /></g><g
           transform="translate(1020.79,111.1802)"
           id="g84"><path
             id="path86"
             style="fill:#ffffff;fill-opacity:1;fill-rule:nonzero;stroke:none"
             d="M 0,0 C -3.521,-4.39 -3.53,-10.35 -4.021,-15.68 1.66,-15.67 7.36,-15.69 13.05,-15.67 12.56,-10.15 12.9,-3.83 9.229,0.73 6.83,3.7 2.14,2.76 0,0 m -4.46,6.57 c 7.87,2.41 17.04,2.19 24.17,-2.25 6.08,-3.86 8.88,-11.14 9.5,-18.06 v -7.69 c -11.13,-0.01 -22.25,0.019 -33.38,-0.01 0.33,-5.46 0.67,-11.38 4.14,-15.9 3.82,-5.19 11.16,-6.37 17.06,-4.63 3.65,0.94 6.56,3.71 10.36,4.24 -1.07,-2.681 -1.57,-5.811 -3.56,-7.99 -7.39,-5.09 -17.08,-5.76 -25.62,-3.7 -6.96,1.66 -13.2,6.39 -16.24,12.92 -3.56,7.53 -4.02,16.28 -2.55,24.39 1.6,8.5 7.76,16.09 16.12,18.68" /></g><g
           transform="translate(417.2402,79.9697)"
           id="g88"><path
             id="path90"
             style="fill:#ffffff;fill-opacity:1;fill-rule:nonzero;stroke:none"
             d="m 0,0 c 0.02,12.74 0.02,25.48 0,38.22 5.4,-0.72 10.86,-0.69 16.27,-0.01 -0.02,-11.06 0,-22.12 -0.02,-33.18 0.08,-3.95 0.31,-8.33 3.06,-11.44 3.22,-4.25 10.59,-4.029 13.62,0.33 2.25,3.2 2.54,7.29 2.59,11.091 C 35.5,16.09 35.51,27.17 35.51,38.25 40.9,37.5 46.36,37.49 51.76,38.22 51.75,19.391 51.77,0.561 51.75,-18.27 c -5.14,0.701 -10.34,0.71 -15.48,-0.009 -0.02,2.719 -0.02,5.439 0,8.159 -3.63,-3.6 -7.46,-7.55 -12.66,-8.659 C 16.84,-20.14 8.9,-18.89 4.13,-13.489 0.73,-9.92 0.01,-4.729 0,0" /></g><g
           transform="translate(683.5098,61.7002)"
           id="g92"><path
             id="path94"
             style="fill:#ffffff;fill-opacity:1;fill-rule:nonzero;stroke:none"
             d="m 0,0 c -0.029,18.819 0,37.649 -0.01,56.48 5.401,-0.69 10.85,-0.7 16.26,0.01 -0.029,-18.83 0,-37.671 -0.02,-56.5 C 10.84,0.7 5.391,0.71 0,0" /></g><g
           transform="translate(934.75,118.1802)"
           id="g96"><path
             id="path98"
             style="fill:#ffffff;fill-opacity:1;fill-rule:nonzero;stroke:none"
             d="m 0,0 c 5.4,-0.69 10.85,-0.7 16.25,0.01 -0.01,-18.83 0.01,-37.66 -0.01,-56.49 -5.39,0.71 -10.85,0.71 -16.23,0 C -0.01,-37.65 0,-18.831 0,0" /></g><g
           transform="translate(8.29,43.46)"
           id="g100"><path
             id="path102"
             style="fill:#ffffff;fill-opacity:1;fill-rule:nonzero;stroke:none"
             d="m 0,0 c 45.91,0.09 91.81,0.021 137.71,0.04 v -10.25 c -44.22,0.01 -88.43,0 -132.64,0 C 3.39,-6.8 1.67,-3.41 0,0" /></g><g
           transform="translate(17.0698,26.7402)"
           id="g104"><path
             id="path106"
             style="fill:#ffffff;fill-opacity:1;fill-rule:nonzero;stroke:none"
             d="m 0,0 c 42.98,0.02 85.95,-0.01 128.93,0.01 0,-3.42 0,-6.84 -0.01,-10.26 C 87.5,-10.23 46.07,-10.26 4.64,-10.23 3.1,-6.82 1.53,-3.42 0,0" /></g><g
           transform="translate(25.96,9.96)"
           id="g108"><path
             id="path110"
             style="fill:#ffffff;fill-opacity:1;fill-rule:nonzero;stroke:none"
             d="m 0,0 c 40.01,0.09 80.03,0.01 120.04,0.04 v -10 H 4.99 C 3.16,-6.729 1.61,-3.34 0,0" /></g></g></g></g></svg>