<?xml version="1.0" encoding="UTF-8" standalone="no"?>
<svg
   xmlns:dc="http://purl.org/dc/elements/1.1/"
   xmlns:cc="http://creativecommons.org/ns#"
   xmlns:rdf="http://www.w3.org/1999/02/22-rdf-syntax-ns#"
   xmlns:svg="http://www.w3.org/2000/svg"
   xmlns="http://www.w3.org/2000/svg"
   viewBox="0 0 994.66669 202.66667"
   height="202.66667"
   width="994.66669"
   xml:space="preserve"
   id="svg2"
   version="1.1"><metadata
     id="metadata8"><rdf:RDF><cc:Work
         rdf:about=""><dc:format>image/svg+xml</dc:format><dc:type
           rdf:resource="http://purl.org/dc/dcmitype/StillImage" /></cc:Work></rdf:RDF></metadata><defs
     id="defs6"><clipPath
       id="clipPath18"
       clipPathUnits="userSpaceOnUse"><path
         id="path16"
         d="M 0,152 H 746 V 0 H 0 Z" /></clipPath></defs><g
     transform="matrix(1.3333333,0,0,-1.3333333,0,202.66667)"
     id="g10"><g
       id="g12"><g
         clip-path="url(#clipPath18)"
         id="g14"><g
           transform="translate(658.6631,81.8647)"
           id="g20"><path
             id="path22"
             style="fill:#ffffff;fill-opacity:1;fill-rule:nonzero;stroke:none"
             d="m 0,0 c -0.101,-18.8 -0.051,-37.61 -0.03,-56.41 -0.241,-2.35 2.8,-1.92 4.3,-1.96 8.629,0.44 17.73,-1.35 25.87,2.37 8.189,3.41 13.7,11.55 14.92,20.2 1.099,8.21 0.57,17.12 -4,24.28 C 36.619,-4.09 28,0.21 19.449,0.24 12.97,0.16 6.46,0.51 0,0 m -46.83,-0.04 c -0.061,-19.32 -0.021,-38.65 -0.021,-57.97 12.951,-0.72 25.97,-0.24 38.941,-0.26 0.29,0.28 0.849,0.85 1.139,1.14 0.17,3.19 0.21,6.41 -0.089,9.6 -0.991,1.07 -2.521,0.71 -3.8,0.8 -7.471,-0.03 -14.95,-0.02 -22.42,-0.01 -0.021,4.26 -0.021,8.52 0,12.78 6.149,0.02 12.309,0.02 18.46,-0.01 1.269,0.09 2.8,-0.27 3.769,0.82 0.34,3.37 0.101,6.76 0.161,10.14 -7.451,0.58 -14.93,0.11 -22.39,0.27 -0.021,3.8 -0.011,7.59 -0.011,11.39 8.391,0.07 16.79,-0.13 25.181,0.08 0.29,0.28 0.849,0.85 1.139,1.14 0.17,3.18 0.21,6.4 -0.08,9.58 -1.259,1.3 -3.219,0.65 -4.799,0.82 -11.72,-0.23 -23.47,0.37 -35.18,-0.31 m -47,0 c -0.091,-19.22 0.029,-38.44 -0.061,-57.66 2.601,-0.95 5.401,-0.61 8.12,-0.66 10.361,0.09 20.72,-0.13 31.081,0.1 0.219,0.23 0.679,0.68 0.91,0.91 0.179,3.28 0.229,6.58 -0.08,9.85 -1.031,1.02 -2.531,0.69 -3.8,0.77 -7.481,-0.03 -14.95,-0.02 -22.42,-0.01 -0.021,4.26 -0.021,8.52 0,12.78 7.5,0.18 15.04,-0.34 22.529,0.3 0.04,3.54 0.04,7.08 0,10.62 -7.489,0.64 -15.029,0.12 -22.529,0.3 -0.021,3.8 -0.011,7.59 -0.011,11.39 8.471,0.07 16.95,-0.14 25.42,0.09 0.221,0.23 0.66,0.7 0.881,0.93 0.189,3.26 0.229,6.55 -0.07,9.8 -1.29,1.27 -3.241,0.63 -4.84,0.8 -11.71,-0.23 -23.441,0.37 -35.13,-0.31 m -54.86,0.03 c 0.049,-3.44 -0.14,-6.89 0.089,-10.33 0.22,-0.23 0.67,-0.69 0.901,-0.92 5.33,-0.24 10.67,-0.01 16.01,-0.09 0.059,-15.34 -0.13,-30.69 0.089,-46.03 0.231,-0.22 0.701,-0.66 0.941,-0.88 3.979,-0.18 7.979,-0.18 11.97,0 1.469,0.76 0.849,2.56 1.019,3.87 -0.05,14.35 -0.01,28.7 -0.019,43.04 5.719,0.15 11.469,-0.36 17.16,0.35 0.009,3.69 0.009,7.37 0,11.06 -9.72,0.43 -19.45,0.08 -29.17,0.19 -6.33,-0.13 -12.681,0.29 -18.99,-0.26 m -52.741,0.15 c -1.279,-0.69 -0.719,-2.3 -0.88,-3.46 0.21,-18.34 -0.339,-36.71 0.281,-55.03 4.5,0.27 9.16,-0.66 13.54,0.66 -0.04,11.16 -0.09,22.32 0.03,33.48 6.899,-11.4 13.92,-22.73 20.81,-34.14 4.4,0.02 8.79,-0.08 13.19,0.12 0.27,19.4 0.109,38.82 0.079,58.22 -4.529,0.41 -9.099,0.41 -13.619,0 -0.15,-11.23 0.069,-22.46 -0.12,-33.69 -7.12,11.22 -13.87,22.68 -20.891,33.96 -4.139,-0.1 -8.29,0.17 -12.42,-0.12 m -40.12,0.12 c -7.09,-19.33 -14.489,-38.54 -21.51,-57.89 4.661,-1.46 9.651,-0.41 14.451,-0.72 1.33,3.88 2.57,7.79 3.939,11.65 6.28,-0.05 12.551,0.04 18.82,-0.05 1.34,-3.86 2.59,-7.74 3.911,-11.6 4.809,0.36 9.86,-0.83 14.509,0.78 -7.139,19.29 -14.529,38.49 -21.62,57.79 -4.17,0.05 -8.34,0.02 -12.5,0.04 M -311,0 c -0.121,-19.26 -0.01,-38.53 -0.061,-57.79 4.451,-1.07 9.081,-0.44 13.601,-0.44 0.279,6.84 0.06,13.68 0.14,20.52 2.57,0 5.15,0 7.73,-0.03 3.449,-6.92 6.93,-13.83 10.61,-20.63 3.429,0.04 6.87,0 10.32,0 1.42,0.04 3.04,-0.18 4.12,0.99 -3.5,7.94 -8.03,15.42 -11.99,23.14 10.09,4.54 12.469,18.71 6.29,27.28 -4.26,5.59 -11.71,7.23 -18.39,7.21 C -296.09,0.13 -303.561,0.54 -311,0 m -39.161,0.25 c -6.71,-18.01 -13.429,-36.03 -20.17,-54.03 -0.589,-1.45 -1,-3.01 -0.669,-4.58 4.629,0.03 9.26,-0.03 13.89,0.06 1.21,3.89 2.52,7.75 3.839,11.6 6.271,-0.03 12.541,-0.01 18.811,-0.01 1.22,-3.9 2.549,-7.78 3.91,-11.64 4.3,0.08 8.61,-0.17 12.9,0.1 0.33,0.25 0.989,0.75 1.319,0.99 -6.83,19.28 -14.299,38.33 -21.419,57.51 z m -70.67,-0.3 c -0.04,-13.44 -0.06,-26.88 0,-40.32 0.241,-8.51 6.781,-16.11 15.071,-17.86 7.31,-1.41 15.55,-1.27 21.96,2.95 5.52,3.69 8.58,10.3 8.449,16.86 0.02,12.8 0.06,25.61 -0.029,38.42 -4.33,0.36 -8.701,0.38 -13.031,0.14 -0.19,-0.19 -0.579,-0.56 -0.77,-0.74 -0.269,-10.91 -0.039,-21.84 -0.099,-32.76 -0.1,-3.63 0.509,-7.61 -1.41,-10.89 -2.34,-3.58 -7.15,-3.45 -10.871,-2.86 -3.899,0.78 -5.54,5.03 -5.52,8.6 -0.119,12.64 0.17,25.29 -0.119,37.92 -0.2,0.18 -0.591,0.54 -0.78,0.73 -4.28,0.23 -8.59,0.25 -12.851,-0.19 m -53.79,-11.08 c -3.989,-7.42 -3.639,-16.07 -3.31,-24.21 0.591,-6.22 2.921,-12.47 7.39,-16.94 4.591,-4.68 11.281,-6.94 17.77,-6.7 8.351,-0.31 17.351,1.95 23.09,8.38 -0.099,7.68 0.131,15.36 -0.09,23.03 -0.279,0.29 -0.85,0.86 -1.14,1.14 -7.52,0.1 -15.079,0.24 -22.599,-0.08 -1.27,-1.29 -0.64,-3.24 -0.821,-4.85 0.23,-1.91 -0.569,-4.23 0.81,-5.83 3.261,-0.34 6.551,-0.11 9.831,-0.15 0,-2.76 0,-5.52 0.009,-8.28 -3.88,-1.97 -8.46,-2.26 -12.65,-1.26 -5.419,1.89 -7.359,8.06 -7.659,13.27 -0.191,6.07 -0.6,12.61 2.3,18.17 2.69,5.32 10.41,6.48 15.02,3.08 2.379,-1.72 2.89,-4.73 3.609,-7.37 4.19,0.1 8.391,-0.12 12.581,0.11 0.16,0.3 0.48,0.92 0.64,1.22 -0.5,5.33 -2.66,10.7 -6.801,14.22 -5.389,4.8 -13.079,5.66 -20,5.06 -7.509,-0.64 -14.71,-5.12 -17.98,-12.01 m -1.619,22.45 c 4.159,0.03 8.329,-0.22 12.48,0.1 4.639,0.48 8.29,5.58 6.73,10.09 -0.43,2.36 -2.45,3.85 -4.1,5.37 3.73,3.03 4.33,9.62 0.259,12.6 -4.609,2.78 -10.27,1.48 -15.369,1.74 -0.091,-9.97 -0.08,-19.94 0,-29.9 m 203.21,29.88 c -0.031,-9.97 -0.05,-19.93 0.019,-29.9 6.181,0.04 12.37,-0.13 18.561,0.07 -0.01,0.55 -0.03,1.65 -0.04,2.2 -5.401,0.21 -10.8,0.02 -16.2,0.08 v 11.83 c 4.719,0.06 9.44,-0.13 14.16,0.08 0,0.55 0.009,1.63 0.009,2.18 -4.719,0.21 -9.45,0.02 -14.169,0.08 v 11.23 c 5.44,0.02 10.889,-0.05 16.339,0.05 v 2.1 c -6.229,0.08 -12.45,0.08 -18.679,0 m -24.321,-1.86 c -2.859,-2.3 -4.06,-6.05 -4.31,-9.6 -0.13,-4.91 -0.559,-10.33 2.451,-14.56 3.64,-5.56 12.629,-5.89 16.989,-1.06 1.84,1.85 2.181,4.52 2.651,6.95 -0.531,0.05 -1.59,0.15 -2.13,0.2 -0.54,-3.38 -2.271,-7.27 -6.03,-7.88 -5.17,-1.88 -10.71,2.2 -11.44,7.41 -0.53,5.11 -1.141,10.95 2,15.39 2.95,4.07 9.33,4.3 12.949,1.04 1.681,-1.64 1.941,-4.11 2.62,-6.24 0.491,0.2 1.47,0.6 1.96,0.81 -0.349,2.72 -1.25,5.59 -3.41,7.42 -4.019,3.18 -10.269,3.4 -14.3,0.12 m -14.299,0.42 c -0.06,-9.44 -0.121,-18.88 0.04,-28.31 0.549,-0.01 1.65,-0.03 2.199,-0.04 0.161,10 0.1,20.01 0.011,30.01 -1.011,-0.24 -2.59,-0.1 -2.25,-1.66 m -28.38,1.44 c -0.051,-9.97 -0.011,-19.94 -0.02,-29.9 l 1.96,-0.02 v 12.2 c 3.1,0 6.19,0 9.29,0.01 2.54,-4.06 5.139,-8.08 7.56,-12.21 0.639,0.06 1.909,0.18 2.54,0.25 -2.39,4.22 -5.02,8.3 -7.631,12.37 5.9,2.04 8.321,10.34 3.631,14.76 -4.78,4.1 -11.6,2.18 -17.33,2.54 m -25.571,-0.02 c -0.17,-10.04 -0.119,-20.08 -0.02,-30.13 0.551,0.15 1.651,0.44 2.201,0.59 0.23,3.94 0.029,7.9 0.089,11.84 4.261,0.25 8.79,-0.75 12.831,0.99 6.47,2.92 5.8,14.14 -1.101,16.13 -4.54,1.22 -9.339,0.49 -14,0.58 m -38.69,-2.05 c 3.661,-0.14 7.331,-0.06 10.991,-0.09 0.02,-9.25 0,-18.51 0.02,-27.77 l 1.949,0.04 c 0,9.24 -0.009,18.49 0.011,27.73 3.549,0.01 7.12,-0.01 10.679,0.06 -0.049,0.51 -0.13,1.55 -0.17,2.07 -6.629,0.18 -13.259,0.03 -19.889,0.1 -1.51,-0.05 -3.961,0.45 -3.591,-2.14 m -22.31,-1.76 c -1.299,-2.65 -1.109,-6.31 1.29,-8.31 3.971,-3.77 10.23,-3.12 14.48,-6.47 1.931,-1.49 2.471,-4.55 0.871,-6.47 -3.17,-4.07 -9.59,-3.86 -13.63,-1.24 -2.16,1.27 -2.21,4.08 -3.06,6.17 -2.44,-0.61 -1.75,-3.54 -0.82,-5.15 2.539,-4.71 8.889,-5.78 13.71,-4.7 4.23,0.54 7.889,4.72 7.02,9.07 -1.04,3.84 -4.83,6.05 -8.48,6.9 -3.48,1.17 -8.08,1.6 -9.78,5.38 -1.22,5.16 5.189,7.72 9.339,6.79 3.901,-0.49 6.31,-4.03 6.921,-7.68 2.67,0.23 1.429,3.14 1.01,4.66 -3.48,6.86 -14.55,7.23 -18.871,1.05 m -24.089,3.74 c 0.009,-9.93 -0.01,-19.86 0.009,-29.79 6.461,0.01 12.941,-0.19 19.401,0.13 -0.23,0.51 -0.7,1.51 -0.93,2.01 -5.351,0.45 -10.75,0.06 -16.121,0.19 v 11.83 c 4.75,0.07 9.491,-0.15 14.23,0.11 0.141,0.54 0.42,1.62 0.551,2.16 -4.92,0.13 -9.85,0.05 -14.781,0.07 0,3.74 0,7.48 0.011,11.22 5.529,0.06 11.07,-0.09 16.6,0.11 -0.04,0.51 -0.111,1.54 -0.14,2.05 -6.281,0.04 -12.56,0.17 -18.83,-0.09 m -57,20.54 H 57.319 c 3.37,0.38 6.88,-1.73 7.771,-5.06 0.359,-2.29 0.189,-4.63 0.229,-6.94 -0.04,-38.69 0.031,-77.39 -0.029,-116.09 0.21,-4.15 -3.95,-7.49 -7.971,-6.92 -188.33,0.02 -376.67,0 -565.009,0.01 z" /></g><g
           transform="translate(66.4824,106.1846)"
           id="g24"><path
             id="path26"
             style="fill:#ffffff;fill-opacity:1;fill-rule:nonzero;stroke:none"
             d="m 0,0 c 0.07,-1.64 0.14,-3.29 0.23,-4.93 -5.17,-1.18 -10.49,-3.58 -13.38,-8.25 -2.51,-3.58 -2.83,-8.43 -1.22,-12.43 2.19,-4.75 7,-7.43 11.72,-9.119 6.12,-1.571 12.87,-2.021 18.01,-6.09 -0.02,-0.741 -0.06,-2.211 -0.08,-2.941 -5.37,-5.679 -16.26,-5.9 -20.65,1.071 -2.98,-1.011 -5.96,-1.991 -8.98,-2.841 1.87,-5.03 6.04,-9.05 11.11,-10.789 0.1,-0.141 0.3,-0.421 0.4,-0.551 0.76,-0.06 2.28,-0.19 3.04,-0.25 -0.06,-1.739 -0.13,-3.48 -0.18,-5.22 3.32,0.021 6.63,0.021 9.95,0 -0.07,1.7 -0.14,3.39 -0.22,5.09 0.73,0.12 2.17,0.351 2.89,0.47 4.01,1.671 8.2,3.75 10.5,7.631 2.8,4.04 3.09,9.96 -0.02,13.909 -2.97,4.11 -7.84,6.09 -12.5,7.61 -1.34,0.31 -2.68,0.61 -4.01,0.93 -3.66,0.76 -7.53,1.33 -10.68,3.49 -1.77,0.83 -1.06,3 -1.36,4.55 5.39,5.72 16.34,6.04 20.78,-0.98 2.98,0.99 5.96,1.98 8.98,2.83 C 22.09,-10.52 16.18,-6.24 9.76,-4.96 9.84,-3.31 9.91,-1.65 9.97,0 6.65,-0.02 3.33,-0.01 0,0 m -3.95,17.53 c 11.72,2.06 24.19,0 34.38,-6.24 C 44.69,2.89 54.18,-13.1 54.42,-29.69 54.9,-41.49 50.82,-53.359 43.33,-62.479 34.24,-73.72 20,-80.67 5.5,-80.62 c -13.4,-0.31 -26.74,5.33 -36.02,14.96 -9.01,9.221 -14.23,22.08 -13.94,34.98 -0.04,12.36 4.99,24.58 13.48,33.52 7.15,7.6 16.77,12.82 27.03,14.69" /></g><g
           transform="translate(295.3325,120.9048)"
           id="g28"><path
             id="path30"
             style="fill:#ffffff;fill-opacity:1;fill-rule:nonzero;stroke:none"
             d="m 0,0 c 3.94,-0.22 8.23,0.79 11.88,-1.12 4.38,-2.41 4,-9.82 -0.75,-11.61 C 7.55,-13.87 3.69,-13.24 0,-13.38 Z" /></g><g
           transform="translate(184.5728,109.6948)"
           id="g32"><path
             id="path34"
             style="fill:#ffffff;fill-opacity:1;fill-rule:nonzero;stroke:none"
             d="M 0,0 C 0,3.74 -0.01,7.47 0.01,11.21 3.83,11.09 7.99,11.83 11.52,9.98 15.2,7.82 14.35,1.2 10.04,0.33 6.74,-0.34 3.34,0.09 0,0" /></g><g
           transform="translate(320.5825,120.8945)"
           id="g36"><path
             id="path38"
             style="fill:#ffffff;fill-opacity:1;fill-rule:nonzero;stroke:none"
             d="m 0,0 c 4.34,-0.27 9.27,1.06 13.09,-1.66 4.15,-2.81 2.61,-9.99 -2.12,-11.28 -3.62,-0.59 -7.33,-0.15 -10.98,-0.26 0,4.4 -0.01,8.8 0.01,13.2" /></g><g
           transform="translate(184.5728,107.335)"
           id="g40"><path
             id="path42"
             style="fill:#ffffff;fill-opacity:1;fill-rule:nonzero;stroke:none"
             d="m 0,0 c 4.6,-0.4 10.3,1.44 13.88,-2.39 2.81,-3.23 0.56,-8.64 -3.57,-9.3 C 6.88,-11.99 3.43,-11.77 0,-11.81 Z" /></g><g
           transform="translate(361.3325,70.5049)"
           id="g44"><path
             id="path46"
             style="fill:#ffffff;fill-opacity:1;fill-rule:nonzero;stroke:none"
             d="M 0,0 C 4.1,-0.101 8.28,0.399 12.32,-0.521 18.19,-2.57 17.92,-12.57 11.87,-14.25 7.98,-15.08 3.95,-14.45 0,-14.62 Z" /></g><g
           transform="translate(672.5723,70.5449)"
           id="g48"><path
             id="path50"
             style="fill:#ffffff;fill-opacity:1;fill-rule:nonzero;stroke:none"
             d="m 0,0 c 4.71,0.01 10.36,0.38 13.761,-3.58 4.219,-4.83 3.729,-11.61 3.609,-17.59 -0.069,-4.76 -1.8,-10 -6.04,-12.62 C 7.94,-35.88 3.801,-35.41 0.011,-35.43 -0.01,-23.62 0,-11.811 0,0" /></g><g
           transform="translate(423.3525,63.3545)"
           id="g52"><path
             id="path54"
             style="fill:#ffffff;fill-opacity:1;fill-rule:nonzero;stroke:none"
             d="M 0,0 C 1.82,-5.56 3.68,-11.109 5.561,-16.649 1.89,-16.68 -1.78,-16.689 -5.45,-16.64 -3.729,-11.06 -1.85,-5.529 0,0" /></g><g
           transform="translate(314.6729,62.9551)"
           id="g56"><path
             id="path58"
             style="fill:#ffffff;fill-opacity:1;fill-rule:nonzero;stroke:none"
             d="M 0,0 C 2,-5.37 3.85,-10.811 5.61,-16.271 H -5.47 C -3.63,-10.851 -1.9,-5.4 0,0" /></g></g></g></g></svg>