<?xml version="1.0" encoding="UTF-8" standalone="no"?>
<svg
   xmlns:dc="http://purl.org/dc/elements/1.1/"
   xmlns:cc="http://creativecommons.org/ns#"
   xmlns:rdf="http://www.w3.org/1999/02/22-rdf-syntax-ns#"
   xmlns:svg="http://www.w3.org/2000/svg"
   xmlns="http://www.w3.org/2000/svg"
   viewBox="0 0 1426.0933 492.44"
   height="492.44"
   width="1426.0933"
   xml:space="preserve"
   id="svg2"
   version="1.1"><metadata
     id="metadata8"><rdf:RDF><cc:Work
         rdf:about=""><dc:format>image/svg+xml</dc:format><dc:type
           rdf:resource="http://purl.org/dc/dcmitype/StillImage" /></cc:Work></rdf:RDF></metadata><defs
     id="defs6"><clipPath
       id="clipPath18"
       clipPathUnits="userSpaceOnUse"><path
         id="path16"
         d="M 0,369.33 H 1069.565 V 0 H 0 Z" /></clipPath></defs><g
     transform="matrix(1.3333333,0,0,-1.3333333,0,492.44)"
     id="g10"><g
       id="g12"><g
         clip-path="url(#clipPath18)"
         id="g14"><g
           transform="translate(761.6853,248.4901)"
           id="g20"><path
             id="path22"
             style="fill:#ffffff;fill-opacity:1;fill-rule:nonzero;stroke:none"
             d="m 0,0 c -6.37,-2.25 -10.39,-9.83 -8.07,-16.3 1.85,-5.92 8.75,-9.51 14.67,-7.68 7.29,1.72 12.09,10.41 9.01,17.4 C 13.27,-0.6 5.91,2.34 0,0 m -150.18,120.84 c 123.1,-0.03 246.2,-0.02 369.3,-0.01 -0.01,-69.23 -0.02,-138.47 0.01,-207.7 -13.82,-12.93 -30.8,-22.91 -49.51,-26.57 -9.86,-1.79 -20.17,-2.58 -29.97,-0.04 -5.21,1.35 -10.11,3.939 -13.81,7.88 13.86,2.96 27.52,8.3 38.57,17.36 7.58,6.25 13.87,14.75 15.38,24.65 1.37,8.22 -0.52,17.49 -6.79,23.34 -6.45,6.08 -15.69,8.03 -24.3,8.03 -14.32,0.06 -28.45,-6.74 -37.26,-18.04 -9.711,-12.09 -12.961,-28.4 -10.82,-43.55 -14.67,-0.52 -29.36,1.83 -43.18,6.75 15.039,18.16 29.77,36.8 41.25,57.48 7.539,13.8 13.61,29.01 13.51,44.97 -0.12,7.34 -2.56,15.36 -8.98,19.59 -8.5,5.33 -20.03,4.68 -28.31,-0.77 C 66.65,28.83 60.9,20.48 56.229,11.97 48.31,-2.69 43.09,-18.62 38.51,-34.59 32.76,-54.9 28.5,-75.6 24.479,-96.32 c -0.369,-1.76 -0.729,-3.65 -2.079,-4.96 -5.83,-6.47 -13.63,-12.56 -22.79,-12.23 -3.57,-0.11 -7.29,1.54 -9.06,4.73 -2.61,4.62 -2.02,10.19 -1.43,15.25 2.2,15.489 7.82,30.19 12.15,45.15 1.08,3.36 -2.05,6.18 -4.88,7.28 -4.23,1.81 -10.8,1.25 -12.19,-3.95 -5.3,-14.39 -11.1,-28.7 -19.35,-41.69 -6.8,-10.54 -15.22,-21.1 -27.24,-25.82 -6.07,-2.22 -14.11,-3.21 -19,1.93 -5.03,5.57 -5.26,13.589 -5.19,20.68 22.83,18.47 42.15,41.87 53.79,68.97 4.99,12.11 8.48,25.22 7.59,38.42 -0.53,7.52 -4.03,15.54 -11.19,18.87 -8.8,4.21 -19.7,2.43 -27.24,-3.57 -10.24,-7.98 -16.44,-19.85 -21.49,-31.54 -7.84,-18.97 -12.42,-39.11 -15.93,-59.27 -1.42,-8.43 -2.61,-16.92 -3.11,-25.46 -14.15,-10.19 -29.67,-18.47 -46.02,-24.55 -0.01,76.31 0,152.61 0,228.92" /></g><g
           transform="translate(704.5457,264.8001)"
           id="g24"><path
             id="path26"
             style="fill:#ffffff;fill-opacity:1;fill-rule:nonzero;stroke:none"
             d="M 0,0 C 2.35,3.04 5.01,6.31 8.869,7.37 11.359,8.15 13.96,6.21 14.42,3.73 16.13,-3.28 14.199,-10.51 12.569,-17.36 5.51,-42.57 -8.54,-65.7 -27.091,-84.12 c 3.381,20.18 7.841,40.27 14.851,59.53 C -9,-16.02 -5.37,-7.48 0,0" /></g><g
           transform="translate(840.4148,263.95)"
           id="g28"><path
             id="path30"
             style="fill:#ffffff;fill-opacity:1;fill-rule:nonzero;stroke:none"
             d="m 0,0 c 2.801,3.61 6.04,7.93 10.95,8.39 4.071,-0.29 5.061,-5.04 5.071,-8.36 -0.17,-9.65 -3.771,-18.82 -7.55,-27.56 -10.441,-22.79 -24.63,-43.67 -40.08,-63.32 3.849,18.02 8.299,35.94 14.189,53.42 C -12.89,-24.44 -7.949,-11.34 0,0" /></g><g
           transform="translate(889.075,190.2899)"
           id="g32"><path
             id="path34"
             style="fill:#ffffff;fill-opacity:1;fill-rule:nonzero;stroke:none"
             d="m 0,0 c 4.431,5.84 11.101,10.15 18.471,10.95 4.46,0.51 9.619,0.17 12.949,-3.23 3.24,-3.31 3.61,-8.45 2.52,-12.74 C 32.2,-11.64 27.42,-17.01 22.09,-21.08 13.37,-27.669 2.79,-31.28 -7.819,-33.44 -9.739,-21.87 -7.17,-9.39 0,0" /></g><g
           transform="translate(611.5056,123.9398)"
           id="g36"><path
             id="path38"
             style="fill:#ffffff;fill-opacity:1;fill-rule:nonzero;stroke:none"
             d="m 0,0 c 16.17,5.86 31.64,13.641 46.109,22.94 1.141,-8.43 4.12,-17.25 11.04,-22.7 7.871,-6.34 18.821,-6.74 28.33,-4.73 14.451,3.11 26.43,13.14 34.991,24.841 0.37,-9.031 4.96,-18.321 13.389,-22.311 11.601,-5.34 26.13,-3.019 35.951,5.01 -3.401,-18.93 -6.54,-38.119 -5.48,-57.43 0.69,-8.689 2.5,-17.979 8.579,-24.61 5.811,-6.38 15.301,-7.93 23.45,-6.21 7.691,1.45 14.42,6.41 18.641,12.921 6.689,10.09 8.88,22.359 9.71,34.229 1.1,19.981 -2.71,40.22 -11.011,58.42 13.561,-4.25 27.881,-4.79 41.981,-4.479 4.969,-8 12.54,-14.29 21.32,-17.721 12.909,-5.069 27.21,-5.34 40.8,-3.41 18.84,2.62 36.66,10.86 51.51,22.65 -0.04,-47.12 0,-94.229 -0.02,-141.349 -123.101,0.049 -246.2,-0.011 -369.301,0.029 0.021,41.301 0,82.6 0.011,123.91" /></g><g
           transform="translate(802.5857,142.97)"
           id="g40"><path
             id="path42"
             style="fill:#ffffff;fill-opacity:1;fill-rule:nonzero;stroke:none"
             d="m 0,0 c 0.159,1.86 1.529,3.17 2.71,4.479 8.199,-15.509 12.13,-33.019 13.06,-50.459 0.37,-10.27 -0.18,-20.8 -3.56,-30.58 -1.66,-4.58 -4.471,-9.61 -9.53,-10.93 -3.611,-1.14 -7.64,0.91 -9.09,4.33 -2.611,5.63 -2.471,12.03 -2.361,18.1 0.8,21.91 4.51,43.59 8.771,65.06" /></g><g
           transform="translate(998.6257,368.0399)"
           id="g44"><path
             id="path46"
             style="fill:#ffffff;fill-opacity:1;fill-rule:nonzero;stroke:none"
             d="m 0,0 c 9.97,0 19.93,-0.01 29.899,0.01 0.01,-1.34 0.031,-2.68 0.071,-4.03 -4.231,-0.25 -8.45,-0.18 -12.67,-0.17 0.019,-10.88 0,-21.75 0.01,-32.63 -1.581,0.01 -3.151,0.02 -4.691,0.03 -0.01,10.87 -0.01,21.74 0,32.6 -4.17,0 -8.34,0.01 -12.5,0 C 0.069,-2.79 0.029,-1.39 0,0" /></g><g
           transform="translate(1032.5457,368.0301)"
           id="g48"><path
             id="path50"
             style="fill:#ffffff;fill-opacity:1;fill-rule:nonzero;stroke:none"
             d="m 0,0 c 2.319,-0.01 4.64,-0.01 6.979,-0.02 3.851,-10.27 7.701,-20.54 11.521,-30.83 3.79,10.3 7.67,20.56 11.489,30.85 2.33,-0.01 4.67,-0.01 7.021,-0.01 C 37,-12.28 37,-24.54 37.02,-36.8 c -1.581,-0.01 -3.14,-0.02 -4.68,-0.03 -0.061,10.35 0.01,20.7 -0.04,31.05 -3.941,-10.31 -7.641,-20.71 -11.5,-31.04 -1.571,0 -3.12,0.01 -4.651,0.01 C 12.35,-26.48 8.58,-16.15 4.739,-5.84 4.63,-16.17 4.72,-26.5 4.689,-36.82 H 0.01 C -0.011,-24.54 0.01,-12.27 0,0" /></g><g
           transform="translate(415.7151,190.5501)"
           id="g52"><path
             id="path54"
             style="fill:#ffffff;fill-opacity:1;fill-rule:nonzero;stroke:none"
             d="m 0,0 c -8.78,-6.09 -10.74,-17.67 -10.85,-27.63 0.17,-9.71 0.58,-20.59 7.26,-28.32 5.94,-6.93 16.29,-7.68 24.52,-5.08 5.22,1.6 11.38,5.24 11.35,11.429 0.05,14.511 0,29.021 0.02,43.541 C 24.71,2.94 10.21,6.56 0,0 m 32.28,62.94 c 4.65,0.17 9.86,0.75 13.9,-2.09 4.14,-3.07 5.14,-8.56 5.11,-13.41 0.03,-29.02 0.01,-58.041 0.01,-87.06 0.11,-8.75 -0.31,-17.58 1.14,-26.24 0.38,-2.84 1.9,-5.3 3,-7.88 0.01,-1.52 -1.6,-1.47 -2.69,-1.72 -5.16,-0.77 -10.85,-0.4 -15.31,2.54 -2.44,1.54 -3.26,4.43 -4.02,7.02 -5.15,-5.76 -12.12,-10.24 -19.91,-11.15 -11.27,-1.44 -23.81,0.94 -32.07,9.22 -8.69,8.67 -11.78,21.36 -12.13,33.28 -0.67,14.529 1.71,30.31 11.57,41.64 12.74,14.52 37.02,14.99 51.45,2.7 -0.09,17.72 0.01,35.43 -0.05,53.15" /></g><g
           transform="translate(21.9753,203.4798)"
           id="g56"><path
             id="path58"
             style="fill:#ffffff;fill-opacity:1;fill-rule:nonzero;stroke:none"
             d="M 0,0 C 10.45,5.67 23.01,7.2 34.59,4.66 40,3.38 45.38,1.32 49.69,-2.28 c 2.11,-1.81 4.12,-4.28 3.98,-7.23 -0.4,-4.3 -3.02,-7.9 -5.25,-11.44 -5.27,5.06 -11.61,9.62 -19.02,10.64 -8.49,1.2 -17.99,-0.76 -23.97,-7.28 -6.39,-6.91 -8.03,-16.8 -7.82,-25.9 0.21,-8.72 2.04,-18.1 8.3,-24.59 7.77,-7.96 20.79,-9.13 30.59,-4.51 4.03,1.82 7.56,4.54 10.71,7.6 2.7,-3.77 6.59,-7.6 6.3,-12.59 -1.07,-3.8 -4.6,-6.21 -7.83,-8.109 -11.03,-5.861 -24.23,-6.231 -36.25,-3.75 -10.14,1.989 -19.2,8.559 -24.36,17.5 -6.98,11.04 -7.67,24.689 -6.69,37.359 C -20.53,-20.5 -12.55,-6.81 0,0" /></g><g
           transform="translate(119.5354,157.7903)"
           id="g60"><path
             id="path62"
             style="fill:#ffffff;fill-opacity:1;fill-rule:nonzero;stroke:none"
             d="m 0,0 c -5.08,-2.12 -9.95,-6.181 -10.86,-11.891 -1.29,-6.359 1.1,-14.62 7.8,-16.849 8.78,-2.571 18.53,-0.24 25.85,5.059 2.79,2.101 5.61,5.051 5.43,8.821 0.07,6.16 -0.02,12.33 0,18.49 C 18.75,3.55 8.89,3.72 0,0 m -16.44,46.37 c 11.35,4.94 24.1,6.18 36.33,4.89 7.8,-0.83 15.99,-3.68 20.85,-10.18 4.5,-5.94 5.47,-13.65 5.84,-20.881 0.24,-14.019 -0.1,-28.059 0.2,-42.079 0.33,-5.73 0.22,-11.82 3.04,-17 0.44,-1.07 1.5,-2.25 0.42,-3.32 -5.59,-1.47 -11.95,-1.191 -17.04,1.729 -2.68,1.561 -3.75,4.63 -4.41,7.471 -6.19,-5.99 -14.16,-10.52 -22.9,-11.04 -9.9,-0.82 -21.26,0.1 -28.57,7.649 -6.97,6.891 -8.34,17.561 -6.52,26.811 1.86,9.25 9.58,16.04 17.76,19.97 12.25,5.66 26.12,6.519 39.42,6.139 0.1,5.771 -0.23,12.601 -5.13,16.511 -5.2,3.58 -11.91,3.34 -17.95,3.109 -8.89,-0.299 -17.19,-4.119 -24.46,-9.009 -2.19,3.92 -4.7,8.18 -4.34,12.83 1.06,3.32 4.58,4.929 7.46,6.4" /></g><g
           transform="translate(208.7551,197.6702)"
           id="g64"><path
             id="path66"
             style="fill:#ffffff;fill-opacity:1;fill-rule:nonzero;stroke:none"
             d="m 0,0 c 7.09,6.98 16.73,11.37 26.7,11.77 9.02,0.56 19.22,-0.71 25.71,-7.68 6.35,-6.15 8.35,-15.28 8.4,-23.82 0.21,-20.84 0.03,-41.68 0.1,-62.53 -6.38,0 -12.76,0.02 -19.13,0 0,16.51 -0.01,33.02 0,49.52 -0.18,6.469 0.38,13.16 -1.72,19.38 -1.46,4.58 -5.93,7.52 -10.54,8.18 C 22.38,-4.25 14.68,-4.7 8.36,-8.48 4.38,-10.79 1.01,-14.86 1.09,-19.681 1.04,-40.53 1.03,-61.4 1.1,-82.25 c -6.4,0 -12.8,-0.01 -19.2,0 0,30.79 -0.03,61.569 0.02,92.35 4.92,0.3 10.32,0.02 14.32,-3.25 C -1.61,5.18 -0.85,2.47 0,0" /></g><g
           transform="translate(325.3752,159.9798)"
           id="g68"><path
             id="path70"
             style="fill:#ffffff;fill-opacity:1;fill-rule:nonzero;stroke:none"
             d="m 0,0 c -6.67,-1.41 -13.98,-4.43 -17.03,-10.99 -2.79,-6.8 -1.02,-16.71 6.37,-19.76 8.93,-2.92 19,-0.46 26.48,4.96 2.71,2.07 5.41,4.95 5.29,8.59 0.08,6.221 -0.03,12.43 0.01,18.64 C 14.07,1.44 6.94,1.4 0,0 m -20.44,45.46 c 12.03,4.24 25.24,5.2 37.78,2.89 7.99,-1.51 15.77,-6.32 19.01,-14.05 4.13,-9.91 3.03,-20.88 3.21,-31.36 0.2,-12.009 -0.56,-24.089 0.77,-36.06 0.29,-3.97 2.21,-7.489 3.57,-11.15 -6,-1.459 -12.85,-1.549 -18.21,1.9 -2.49,1.56 -3.28,4.551 -4.02,7.2 -6.09,-5.95 -13.96,-10.439 -22.58,-11.04 -9.94,-0.85 -21.34,-0.01 -28.74,7.49 -7.05,6.89 -8.49,17.64 -6.64,26.94 1.85,9.35 9.72,16.171 17.99,20.08 12.19,5.57 25.95,6.42 39.17,6.04 0.15,5.94 -0.27,13.1 -5.6,16.86 -5.41,3.3 -12.1,3.01 -18.2,2.71 -8.65,-0.44 -16.67,-4.24 -23.77,-8.96 -2.13,3.97 -4.73,8.29 -4.3,12.95 1.8,4.23 6.63,5.9 10.56,7.56" /></g><g
           transform="translate(520.825,159.3304)"
           id="g72"><path
             id="path74"
             style="fill:#ffffff;fill-opacity:1;fill-rule:nonzero;stroke:none"
             d="m 0,0 c -6.22,-1.65 -12.88,-5.271 -14.92,-11.79 -1.95,-6.54 -0.04,-15.42 6.8,-18.271 8.921,-2.969 19,-0.53 26.5,4.861 2.761,2.09 5.53,5.03 5.36,8.74 0.061,6.189 -0.01,12.369 -0.01,18.56 C 15.79,2.04 7.71,2.1 0,0 M -20.71,44.91 C -8.52,50.1 5.221,51.27 18.261,49.33 26.58,48.09 35.021,43.62 38.65,35.68 43.11,25.97 42,14.979 42.16,4.6 c 0.2,-12.67 -0.57,-25.411 0.95,-38.02 0.27,-3.28 1.901,-6.171 3.21,-9.11 0.08,-1.54 -1.57,-1.45 -2.63,-1.7 -5.19,-0.781 -10.9,-0.411 -15.389,2.53 -2.461,1.59 -3.28,4.53 -4,7.17 C 18.19,-40.5 10.29,-44.99 1.63,-45.57 c -9.93,-0.83 -21.359,0.019 -28.71,7.59 -7.06,6.87 -8.35,17.599 -6.57,26.87 1.86,9.28 9.65,16.089 17.86,20 12.23,5.62 26.051,6.5 39.311,6.089 C 23.59,20.739 23.34,27.6 18.4,31.49 13.25,35.08 6.57,34.82 0.58,34.629 -8.37,34.33 -16.71,30.51 -24.04,25.6 c -2.14,3.72 -4.199,7.69 -4.47,12.04 0.6,3.89 4.67,5.69 7.8,7.27" /></g></g></g></g></svg>