<?xml version="1.0" encoding="UTF-8" standalone="no"?>
<svg
   xmlns:dc="http://purl.org/dc/elements/1.1/"
   xmlns:cc="http://creativecommons.org/ns#"
   xmlns:rdf="http://www.w3.org/1999/02/22-rdf-syntax-ns#"
   xmlns:svg="http://www.w3.org/2000/svg"
   xmlns="http://www.w3.org/2000/svg"
   viewBox="0 0 855.18744 579.32049"
   height="579.3205"
   width="855.18744"
   xml:space="preserve"
   id="svg2"
   version="1.1"><metadata
     id="metadata8"><rdf:RDF><cc:Work
         rdf:about=""><dc:format>image/svg+xml</dc:format><dc:type
           rdf:resource="http://purl.org/dc/dcmitype/StillImage" /></cc:Work></rdf:RDF></metadata><defs
     id="defs6"><clipPath
       id="clipPath18"
       clipPathUnits="userSpaceOnUse"><path
         id="path16"
         d="M 0,472 H 680 V 0 H 0 Z" /></clipPath></defs><g
     transform="matrix(1.3333333,0,0,-1.3333333,-25.739866,604.32692)"
     id="g10"><g
       id="g12"><g
         clip-path="url(#clipPath18)"
         id="g14"><g
           transform="translate(128.3149,266.2852)"
           id="g20"><path
             id="path22"
             style="fill:#ffffff;fill-opacity:1;fill-rule:nonzero;stroke:none"
             d="m 0,0 c -4.34,-4.42 -4.17,-11.27 -2.35,-16.8 l 0.49,-0.02 c 1.2,-2.7 3.82,-4.14 6.73,-3.67 0.98,0.89 1.96,1.77 2.95,2.64 2.66,5.09 2.43,11.06 0.09,16.21 C 5.94,0.47 2.57,1.98 0,0 m 51.72,62.21 c -4.7,-4.29 -4.98,-11.26 -4.25,-17.17 1.18,-3.05 2.16,-6.66 5.33,-8.26 2.96,-2.12 7.02,-0.18 8.74,2.64 3.96,6.5 4.1,15.61 -0.66,21.73 -2.05,2.83 -6.61,3.74 -9.16,1.06 m 26.9,11.27 C 73.82,66.12 72.65,56.07 76.7,48.13 l -0.05,-0.37 c 1.02,-1.43 2.02,-2.87 3.01,-4.32 0.32,0.01 0.98,0.04 1.31,0.05 1.79,-2.52 5.11,-2.13 7.66,-1.2 1.24,0.56 2.32,1.53 3.05,2.68 4.11,4.29 4.85,10.69 4.49,16.37 l 0.28,0.56 c -1.03,3.62 -1.44,7.63 -4.06,10.55 l 0.05,0.43 -0.53,0.27 c -1.78,2.09 -4.21,4.04 -7.14,3.65 -2.56,0.17 -4.37,-1.81 -6.15,-3.32 m 39.62,111.33 c 0.95,0.65 1.81,1.56 2.98,1.78 0.39,0.09 1.15,0.27 1.54,0.37 -0.65,-2.19 -1.35,-4.35 -1.93,-6.55 -0.18,-0.68 -0.55,-2.04 -0.73,-2.72 -0.99,-3.41 -1.95,-6.82 -2.63,-10.31 -4.18,-17.28 -6.5,-34.96 -7.94,-52.67 -0.36,-3.83 -0.53,-7.68 -0.76,-11.52 -0.54,-8.34 -0.62,-16.71 -0.73,-25.07 -0.87,-7.81 -0.54,-15.67 -0.87,-23.51 -0.11,-2.33 -0.21,-4.65 -0.18,-6.99 -0.06,-4.77 -0.57,-9.51 -0.81,-14.28 -4.57,0.09 -9.09,0.79 -13.64,1.22 -5.46,0.42 -11,0.8 -16.44,-0.04 C 70.96,33.79 65.92,32.49 61,30.86 59.08,30.21 57.18,29.49 55.29,28.75 52.45,27.61 49.65,26.37 46.95,24.95 42.51,23.07 39.29,19.29 37.24,15.02 34.86,9.76 33.2,4.2 30.91,-1.11 c -0.12,-0.31 -0.37,-0.91 -0.49,-1.21 -2.04,-5.03 -4.99,-9.59 -7.78,-14.22 -1.71,-2.35 -3.92,-4.27 -6.27,-5.95 -4.12,-2.98 -9.12,-4.56 -14.21,-4.52 -3.48,0.11 -7.42,0.619 -9.79,3.47 -3.44,3.69 -4.54,8.72 -5.97,13.38 -1.27,-0.1 -3.3,0.74 -4,-0.7 -0.07,-3.14 1.24,-6.1 2.35,-8.97 0.48,0.81 0.96,1.62 1.44,2.44 0.14,-0.21 0.41,-0.63 0.55,-0.84 l 0.45,-0.87 c -0.56,-0.22 -1.67,-0.64 -2.23,-0.85 1.76,-4.68 4.93,-8.58 7.29,-12.93 1.99,-4.141 3.55,-8.53 4.05,-13.12 0.37,-3.59 0.54,-7.2 0.7,-10.82 1.4,-0.8 2.81,-1.59 4.23,-2.37 0.91,4.79 1.68,9.6 3.07,14.28 1.53,-0.04 3.06,-0.26 3.4,-2.05 0.74,-3.24 1.31,-6.51 2.09,-9.74 0.57,-2.071 0.82,-4.31 1.94,-6.191 1.63,-1.92 3.68,-3.409 5.61,-5 0.34,9.701 -0.98,19.341 -1.06,29.021 0.11,3.08 -0.02,6.74 2.49,8.979 4.29,4.091 9.19,7.561 12.89,12.241 0.27,0.34 0.55,0.69 0.82,1.03 3.43,3.55 4.57,9.19 8.92,11.72 2.44,-5.68 1.86,-11.97 2.09,-18 0.09,-13.35 0.89,-26.68 0.93,-40.03 0.1,-6.29 0.15,-12.61 0.76,-18.881 1.83,-3.089 4.13,-5.949 6.9,-8.259 0.69,19.33 2.49,38.6 3.22,57.929 0.45,-0.079 1.35,-0.25 1.8,-0.329 0.07,-8.16 0.45,-16.33 0.61,-24.49 1.14,-12.79 0.31,-25.72 1.77,-38.46 2.27,-2.471 4.87,-4.63 7,-7.24 1.13,8.2 0.47,16.51 1.05,24.75 0.69,9.9 0.71,19.83 1,29.75 0.03,0.269 0.09,0.809 0.12,1.09 0.69,7.53 0.74,15.11 1.14,22.66 0.49,2.34 0.82,4.72 1.64,6.97 l 0.31,0.84 c 1.39,-7.99 1.47,-16.11 2.22,-24.16 0.45,-8.12 1.07,-16.24 1.53,-24.36 0.79,-10.62 1.36,-21.26 2,-31.901 0.1,-3.25 0.48,-6.479 0.73,-9.729 0.23,-2.36 0.2,-4.78 0.84,-7.09 1.24,-2.61 3.62,-4.4 5.85,-6.12 0.15,14.569 0.83,29.12 1.56,43.67 v 2.979 c 0.4,9.021 1.03,18.051 1.8,27.051 0.13,1.1 0.3,2.199 0.51,3.28 0.29,0.28 0.87,0.83 1.15,1.11 2.17,-29.97 3.45,-59.99 4.67,-90.01 0.84,-3.41 3.95,-5.78 6.37,-8.16 0.63,12.019 0.1,24.08 0.98,36.09 0.66,26.54 1.55,53.08 2.06,79.63 0.1,0.35 0.28,1.06 0.38,1.41 0.39,-2.481 0.76,-4.96 1,-7.46 1.4,-20.55 3.38,-41.05 4.93,-61.58 0.62,-6.99 0.72,-14.02 1.59,-20.99 0.33,-3.03 0.47,-6.07 0.7,-9.11 0.29,-3.86 0.6,-7.721 1.17,-11.551 0.68,-7.319 1.52,-14.619 2.81,-21.869 0.57,-3.79 1.26,-7.57 2.08,-11.32 0.75,-3.57 1.8,-7.08 2.39,-10.7 -0.16,-1.401 -0.34,-2.81 -0.49,-4.22 l -0.03,-0.311 c -4.98,-2.659 -9.81,-5.649 -13.78,-9.709 -1.61,-1.47 -3.18,-2.99 -4.85,-4.411 -0.74,-0.289 -1.5,-0.529 -2.26,-0.769 -0.22,2.29 -0.5,4.58 -0.84,6.849 -1.17,6.781 -1.63,13.661 -2.8,20.441 l -0.22,0.72 c -1.06,3.98 -2.17,7.97 -4.08,11.64 -0.91,1.989 -1.85,3.97 -2.9,5.88 -2.7,5.05 -6.69,9.22 -11.06,12.84 -0.75,0.649 -1.5,1.3 -2.25,1.93 -4.11,3.4 -8.54,6.39 -13.09,9.15 -4.64,2.58 -9.5,4.91 -14.71,6.069 l -0.3,0.061 c -13.43,1.809 -27.11,-1.12 -40.5,1.08 1.16,4.76 4.62,8.38 6.54,12.79 1.26,5.42 1.89,11.77 -1.18,16.72 -2.4,3.16 -5.81,5.3 -9.25,7.16 -10.46,5.519 -21.14,10.62 -31.36,16.59 -2.92,1.69 -5.83,3.38 -8.72,5.11 -2.1,1.3 -4.2,2.59 -6.27,3.91 -4.99,3.19 -9.78,6.67 -14.66,10.02 -1.18,0.82 -2.36,1.61 -3.49,2.48 -3.88,3.119 -7.8,6.199 -11.63,9.39 -2.23,1.85 -4.53,3.62 -6.64,5.62 -1.98,1.85 -3.98,3.689 -6.07,5.42 -3.21,2.95 -6.28,6.07 -9.25,9.25 -2.81,3.71 -7.06,7.23 -6.76,12.33 -0.01,0.23 -0.04,0.68 -0.05,0.91 5.36,0.85 10.74,-0.06 16.11,-0.21 3.83,0.38 7.88,1.87 10.01,5.28 1.85,3.14 1.15,6.97 0.54,10.36 -1.4,5.7 -3.74,11.12 -6.3,16.38 -1.67,3.47 -3.49,6.86 -5.42,10.19 -1.44,2.57 -2.95,5.08 -4.39,7.64 -1.99,3.67 -4.33,7.12 -6.45,10.7 -1.8,3.05 -3.69,6.04 -5.55,9.05 -1.33,2.31 -2.64,4.63 -3.87,6.99 -0.85,1.63 -1.39,3.38 -1.8,5.16 2.12,-0.25 4.22,-0.71 6.12,-1.73 3.38,-1.6 6.64,-3.44 9.93,-5.22 1.74,-0.92 3.5,-1.82 5.23,-2.76 4.68,-2.55 9.39,-5.04 14.21,-7.31 6.06,-2.97 12.43,-5.26 18.89,-7.18 5.23,-1.16 12.19,-1.95 15.9,2.85 3.28,4.47 2.48,10.48 1.84,15.64 -0.87,5.06 -2.33,9.98 -3.74,14.9 -0.74,2.35 -1.09,4.8 -0.97,7.25 3.44,-1.43 5.31,-4.79 7.54,-7.57 1.45,-1.93 2.94,-3.85 4.43,-5.76 2.63,-3.43 5.26,-6.87 8.06,-10.17 2.6,-3.13 5.26,-6.22 8.06,-9.19 1.94,-2.07 4.04,-3.99 6.16,-5.9 2.54,-2.33 5.16,-4.58 7.96,-6.6 6.16,-4.44 12.83,-8.43 20.15,-10.61 3.76,-1.16 8.43,-0.48 11,2.71 0.4,0.65 0.75,1.33 1.09,2.01 2.83,7.68 3.11,15.99 3.87,24.05 0.18,1.49 0.35,2.97 0.48,4.46 1.05,12.7 0.74,25.54 3.04,38.11 0.56,-0.03 1.68,-0.11 2.25,-0.15 1.43,-2.36 2.89,-4.72 4.23,-7.15 0.16,-0.29 0.48,-0.87 0.64,-1.16 2.78,-4.45 5.86,-9.59 11.38,-10.87 1.4,0.5 2.9,0.78 4.22,1.49 2.78,1.96 4.71,4.83 6.16,7.86 2.66,5.19 4.39,10.78 6.58,16.17 0.86,2.14 1.73,4.28 2.52,6.44 1.01,2.89 2.18,5.72 3.39,8.54 2.09,5.01 4.32,9.96 6.78,14.8 1.56,2.94 3.15,5.88 4.88,8.73 1.22,1.93 2.47,3.83 3.74,5.74 5.95,8.71 12.84,16.93 21.23,23.4" /></g><g
           transform="translate(72.7852,117.6152)"
           id="g24"><path
             id="path26"
             style="fill:#ffffff;fill-opacity:1;fill-rule:nonzero;stroke:none"
             d="M 0,0 C 2.1,0.38 4.39,1.75 6.47,0.62 8.15,0.13 8.55,-1.721 9.13,-3.13 9.54,-8.2 3.16,-9.19 -0.07,-6.55 -0.16,-6 -0.35,-4.9 -0.44,-4.351 -0.35,-2.891 -0.17,-1.44 0,0" /></g><g
           transform="translate(160.7451,117.6748)"
           id="g28"><path
             id="path30"
             style="fill:#ffffff;fill-opacity:1;fill-rule:nonzero;stroke:none"
             d="M 0,0 C 2.96,0.41 5.92,0.86 8.88,1.271 8.9,0.72 8.93,-0.38 8.94,-0.93 c 0,-12.429 0.09,-24.86 0.04,-37.29 -2.95,-0.29 -5.94,-0.4 -8.85,0.27 C -0.06,-25.3 0.65,-12.64 0,0" /></g><g
           transform="translate(44.8652,114.0752)"
           id="g32"><path
             id="path34"
             style="fill:#ffffff;fill-opacity:1;fill-rule:nonzero;stroke:none"
             d="m 0,0 c 2.01,1.79 4.51,2.87 7.11,3.47 3.78,0.349 7.62,-0.031 11.29,-1.01 0.68,-0.22 2.05,-0.66 2.73,-0.88 -0.14,-2.74 -0.37,-5.471 -0.61,-8.21 -1.2,0.33 -2.38,0.67 -3.56,1.02 -3.24,1.38 -6.74,1.71 -10.22,1.37 -0.15,-1.47 -0.29,-2.941 -0.42,-4.42 1.33,-0.68 2.66,-1.361 4.01,-1.99 2.99,-1.32 6.07,-2.451 8.91,-4.09 5.12,-3.52 4.94,-10.62 2.5,-15.71 -3.06,-3 -7.1,-4.88 -11.44,-4.8 -4.74,-0.101 -9.47,0.92 -13.79,2.859 0.28,2.5 0.51,5.011 0.75,7.511 4.24,-0.4 8.01,-2.79 12.3,-2.94 1.28,0.25 2.56,0.52 3.84,0.799 0.28,0.561 0.86,1.691 1.14,2.261 -0.19,0.69 -0.57,2.07 -0.76,2.76 -1.34,0.649 -2.68,1.3 -4.03,1.899 -3.67,1.471 -7.27,3.101 -10.58,5.271 -2.75,4.2 -2.61,9.41 -0.41,13.8 0.31,0.259 0.93,0.78 1.24,1.03" /></g><g
           transform="translate(115.5752,106.6152)"
           id="g36"><path
             id="path38"
             style="fill:#ffffff;fill-opacity:1;fill-rule:nonzero;stroke:none"
             d="m 0,0 c 3.93,0.819 8.1,-0.53 10.09,-4.16 0.4,-7.481 0.26,-14.99 0.16,-22.481 -0.06,-0.189 -0.17,-0.58 -0.23,-0.779 -2.67,0.029 -5.35,0.029 -8.02,0 -0.05,1.48 -0.1,2.97 -0.13,4.44 -0.23,5.299 0.69,10.74 -0.82,15.919 l -1.52,-0.33 c -1.62,-0.38 -3.11,-1.139 -4.58,-1.899 0.2,-6.021 -0.01,-12.05 0.07,-18.08 -2.71,0.01 -5.42,0 -8.14,-0.101 -1.07,6.551 -0.2,13.2 -0.8,19.79 -2.35,0.551 -4.53,-0.139 -6.33,-1.689 0.08,-4.561 0.03,-9.13 0.07,-13.691 0.01,-1.339 0.01,-2.689 0.03,-4.029 -2.9,-0.221 -5.79,-0.32 -8.69,-0.28 0.2,8.939 0.05,17.88 -0.01,26.82 2.63,0.4 5.3,0.23 7.93,-0.011 0.05,-0.729 0.15,-2.199 0.2,-2.929 1.67,1.12 3.33,2.26 5.08,3.24 2.77,0.979 5.75,0.31 8.32,-0.931 C -6.74,-2.04 -6.15,-2.92 -5.54,-3.78 -3.91,-2.24 -2.1,-0.84 0,0" /></g><g
           transform="translate(72.5752,106.2354)"
           id="g40"><path
             id="path42"
             style="fill:#ffffff;fill-opacity:1;fill-rule:nonzero;stroke:none"
             d="M 0,0 C 2.93,0.31 5.87,0.159 8.79,-0.2 8.51,-9.051 9.22,-17.98 8.51,-26.78 5.83,-27.54 2.9,-26.96 0.12,-27.16 -0.15,-18.11 0.06,-9.051 0,0" /></g><g
           transform="translate(139.625,97.085)"
           id="g44"><path
             id="path46"
             style="fill:#ffffff;fill-opacity:1;fill-rule:nonzero;stroke:none"
             d="m 0,0 c 0.23,-3.64 -0.35,-7.36 0.33,-10.96 2.34,-0.3 5.74,-1.13 7.11,1.46 C 9.03,-6.04 9.46,-1.05 6.56,1.79 4.13,2.96 1.99,1.16 0,0 m -8.34,9.08 c 2.44,0.09 4.87,0.22 7.31,0.37 0.07,-0.7 0.21,-2.1 0.29,-2.81 0.35,0.05 1.04,0.131 1.39,0.17 1.31,1.06 2.65,2.16 4.29,2.68 4.5,1.08 8.81,-1.27 10.93,-5.24 1.73,-5.87 1.54,-12.36 -1.1,-17.94 -1.71,-1.46 -3.48,-2.86 -5.44,-3.96 -3.03,-1 -6.26,-0.21 -9.29,0.38 0.05,-3.17 0.07,-6.34 -0.03,-9.51 -1.6,-0.25 -3.19,-0.51 -4.76,-0.84 l -0.53,-0.109 C -6,-27.87 -7.45,-28.17 -8.18,-28.32 -8.51,-15.86 -8.8,-3.38 -8.34,9.08" /></g><g
           transform="translate(174.835,100.5146)"
           id="g48"><path
             id="path50"
             style="fill:#ffffff;fill-opacity:1;fill-rule:nonzero;stroke:none"
             d="m 0,0 c -0.41,1.79 -3.27,5.69 0.36,5.33 2.19,0.351 4.38,0.66 6.58,0.971 0.87,-2.261 1.68,-4.551 2.4,-6.87 0.96,-3.241 1.89,-6.491 2.93,-9.71 1.05,3.159 2.01,6.34 2.98,9.519 0.28,0.97 0.56,1.941 0.8,2.92 0.2,0.87 0.61,2.611 0.81,3.481 2.81,0.109 5.62,0.13 8.44,0.08 C 24.49,3.2 23.63,0.69 22.76,-1.81 21.28,-6.149 19.69,-10.46 18.28,-14.83 16.12,-19.67 15.65,-25.64 11.35,-29.239 8.4,-31.72 4.19,-31.189 0.62,-30.97 0.47,-28.8 0.27,-26.64 0,-24.489 l 0.29,0.019 c 2.16,0.061 4.3,0.321 6.42,0.71 0.29,0.64 0.88,1.92 1.18,2.561 C 7.25,-19.56 6.62,-17.93 6.01,-16.29 4.29,-11.649 2.57,-7.01 0.85,-2.38 0.57,-1.58 0.29,-0.779 0,0" /></g><g
           transform="translate(220.4648,56.9248)"
           id="g52"><path
             id="path54"
             style="fill:#ffffff;fill-opacity:1;fill-rule:nonzero;stroke:none"
             d="M 0,0 C 2.64,1.25 5.54,1.641 8.42,1.891 8.39,1.33 8.33,0.2 8.31,-0.359 8.46,0.03 8.76,0.82 8.91,1.21 8.99,0.021 9.07,-1.16 9.17,-2.359 L 9.22,-2.96 C 7.24,-3.21 4.66,-2.359 3.37,-4.34 2.89,-6.58 3.08,-8.899 3.01,-11.189 c 1.74,0.019 3.48,0.04 5.23,0.049 0.28,-1.45 0.58,-2.929 0.86,-4.4 -2.03,-0.02 -4.06,-0.05 -6.08,-0.1 C 3.29,-22.979 3.2,-30.34 3,-37.689 1.99,-37.72 -0.03,-37.78 -1.03,-37.81 l -0.62,0.8 c -0.28,7.08 0.11,14.17 -0.15,21.25 l -0.4,0.05 c -0.91,0.061 -2.72,0.19 -3.63,0.26 0.03,1.41 0.07,2.82 0.11,4.221 1.32,0.029 2.64,0.049 3.97,0.069 -0.04,3.56 -0.29,7.27 1.27,10.57 z" /></g><g
           transform="translate(344.0449,40.0752)"
           id="g56"><path
             id="path58"
             style="fill:#ffffff;fill-opacity:1;fill-rule:nonzero;stroke:none"
             d="M 0,0 C -0.15,0.02 -0.46,0.06 -0.61,0.069 -3,-4.4 -3.95,-10.391 -0.96,-14.8 c 2.4,-3.4 7.86,-2.24 9.85,0.98 0.34,0.42 1.02,1.259 1.36,1.67 0.42,4.219 0.05,8.48 0.16,12.71 C 7.05,1.42 2.94,2.569 0,0 m 10.51,18.03 c 0.261,0.07 0.79,0.23 1.051,0.3 1,0.149 3,0.45 4,0.6 0.119,-13.27 0.049,-26.55 -0.091,-39.821 -1.42,0.091 -2.82,0.171 -4.22,0.25 -0.01,0.731 -0.01,2.201 -0.01,2.931 -4.25,-3.26 -10.3,-5.2 -14.96,-1.53 -0.8,0.7 -1.57,1.41 -2.34,2.12 -2.36,5.41 -2.55,11.67 -0.22,17.13 1.02,1.349 2.11,2.639 3.36,3.79 3.89,2.82 9.05,2.34 13.43,1.09 0.011,3.48 -0.04,6.969 -0.05,10.45 0.01,0.67 0.04,2.01 0.05,2.69" /></g><g
           transform="translate(47.5552,39.4951)"
           id="g60"><path
             id="path62"
             style="fill:#ffffff;fill-opacity:1;fill-rule:nonzero;stroke:none"
             d="M 0,0 C 2.98,-0.11 5.97,-0.03 8.92,0.49 L 8.88,0.57 c 4.79,2.22 4.58,9.8 -0.14,12.01 C 5.9,12.99 3.04,13.229 0.16,13.3 0.03,8.87 0.2,4.43 0,0 m -5.54,17.72 c 4.32,0.17 8.67,0.259 12.99,-0.05 2.91,-0.39 6.02,-1.24 7.93,-3.65 0.53,-0.61 1.05,-1.22 1.57,-1.85 C 18.36,7.74 18.51,2.01 14.7,-1.32 10.86,-5.01 5.14,-4.99 0.16,-4.811 0.16,-9.9 0.22,-14.99 -0.02,-20.07 c -1.73,0.04 -3.46,0.07 -5.18,0.1 -0.91,12.56 0.48,25.14 -0.34,37.69" /></g><g
           transform="translate(248.5151,52.0654)"
           id="g64"><path
             id="path66"
             style="fill:#ffffff;fill-opacity:1;fill-rule:nonzero;stroke:none"
             d="M 0,0 C 0.63,1.52 -0.82,5.449 1.63,5.26 3.34,5.319 5.04,5.329 6.75,5.34 6.99,4.85 7.46,3.85 7.7,3.359 c 3.54,-9.689 7.66,-19.16 10.86,-28.969 1.68,4.24 3.27,8.519 4.89,12.79 1.74,4.689 3.67,9.309 5.36,14.019 0.47,1.341 0.9,2.681 1.35,4.011 0.38,0.01 1.14,0.019 1.51,0.029 1.72,0.031 3.45,0.051 5.18,0.071 0.03,-0.531 0.1,-1.6 0.13,-2.13 0.31,-6.41 1.11,-12.79 1.6,-19.191 0.26,-4.889 0.33,-9.819 1.12,-14.67 0.07,-0.389 0.21,-1.179 0.28,-1.58 -1.69,-0.269 -3.38,-0.55 -5.07,-0.84 -0.39,1.83 -0.57,3.72 -0.64,5.571 -0.57,0.05 -1.72,0.149 -2.29,0.2 -0.28,2.17 0.04,4.359 0.07,6.519 0.1,-1.899 0.13,-3.849 0.77,-5.679 1.37,0.309 1.72,1.219 1.06,2.729 -1.02,7.021 -0.65,14.151 -1.72,21.17 -2.71,-9.389 -7.24,-18.119 -10.34,-27.369 -0.24,-0.631 -0.72,-1.9 -0.96,-2.53 -1.43,-0.21 -2.85,-0.42 -4.27,-0.63 -0.59,1.649 -1.26,3.26 -1.9,4.88 -3.49,8.439 -6.62,17.019 -9.99,25.5 -0.7,-8.191 -1.27,-16.401 -1.79,-24.62 -0.2,-1.87 -0.57,-3.72 -0.97,-5.571 -1.57,0.231 -3.13,0.46 -4.69,0.681 0.19,1.46 0.38,2.92 0.55,4.369 0.45,5.11 0.76,10.231 1.21,15.341 0.3,4.18 0.78,8.35 0.99,12.54" /></g><g
           transform="translate(295.855,55.6953)"
           id="g68"><path
             id="path70"
             style="fill:#ffffff;fill-opacity:1;fill-rule:nonzero;stroke:none"
             d="M 0,0 0.84,1.55 C 2.76,1.3 4.91,1.16 5.83,-0.9 5.66,-2.28 5.47,-3.74 4.35,-4.721 c -1.59,-0.09 -3.17,0 -4.74,0.061 -0.04,0.859 -0.12,2.59 -0.16,3.45 C -0.42,-0.9 -0.14,-0.301 0,0" /></g><g
           transform="translate(74.9751,40.375)"
           id="g72"><path
             id="path74"
             style="fill:#ffffff;fill-opacity:1;fill-rule:nonzero;stroke:none"
             d="m 0,0 c -0.89,-1.41 -1.42,-3 -1.87,-4.61 4.22,-0.03 8.44,0 12.66,0.09 -0.75,1.73 -1.5,3.45 -2.25,5.16 L 8.51,0.53 C 5.86,2 2.27,2.38 0,0 m -4.06,2.11 c 3.52,4.13 9.85,4.71 14.49,2.26 1.39,-1.27 2.63,-2.68 3.88,-4.09 0.75,-2.87 1.22,-5.8 1.51,-8.75 -2.17,-0.01 -4.34,-0.02 -6.51,-0.02 -3.94,0.03 -7.88,0.04 -11.82,-0.05 0.79,-2.39 0.92,-5.31 3.03,-7.01 2.73,-2.68 7.04,-1.88 10.22,-0.51 0.67,0.35 2.01,1.06 2.68,1.41 l 0.52,-0.34 c 0.27,-0.35 0.82,-1.04 1.1,-1.39 0.71,-3.71 -4.38,-3.98 -6.87,-4.91 -4.75,-0.9 -10.27,0.2 -13.19,4.37 -0.11,0.24 -0.33,0.72 -0.44,0.95 -1.84,3.62 -2.15,7.86 -1.54,11.82 0.68,2.21 1.64,4.34 2.94,6.26" /></g><g
           transform="translate(100.7051,28.8047)"
           id="g76"><path
             id="path78"
             style="fill:#ffffff;fill-opacity:1;fill-rule:nonzero;stroke:none"
             d="m 0,0 c -1.6,-1.609 -0.34,-3.76 0.18,-5.54 3.71,-0.649 7.59,0.311 10.28,3.03 0.24,2.111 0.16,4.24 0.18,6.35 C 7.02,3.07 2.5,3.19 0,0 m -0.17,16.46 c 5.2,1.4 13.58,2.16 15.67,-4.23 0.5,-7.15 0.07,-14.339 0.25,-21.509 -1.27,0 -2.54,0 -3.81,-0.011 -0.22,0.681 -0.66,2.04 -0.88,2.721 C 7.6,-9.34 3.17,-10.54 -1.22,-9.8 c -2.1,1.16 -3.76,2.95 -4.62,5.2 -0.42,4.151 1.38,8.361 5.45,9.92 3.51,1.33 7.24,1.93 10.96,2.33 -0.05,1.31 -0.09,2.6 -0.13,3.89 -4.37,2.87 -9.43,0.74 -13.87,-0.7 -0.15,1.57 -0.3,3.14 -0.44,4.7 1.23,0.32 2.46,0.61 3.7,0.92" /></g><g
           transform="translate(130.8652,45.6445)"
           id="g80"><path
             id="path82"
             style="fill:#ffffff;fill-opacity:1;fill-rule:nonzero;stroke:none"
             d="m 0,0 c 3.97,1.08 8.34,0.54 11.96,-1.409 0.7,-1.591 0.07,-3.41 0.18,-5.091 -0.28,0 -0.82,-0.01 -1.09,-0.01 -3.07,2.46 -7.56,3.481 -11.14,1.531 -4.6,-3.92 -4.39,-11.75 -0.38,-16.041 3.98,-2.709 8.88,-1.16 12.54,1.3 0.05,-0.29 0.15,-0.859 0.2,-1.139 0.11,-0.901 0.34,-2.71 0.46,-3.611 -3.55,-1.74 -7.52,-2.96 -11.49,-2.17 -3.6,0.55 -6.35,3.031 -8.32,5.93 C -8.96,-16 -8.9,-10.659 -7.22,-5.92 -5.44,-3.3 -3.1,-0.939 0,0" /></g><g
           transform="translate(153.0449,35.7148)"
           id="g84"><path
             id="path86"
             style="fill:#ffffff;fill-opacity:1;fill-rule:nonzero;stroke:none"
             d="M 0,0 C 4.02,0.021 8.04,0.15 12.06,0.12 11.56,2.82 10.27,6.19 7.01,6.3 3.23,7.01 0.16,3.55 0,0 m -5.02,1.47 c 1.19,5.551 6.3,9.49 11.99,9.03 4.6,-0.14 8.41,-3.52 9.73,-7.82 0.13,-0.39 0.4,-1.159 0.53,-1.55 0.38,-1.489 0.27,-2.92 -0.33,-4.279 -5.59,-1.71 -11.77,-0.221 -17.59,-0.691 0.61,-2.53 0.79,-5.65 3.2,-7.21 2.27,-1.65 5.22,-1.599 7.86,-1.22 2.15,0.98 4.24,2.1 6.36,3.13 0.08,-1.45 0.13,-2.91 0.16,-4.37 -2.71,-2.599 -6.85,-3.33 -10.52,-3.45 -2.57,0.12 -5.04,0.9 -7.3,2.08 -4.73,3.85 -5.22,10.771 -4.09,16.35" /></g><g
           transform="translate(194.2549,40.0449)"
           id="g88"><path
             id="path90"
             style="fill:#ffffff;fill-opacity:1;fill-rule:nonzero;stroke:none"
             d="m 0,0 c -3.07,-4.229 -3.18,-10.439 -0.19,-14.74 0.86,-0.66 1.67,-2.199 2.97,-1.6 1.39,-1.09 2.77,-1.07 4.14,0.06 l 0.82,-0.47 c 4.79,3.67 5.55,11.18 2.12,16.01 C 7.88,2.59 2.56,2.61 0,0 m -3.69,2.9 c 3.81,3.93 10.15,3.99 14.88,1.76 2.58,-1.78 4.17,-4.55 5.26,-7.42 0.84,-3.99 0.48,-8.04 -0.69,-11.929 -1.39,-1.981 -3.03,-3.831 -5.01,-5.25 -4.59,-2.031 -10.64,-1.851 -14.35,1.829 -0.75,0.921 -1.45,1.881 -2.15,2.83 l -0.75,1.03 c -0.98,4.41 -1.46,9.12 0.27,13.41 0.75,1.3 1.6,2.55 2.54,3.74" /></g><g
           transform="translate(295.625,45.7646)"
           id="g92"><path
             id="path94"
             style="fill:#ffffff;fill-opacity:1;fill-rule:nonzero;stroke:none"
             d="m 0,0 h 0.04 c 1.7,0.011 3.4,0.03 5.11,0.04 0.03,-1.1 0.06,-2.199 0.1,-3.31 0.16,-6.25 0.05,-12.49 0.05,-18.74 -0.01,-1.41 -0.01,-2.83 -0.01,-4.25 -1.79,0.04 -3.58,0.071 -5.36,0.101 C 0.42,-17.449 0.23,-8.71 0,0" /></g><g
           transform="translate(314.6748,42.8555)"
           id="g96"><path
             id="path98"
             style="fill:#ffffff;fill-opacity:1;fill-rule:nonzero;stroke:none"
             d="m 0,0 c 2.69,2.85 6.77,3.81 10.55,3.09 1.46,-0.681 2.86,-1.481 4.23,-2.351 1.64,-8 0.47,-16.229 1.06,-24.33 -1.84,0.101 -3.66,0.25 -5.48,0.391 -0.12,7.059 0.13,14.149 -0.46,21.189 -2.95,1.16 -6.56,0.87 -8.71,-1.679 L 0.95,-3.91 c -0.44,-0.41 -1.34,-1.21 -1.79,-1.62 -0.12,-5.95 -0.05,-11.91 -0.08,-17.861 l -0.44,0.021 c -1.59,0.09 -3.18,0.159 -4.76,0.239 0.38,8.67 0.16,17.341 0.13,26.011 1,-0.011 3,-0.03 4,-0.04 0.26,-1.28 0.55,-2.58 0.82,-3.861 C -0.88,-0.771 -0.29,-0.25 0,0" /></g><g
           transform="translate(325.9351,383.7451)"
           id="g100"><path
             id="path102"
             style="fill:#ffffff;fill-opacity:1;fill-rule:nonzero;stroke:none"
             d="M 0,0 C 0.95,0.07 1.91,0.14 2.87,0.2 L 2.88,-0.47 2.9,-1.56 c 0.56,-5.94 0.53,-11.91 0.7,-17.87 -1.31,0.2 -2.61,0.4 -3.9,0.63 0.16,1.87 -0.68,3.57 -1.46,5.19 -3.29,6.9 -11.33,10.26 -18.65,8.42 -4.5,-1.21 -8.33,-4.33 -10.49,-8.44 -1.47,-2.87 -2.37,-6 -2.86,-9.18 -0.08,-0.48 -0.23,-1.46 -0.3,-1.95 -0.5,-5.55 -0.03,-11.36 2.58,-16.38 0.45,-0.79 0.94,-1.58 1.47,-2.34 4.09,-6.06 11.84,-8.49 18.85,-7 3.69,0.74 7.17,2.39 9.99,4.91 0.55,0.47 1.11,0.94 1.67,1.4 0.68,0.22 2.02,0.66 2.7,0.88 0.46,-0.52 1.39,-1.56 1.85,-2.09 -2.27,-2.28 -4.44,-4.75 -7.24,-6.4 -1.11,-0.65 -2.23,-1.28 -3.37,-1.87 -7.64,-3.65 -16.83,-3.19 -24.5,0.14 -3.77,1.88 -7.06,4.64 -9.75,7.87 -2.9,3.99 -4.62,8.77 -5,13.68 -0.03,0.31 -0.08,0.93 -0.11,1.23 -0.21,2.73 -0.35,5.52 0.28,8.2 0.54,2.33 1.31,4.59 2.12,6.84 l 0.32,0.92 c 2.79,4.72 6.48,8.88 11.29,11.62 5.7,2.79 12.14,3.56 18.41,2.86 3.36,-0.6 6.64,-1.57 9.93,-2.5 1.1,0.68 2.01,1.59 2.57,2.79" /></g><g
           transform="translate(350.5049,357.1548)"
           id="g104"><path
             id="path106"
             style="fill:#ffffff;fill-opacity:1;fill-rule:nonzero;stroke:none"
             d="m 0,0 c -1.39,-4.28 -3.21,-8.4 -5.07,-12.48 3.44,-0.05 6.881,-0.08 10.32,0 C 3.45,-8.34 1.51,-4.26 0,0 m 0.24,9.92 c 0.88,0.09 1.77,0.18 2.66,0.27 1.621,-4.53 3.68,-8.88 5.64,-13.28 1.981,-4.68 4.03,-9.34 6.13,-13.97 1.15,-2.7 2.3,-5.42 3.74,-7.99 0.89,-0.14 1.79,-0.32 2.68,-0.53 0.2,-0.6 0.59,-1.8 0.79,-2.4 -5.42,-0.29 -10.85,-0.06 -16.27,-0.1 -0.33,2.79 1.82,2.83 3.96,2.78 0.1,3.19 -1.77,5.93 -2.71,8.87 -4.36,0.09 -8.72,0.13 -13.08,0 l -0.52,-0.01 c -1.199,-2.8 -2.11,-5.71 -2.64,-8.71 1.26,-0.16 2.53,-0.33 3.79,-0.52 0.06,-0.62 0.17,-1.85 0.22,-2.46 -4.35,-0.1 -8.71,0.04 -13.06,0.12 0.07,2.23 2.15,2.58 3.59,3.69 1.49,2.07 2.36,4.5 3.43,6.8 0.681,1.54 1.32,3.09 1.99,4.64 2.14,4.95 4.06,10 6.2,14.95 1.21,2.59 2.39,5.2 3.46,7.85" /></g><g
           transform="translate(430.3652,344.6548)"
           id="g108"><path
             id="path110"
             style="fill:#ffffff;fill-opacity:1;fill-rule:nonzero;stroke:none"
             d="M 0,0 C 3.29,-0.06 6.59,-0.06 9.89,0.01 8.439,4.02 6.74,7.93 4.97,11.8 2.97,8.03 1.51,4 0,0 m 1.35,13.77 c 1.87,3.06 2.02,7.8 5.549,9.39 2.681,-4.02 4.091,-8.73 6.191,-13.06 0.139,-0.34 0.43,-1.02 0.58,-1.35 1.49,-3.5 3.04,-6.97 4.67,-10.4 1.729,-3.64 2.92,-7.54 5.12,-10.95 1.89,-0.11 3.359,-0.73 3.04,-2.97 -5.41,-0.05 -10.82,0 -16.221,-0.17 0.25,0.72 0.761,2.15 1.011,2.86 h 3.33 c -0.431,2.46 -1.19,4.84 -2.15,7.13 -0.17,0.45 -0.51,1.35 -0.68,1.8 -4.45,0.2 -8.9,0.02 -13.351,0.12 -1.12,-2.51 -2.319,-5.02 -3.019,-7.69 0.439,-1.74 2.559,-1.24 3.83,-1.81 0.04,-0.75 0.09,-1.5 0.149,-2.26 -4.299,-0.02 -8.599,-0.06 -12.899,0.05 0.189,0.66 0.58,1.98 0.77,2.64 0.66,0.09 1.98,0.28 2.629,0.37 1.191,2.43 2.42,4.85 3.46,7.35 0.46,1.14 0.901,2.3 1.33,3.46 2.201,5.17 4.54,10.28 6.661,15.49" /></g><g
           transform="translate(471.6445,363.0449)"
           id="g112"><path
             id="path114"
             style="fill:#ffffff;fill-opacity:1;fill-rule:nonzero;stroke:none"
             d="m 0,0 c 0.021,-10.08 -0.06,-20.16 0.021,-30.25 4.78,-0.37 9.969,0.06 13.91,3.07 2.849,1.9 3.63,5.34 4.559,8.4 0.55,3.61 0.111,7.28 -1.04,10.73 C 14.551,-1.44 6.671,0.87 0,0 m -12.109,3.86 h 0.429 c 4.66,-0.05 9.33,-0.01 14,0.02 5.79,0.01 11.71,-0.89 16.8,-3.82 2.231,-1.76 4.04,-3.99 5.58,-6.38 2.25,-5.54 2.231,-11.98 -0.139,-17.48 -1.47,-2.65 -3.611,-4.83 -5.93,-6.73 -3.561,-2.45 -7.91,-3.33 -12.16,-3.46 -6.16,-0.16 -12.321,-0.07 -18.481,-0.1 -0.01,0.92 -0.01,1.83 0,2.74 0.431,0.02 1.29,0.05 1.721,0.07 0.539,0.02 1.63,0.07 2.17,0.1 0.059,0.22 0.17,0.67 0.22,0.9 1.16,5.1 0.37,10.39 0.589,15.58 -0.24,5.17 0.6,10.46 -0.71,15.53 -1.299,0.05 -2.599,0.09 -3.889,0.14 -0.07,0.97 -0.141,1.93 -0.2,2.89" /></g><g
           transform="translate(519.9453,356.6348)"
           id="g116"><path
             id="path118"
             style="fill:#ffffff;fill-opacity:1;fill-rule:nonzero;stroke:none"
             d="m 0,0 c -1.521,-4 -3.24,-7.91 -4.79,-11.89 3.279,-0.01 6.56,-0.13 9.85,-0.13 C 3.609,-7.92 1.91,-3.91 0,0 M 0.97,11.57 C 1.529,11.09 2.67,10.14 3.229,9.66 4.77,5.86 6.46,2.13 8.12,-1.62 c 2.04,-4.78 4.26,-9.48 6.27,-14.28 0.28,-0.68 0.57,-1.38 0.87,-2.07 0.95,-2.36 2.07,-4.66 3.469,-6.8 0.681,-0.05 2.061,-0.16 2.741,-0.21 0.019,-0.86 0.05,-1.71 0.08,-2.57 -5.22,-0.04 -10.43,-0.18 -15.651,-0.12 -0.009,0.62 -0.029,1.86 -0.04,2.48 1.351,0.21 2.701,0.41 4.061,0.59 -0.67,2.46 -1.45,4.89 -2.431,7.24 -0.159,0.38 -0.469,1.15 -0.63,1.54 -4.42,-0.03 -8.83,-0.01 -13.239,-0.12 -1.74,-2.53 -2.431,-5.64 -2.99,-8.62 1.979,-0.34 4.66,-0.06 4.18,-2.98 -4.18,-0.02 -8.361,-0.08 -12.54,-0.07 -0.09,0.6 -0.27,1.79 -0.371,2.39 1.181,0.42 2.75,0.39 3.431,1.66 2.56,3.78 3.67,8.3 5.64,12.38 1.24,2.58 2.349,5.21 3.44,7.85 2.11,5 4.1,10.06 6.56,14.9" /></g><g
           transform="translate(374.4648,366.9351)"
           id="g120"><path
             id="path122"
             style="fill:#ffffff;fill-opacity:1;fill-rule:nonzero;stroke:none"
             d="m 0,0 c 3.55,0.02 7.11,0.06 10.68,-0.05 6.51,-8.24 13.44,-16.14 19.69,-24.58 0.481,6.39 0.17,12.82 -0.09,19.21 0.01,2.54 -3,2.39 -4.759,2.71 -0.091,0.68 -0.261,2.03 -0.351,2.71 4.96,0.03 9.92,-0.02 14.88,0.03 -0.02,-0.72 -0.08,-2.15 -0.11,-2.86 -2.049,-0.02 -4.79,-0.3 -5.06,-2.87 -0.19,-2.2 -0.239,-4.4 -0.26,-6.6 0.05,-5.18 -0.04,-10.35 0.01,-15.53 0,-3.61 0.2,-7.23 -0.19,-10.83 -3.61,0.11 -4.94,4.57 -7.37,6.76 -3.469,4.46 -7.28,8.63 -10.69,13.14 -1.38,1.95 -2.92,3.77 -4.43,5.61 -0.71,0.87 -1.4,1.76 -2.09,2.63 -0.259,-8.09 -0.7,-16.27 0.46,-24.31 1.29,-0.14 2.59,-0.27 3.9,-0.4 0.131,-0.65 0.39,-1.95 0.53,-2.61 -4.76,-0.14 -9.52,-0.16 -14.28,-0.12 -0.17,0.82 -0.32,1.63 -0.46,2.45 1.85,0.44 5.23,0.3 5.24,3 0.73,6.7 0.38,13.47 0.271,20.19 C 5.48,-9.63 5.5,-6.94 5.141,-4.27 3.55,-3.41 1.851,-2.82 0.04,-2.75 0.03,-2.06 0.01,-0.69 0,0" /></g><g
           transform="translate(296.585,289.3149)"
           id="g124"><path
             id="path126"
             style="fill:#ffffff;fill-opacity:1;fill-rule:nonzero;stroke:none"
             d="m 0,0 c -0.33,-6.84 -0.26,-13.73 -0.17,-20.59 4.79,0.02 10.4,-0.54 14.05,3.25 3.41,4.39 3.69,11.54 -0.41,15.61 v 0.06 C 9.69,0.93 5.03,1.15 0.61,1.4 0.46,1.05 0.16,0.35 0,0 m -16.12,5.8 0.46,-0.01 C -7.9,5.69 -0.13,5.67 7.64,5.65 13.52,5.49 19.88,3.82 23.83,-0.82 c 5.21,-6.59 3.46,-17.38 -4.04,-21.51 -2.3,-0.91 -4.61,-1.8 -7.02,-2.34 -0.45,-0.12 -1.34,-0.35 -1.79,-0.47 -3.7,-0.3 -7.41,-0.29 -11.12,-0.21 0.21,-5.89 -0.47,-11.85 0.42,-17.69 1.68,-2.12 4.7,-1.52 7.05,-2.17 0.04,-0.71 0.12,-2.14 0.16,-2.86 -8.01,0.06 -16.01,-0.15 -24.01,-0.09 0.1,1.17 0.22,2.34 0.35,3.5 1.7,0.06 3.4,0.17 5.1,0.28 0.87,2.04 1.58,4.19 1.52,6.43 0.12,10.35 -0.34,20.69 0.01,31.04 0.13,2.89 -0.05,5.82 -1.07,8.55 -1.96,0.49 -3.92,0.89 -5.92,1.12 0.08,0.56 0.23,1.7 0.3,2.26 z" /></g><g
           transform="translate(383.2852,275.9351)"
           id="g128"><path
             id="path130"
             style="fill:#ffffff;fill-opacity:1;fill-rule:nonzero;stroke:none"
             d="m 0,0 0.42,-0.66 -1.771,-0.15 c -2.04,-1.49 -3.579,-3.51 -4.889,-5.64 -1.77,-6.61 -2.44,-14.37 1.03,-20.46 1.43,-2.6 4,-4.21 6.79,-5.04 4.99,-0.59 10.02,2.41 11.31,7.37 1.88,6.94 2.1,15.01 -1.77,21.34 C 8.09,-0.45 4.1,1.06 0,0 m -5.61,1.98 c 4.2,2.05 9.07,2.3 13.64,1.66 4.42,-1.52 8.48,-4.12 11.19,-8 0.62,-1.38 1.29,-2.74 2,-4.09 1.139,-5.68 1.509,-11.94 -1.35,-17.2 -0.61,-1.06 -1.28,-2.1 -1.95,-3.13 l -0.7,-1.04 c -3.98,-3.63 -9.111,-6.15 -14.62,-5.69 -0.55,0.02 -1.65,0.05 -2.19,0.06 -6.74,0.659 -12.36,5.66 -14.88,11.78 -0.27,1.09 -0.52,2.19 -0.76,3.29 -0.21,3.12 -0.28,6.28 0.19,9.38 0.49,2.82 1.689,5.49 3.229,7.89 1.871,1.92 3.941,3.66 6.201,5.09" /></g><g
           transform="translate(339.4248,275.2051)"
           id="g132"><path
             id="path134"
             style="fill:#ffffff;fill-opacity:1;fill-rule:nonzero;stroke:none"
             d="m 0,0 c -0.1,-4.55 -0.09,-9.1 0.08,-13.65 2.99,0.27 6,0.67 8.811,1.8 3.739,3.45 2.71,11.28 -3.04,11.75 C 3.891,-0.08 1.94,-0.04 0,0 m -12.09,4.05 c 7.44,-0.3 14.97,0.56 22.34,-0.71 3.44,-0.48 5.92,-2.99 7.931,-5.62 0.25,-2.83 0.949,-5.87 -0.271,-8.58 -0.88,-1.12 -1.83,-2.18 -2.849,-3.16 -1.781,-0.93 -3.611,-1.74 -5.441,-2.54 2.14,-2.38 4.13,-4.89 6.151,-7.39 0.719,-0.92 1.429,-1.85 2.149,-2.77 1.601,-2.47 3.9,-4.25 6.73,-5.08 0.17,-0.53 0.51,-1.59 0.68,-2.12 l -1.39,0.01 c -3.11,0.05 -6.23,0.09 -9.339,0.05 -2.361,2.93 -4.701,5.87 -7.071,8.8 -2.36,2.89 -4.55,5.96 -7.31,8.51 -0.22,-4.58 -0.199,-9.16 -0.18,-13.74 1.5,-0.42 3,-0.82 4.5,-1.27 0.12,-0.58 0.351,-1.76 0.46,-2.34 -5.81,-0.04 -11.64,0.31 -17.44,-0.13 0.1,0.63 0.32,1.91 0.43,2.54 1.48,0.26 2.95,0.54 4.42,0.87 0.16,1.66 0.3,3.33 0.32,4.99 0.01,4.85 -0.03,9.69 -0.01,14.53 -0.02,3.92 0.19,7.86 -0.43,11.75 -1.52,0.25 -3.05,0.51 -4.56,0.75 0.05,0.66 0.14,1.98 0.18,2.65" /></g><g
           transform="translate(409.5947,279.1851)"
           id="g136"><path
             id="path138"
             style="fill:#ffffff;fill-opacity:1;fill-rule:nonzero;stroke:none"
             d="m 0,0 c 11.84,-0.02 23.681,0.24 35.521,-0.11 0.319,0.02 0.95,0.06 1.269,0.08 9.78,0.24 19.58,-0.16 29.351,0.27 0.089,-0.53 0.259,-1.6 0.339,-2.13 0.26,-2.55 0.201,-5.11 0.27,-7.67 l -0.59,-0.02 c -0.479,-0.01 -1.46,-0.04 -1.939,-0.05 -0.741,1.89 -1.54,3.75 -2.431,5.56 -3.75,0.15 -7.5,0.44 -11.24,0.39 -1.579,-0.16 -3.15,-0.28 -4.67,-0.67 0.511,-0.02 1.511,-0.06 2.011,-0.08 -0.08,-3.92 -0.071,-7.83 0.009,-11.75 3.5,0.14 7.05,-0.27 10.51,0.32 0.34,0.16 1.03,0.5 1.37,0.66 0.42,1.38 0.79,2.77 1.191,4.15 0.619,0.03 1.88,0.08 2.509,0.11 0.01,-1.28 0.02,-2.56 0.041,-3.84 0.009,-3.53 0.019,-7.06 -0.09,-10.59 -0.62,0 -1.87,0.01 -2.491,0.01 -0.629,1.61 -0.53,3.7 -2,4.84 -3.629,0.84 -7.379,0.3 -11.06,0.33 0.07,-4.66 -0.08,-9.32 0.051,-13.99 4.54,0.04 9.199,-0.38 13.639,0.88 2.37,1.03 3.861,3.42 4.571,5.82 1.069,0.18 2.139,0.34 3.219,0.51 0.04,-0.33 0.12,-0.98 0.161,-1.3 -0.8,-3.19 -1.76,-6.35 -2.42,-9.58 -0.42,-0.01 -1.271,-0.03 -1.691,-0.04 -4.92,-0.07 -9.83,0.01 -14.75,-0.03 h -3.849 c -3.75,0.11 -7.5,0.14 -11.241,0.12 -0.059,0.55 -0.17,1.66 -0.219,2.22 1.58,0.28 3.16,0.48 4.759,0.68 0.27,1.85 0.46,3.71 0.531,5.57 0,4.73 -0.071,9.47 -0.021,14.2 0.021,3.87 0.01,7.74 -0.39,11.59 -1.959,0.76 -5.49,0.21 -5.089,3.38 L 32.83,-0.28 c -0.01,-0.9 -0.019,-2.69 -0.03,-3.59 0,-2.44 0.06,-4.88 0.07,-7.32 -0.899,0.1 -1.79,0.2 -2.68,0.29 -0.7,2.17 -1.49,4.3 -2.41,6.38 -2.61,0.23 -5.23,0.39 -7.84,0.47 -0.03,-10.01 0.081,-20.02 0.09,-30.02 0.38,-0.22 1.14,-0.67 1.52,-0.9 1.2,-0.2 2.41,-0.38 3.631,-0.55 -0.071,-0.79 -0.131,-1.59 -0.181,-2.39 -3.59,0.06 -7.16,0.09 -10.739,-0.01 -2.231,-0.02 -4.461,0.01 -6.681,0.03 0.04,0.62 0.11,1.86 0.15,2.48 1.85,0.28 4.831,-0.23 4.9,2.46 0.31,9.66 -0.09,19.33 0.24,29 C 9.9,-4.26 6.12,-3.29 4.061,-6.06 3.32,-7.55 2.98,-9.17 2.62,-10.77 1.69,-10.98 0.761,-11.18 -0.16,-11.36 -0.25,-7.57 -0.08,-3.79 0,0" /></g><g
           transform="translate(488.1152,274.355)"
           id="g140"><path
             id="path142"
             style="fill:#ffffff;fill-opacity:1;fill-rule:nonzero;stroke:none"
             d="M 0,0 C 4.55,4.75 11.609,6.14 17.91,5.04 19.97,4.57 22,3.97 24.05,3.4 25.2,4.32 26.34,5.23 27.529,6.12 27.779,4.39 28.02,2.65 28.2,0.9 c 0.239,-3.27 0.279,-6.55 0.329,-9.83 -0.649,0.15 -1.949,0.46 -2.599,0.62 -1.37,3.06 -2.47,6.74 -5.68,8.37 C 17.56,1.68 14.26,1.8 11.27,1.11 6.649,-0.15 3.939,-4.51 2.8,-8.89 1.8,-14.22 2.09,-20 4.84,-24.81 l 0.8,-0.78 c 1.259,-1.26 2.61,-2.45 4.15,-3.38 5.58,-1.87 12.02,-0.74 16.18,3.57 1.36,1.75 2.52,0.26 3.57,-0.95 -3.16,-3.89 -7.561,-6.8 -12.57,-7.56 -4.72,-0.62 -9.6,0.16 -13.821,2.37 C -7.65,-25.1 -8.66,-8.62 0,0" /></g><g
           transform="translate(521.3945,279.2051)"
           id="g144"><path
             id="path146"
             style="fill:#ffffff;fill-opacity:1;fill-rule:nonzero;stroke:none"
             d="M 0,0 C 10.961,0.01 21.921,0.09 32.891,-0.01 32.841,-3.7 32.931,-7.4 33,-11.1 c -0.909,-0.01 -1.81,-0.02 -2.699,-0.03 -0.391,1.18 -0.74,2.35 -1.141,3.51 -0.809,4.71 -6.68,3.69 -10.08,3.1 0.25,-0.22 0.74,-0.67 0.99,-0.89 -0.149,-9.56 0.13,-19.13 -0.019,-28.69 0.38,-0.26 1.149,-0.79 1.54,-1.06 1.17,-0.06 2.349,-0.13 3.54,-0.21 0.05,-0.6 0.149,-1.78 0.199,-2.38 -5.859,-0.25 -11.739,-0.271 -17.6,-0.23 0.031,0.669 0.09,2.01 0.111,2.67 1.449,0.08 2.909,0.15 4.37,0.22 0.22,1.43 0.43,2.87 0.59,4.3 0.139,8.91 -0.16,17.82 0.109,26.72 -0.54,0.01 -1.609,0.01 -2.149,0.01 -1.681,-0.03 -3.37,-0.01 -5,-0.42 C 3.23,-6.01 3.091,-9.34 1.891,-11.77 -2.22,-9.9 0.66,-4.83 -0.029,-1.38 -0.02,-1.04 -0.01,-0.35 0,0" /></g><g
           transform="translate(557.4248,279.1152)"
           id="g148"><path
             id="path150"
             style="fill:#ffffff;fill-opacity:1;fill-rule:nonzero;stroke:none"
             d="m 0,0 c 5.91,0.25 11.82,-0.02 17.73,0.21 0.07,-0.71 0.21,-2.13 0.28,-2.84 -1.64,-0.16 -3.27,-0.34 -4.89,-0.53 -0.8,-6.14 -0.29,-12.34 -0.42,-18.5 0.13,-4.42 -0.429,-8.9 0.51,-13.26 2.11,-0.26 5.601,0.41 4.95,-2.92 -6.01,0.069 -12.019,-0.14 -18.03,-0.11 -0.01,0.639 -0.029,1.91 -0.05,2.55 1.72,0.29 3.441,0.65 5.14,1.09 0.14,10.27 0.171,20.55 -0.1,30.82 C 3.75,-3.28 2.391,-3.05 1.04,-2.81 0.79,-2.7 0.29,-2.5 0.04,-2.4 0.03,-1.8 0.01,-0.6 0,0" /></g><g
           transform="translate(592.0752,274.2251)"
           id="g152"><path
             id="path154"
             style="fill:#ffffff;fill-opacity:1;fill-rule:nonzero;stroke:none"
             d="M 0,0 0.8,-0.28 -0.311,0.08 C -5.07,-5 -5.681,-12.43 -4.55,-18.99 c 0.15,-1.78 0.8,-3.47 1.21,-5.21 2.19,-2.67 4.65,-5.85 8.42,-6.04 3.66,-0.39 7.2,1.57 9.13,4.65 1.18,0.63 1.17,2.72 1.85,3.91 1.02,6.24 1.65,13.24 -1.621,18.95 C 11.55,2.19 4.5,3.52 0,0 m -3.24,3.49 c 9.179,5.18 22.65,1.23 26.469,-8.92 0.401,-1.14 0.761,-2.3 1.101,-3.47 1.09,-5.67 0.239,-11.58 -2.37,-16.72 -4.771,-7.01 -14.061,-9.79 -22.07,-7.44 -1.491,0.68 -2.97,1.36 -4.4,2.1 -3.07,2.18 -5.75,5.14 -6.85,8.81 -3.531,9.07 -0.75,20.76 8.12,25.64" /></g><g
           transform="translate(620.3555,279.2148)"
           id="g156"><path
             id="path158"
             style="fill:#ffffff;fill-opacity:1;fill-rule:nonzero;stroke:none"
             d="m 0,0 c 3.579,0.03 7.18,0.01 10.77,0.04 2.809,-3.52 5.61,-7.07 8.509,-10.52 0.13,-0.15 0.391,-0.44 0.521,-0.59 3.76,-4.53 7.21,-9.32 11.109,-13.74 0.021,3.35 0.011,6.7 0.021,10.04 0.049,3.75 -0.12,7.51 -0.71,11.22 -1.611,0.33 -3.22,0.65 -4.811,0.98 0,0.65 0.011,1.94 0.011,2.59 4.68,-0.02 9.369,0.01 14.05,0.05 0.16,0 0.469,0.01 0.62,0.01 0.069,-0.63 0.189,-1.89 0.25,-2.52 -1.88,-0.62 -5.141,-0.49 -5.24,-3.18 -0.481,-11.24 0.559,-22.55 -0.54,-33.779 -3.821,2.049 -5.911,6.019 -8.71,9.139 -2.13,2.57 -4.14,5.23 -6.29,7.77 -0.271,0.33 -0.821,0.99 -1.1,1.32 -2.891,3.7 -6.261,7.09 -8.471,11.27 -0.489,-5.31 -0.139,-10.64 -0.25,-15.97 0.061,-2.78 -0.309,-5.68 0.7,-8.34 1.09,-1.09 2.691,-0.97 4.121,-1.24 0.28,-0.69 0.57,-1.37 0.86,-2.06 -3.33,-0.62 -6.731,-0.44 -10.091,-0.389 -1.75,0.019 -3.489,0.059 -5.229,0.099 0.049,0.56 0.15,1.67 0.2,2.22 1.599,0.38 3.21,0.78 4.83,1.19 0.729,4.82 0.3,9.71 0.409,14.56 C 5.43,-15.11 5.97,-10.38 5.52,-5.68 5.42,-3.81 3.1,-3.32 1.689,-2.87 1.35,-2.76 0.659,-2.55 0.319,-2.44 0.239,-1.83 0.079,-0.61 0,0" /></g><g
           transform="translate(296.375,180.9346)"
           id="g160"><path
             id="path162"
             style="fill:#ffffff;fill-opacity:1;fill-rule:nonzero;stroke:none"
             d="m 0,0 c 4.4,-0.229 8.96,-0.1 12.95,2.03 5.33,4.851 5.39,15.63 -2.15,18.351 l -0.14,0.21 C 9.18,20.921 7.72,21.61 6.2,21.551 4.22,21.671 2.25,21.73 0.28,21.79 -0.15,14.54 0.06,7.261 0,0 m -16.08,26.41 c 4.89,-0.189 9.79,-0.149 14.7,-0.139 4.63,-0.081 9.33,0.389 13.92,-0.5 3,-0.541 5.89,-1.611 8.47,-3.241 2.72,-1.75 4.77,-4.55 5.62,-7.679 C 27,10.051 27.03,4.5 23.19,0.96 16.99,-4.92 7.89,-4.71 -0.08,-4.649 -0.03,-10.6 -0.2,-16.56 0.28,-22.5 c 0.4,-0.25 1.19,-0.75 1.58,-1 1.94,-0.63 3.94,-1.02 5.94,-1.47 -0.08,-0.639 -0.25,-1.929 -0.34,-2.58 -7.89,-0.019 -15.79,-0.109 -23.68,-0.09 0.02,0.821 0.06,2.451 0.09,3.271 1.8,0.159 3.62,0.34 5.43,0.519 2.34,5.56 1.32,11.72 1.28,17.571 -0.13,6.569 0,13.139 0.1,19.7 -0.06,2.72 0.24,5.569 -0.86,8.14 -1.49,1.599 -3.88,1.45 -5.87,1.629 -0.02,1.081 -0.03,2.151 -0.03,3.22" /></g><g
           transform="translate(326.2251,189.0146)"
           id="g164"><path
             id="path166"
             style="fill:#ffffff;fill-opacity:1;fill-rule:nonzero;stroke:none"
             d="M 0,0 C 0.1,0.63 0.3,1.88 0.4,2.5 5.08,2.341 9.77,2.42 14.45,2.391 c 0.68,0 2.05,0.009 2.73,0.009 l 0.36,-2.48 c -1.11,-0.19 -2.22,-0.42 -3.3,-0.67 -0.46,-0.1 -1.36,-0.3 -1.81,-0.399 -0.84,-10.121 0.08,-20.281 -0.23,-30.411 5.31,-0.08 11.03,-0.81 15.92,1.741 0.9,1.549 1.82,3.099 2.5,4.759 1.18,0.46 2.38,0.81 3.62,1.05 -0.38,-1.809 -0.85,-3.61 -1.36,-5.389 -0.59,-2 -1.13,-4.021 -1.55,-6.08 C 20.95,-36.33 10.5,-35.5 0.09,-35.67 c 0.03,0.66 0.09,1.96 0.12,2.62 1.46,0.25 2.92,0.51 4.39,0.76 l 0.04,0.391 c 0.75,5.46 0.33,10.96 0.4,16.45 0,4.809 0.25,9.649 -0.5,14.429 -1.52,0.321 -3.04,0.63 -4.55,0.92 z" /></g><g
           transform="translate(381.0049,181.3154)"
           id="g168"><path
             id="path170"
             style="fill:#ffffff;fill-opacity:1;fill-rule:nonzero;stroke:none"
             d="m 0,0 c -1.42,-4.11 -3.55,-7.94 -4.91,-12.07 3.24,-0.021 6.49,-0.04 9.73,-0.071 -1.29,2.401 -1.28,6.401 -4.29,7.3 0.37,0 1.11,0 1.48,0.011 C 1.28,-3.23 0.63,-1.631 0,0 m -1.3,6.899 c 0.48,1.22 0.95,2.451 1.38,3.691 0.58,-0.011 1.75,-0.03 2.33,-0.04 1.401,-2.45 2.43,-5.09 3.52,-7.691 1.89,-4.54 4.02,-8.969 6,-13.469 1.37,-3.42 2.78,-6.83 4.41,-10.151 0.62,-1.279 1.3,-2.54 2.02,-3.779 1.68,-0.511 3.35,-1.19 3.42,-3.24 -0.64,0 -1.929,-0.021 -2.58,-0.031 -4.5,0 -9,-0.04 -13.5,0.05 0.03,0.551 0.09,1.66 0.12,2.21 1.35,0.321 2.72,0.641 4.09,0.96 -0.97,2.7 -2.18,5.311 -2.78,8.12 -4.319,0.811 -8.74,0.58 -13.1,0.42 -1.75,-1.05 -2,-3.569 -2.86,-5.319 -0.25,-1.24 -0.46,-2.481 -0.64,-3.74 0.88,-0.021 2.62,-0.08 3.5,-0.1 0.05,-0.66 0.15,-1.971 0.2,-2.631 -1.669,0.021 -3.33,0.03 -4.99,0.03 -2.53,0 -5.06,-0.009 -7.58,0.061 0.02,0.59 0.05,1.77 0.07,2.359 0.63,0.061 1.89,0.181 2.52,0.231 0.92,1.25 1.79,2.54 2.46,3.939 0.99,2.09 1.87,4.241 2.76,6.37 1.17,2.781 2.381,5.55 3.52,8.351 1.88,4.479 3.861,8.909 5.71,13.399" /></g><g
           transform="translate(404.8848,191.4648)"
           id="g172"><path
             id="path174"
             style="fill:#ffffff;fill-opacity:1;fill-rule:nonzero;stroke:none"
             d="m 0,0 c 3.3,-0.05 6.61,0.03 9.92,-0.05 0.81,-0.599 1.61,-1.24 2.37,-1.929 6.08,-7.701 12.28,-15.311 18.38,-23 -0.239,7.129 0.61,14.379 -0.81,21.419 l -1.429,-0.02 0.489,0.78 c -1.22,0.26 -2.42,0.54 -3.62,0.821 0.02,0.519 0.06,1.569 0.08,2.089 4.32,-0.35 8.67,0.01 12.99,-0.23 0.351,-0.04 1.04,-0.12 1.38,-0.16 0.061,-0.369 0.181,-1.11 0.25,-1.48 L 40.12,-2.6 C 39.36,-2.78 37.83,-3.14 37.061,-3.32 36.7,-3.399 35.99,-3.55 35.641,-3.63 35.271,-5.08 34.79,-6.53 34.8,-8.05 c -0.04,-10.099 -0.15,-20.21 0.03,-30.32 -0.54,-0.029 -1.6,-0.09 -2.13,-0.12 -2.4,1.97 -4.01,4.7 -6.01,7.03 l -0.33,0.42 c -3.07,3.74 -6.06,7.54 -9.17,11.24 -2.6,3.21 -5.06,6.53 -7.65,9.74 0.29,-8.19 -1.29,-16.61 0.851,-24.629 1.429,-0.301 2.869,-0.611 4.319,-0.92 0.011,-0.58 0.03,-1.741 0.05,-2.321 -1.55,-0.009 -3.09,-0.009 -4.619,-0.03 -3.521,-0.03 -7.04,-0.03 -10.551,0.13 0.16,2.92 3.341,2.57 5.27,3.431 0.08,0.529 0.23,1.589 0.31,2.129 0.44,9.07 -0.14,18.18 0.28,27.26 C 3.971,-3.77 2.23,-2.92 0.38,-2.39 0.29,-1.79 0.101,-0.6 0,0" /></g><g
           transform="translate(453.7148,183.2754)"
           id="g176"><path
             id="path178"
             style="fill:#ffffff;fill-opacity:1;fill-rule:nonzero;stroke:none"
             d="M 0,0 C -0.42,-1.66 -0.41,-3.82 0.96,-5.07 -0.28,-5.57 -1.47,-6.17 -2.63,-6.841 0.25,-7.92 3.23,-7.61 6.15,-6.94 5.311,-6.24 4.47,-5.57 3.63,-4.9 2.51,-3.2 1.311,-1.54 0,0 M -0.14,4.189 C -0.17,2.83 -0.2,1.47 -0.229,0.1 0.811,0.31 1.851,0.52 2.9,0.729 2.891,1.649 2.891,2.569 2.891,3.479 1.87,3.729 0.86,3.97 -0.14,4.189 M -2.39,-6.25 c 0.3,3.72 0.6,7.439 0.22,11.17 -5.09,-0.91 -4.4,-9.24 -0.22,-11.17 m -1,11.409 C -1.18,5.01 1.05,4.92 3.28,4.89 3.97,4.26 4.66,3.619 5.351,2.989 5.09,1.33 4.08,0.08 2.771,-0.91 3.44,-1.73 4.13,-2.551 4.82,-3.36 c 0.83,-0.72 1.62,-1.481 2.39,-2.281 2.13,3 2.21,6.701 0.59,9.92 -3.05,2.781 -7.909,4.12 -11.19,0.88 M -4.979,5.02 C -3.05,7.489 -0.01,8.159 2.98,8.199 3.61,8.04 4.88,7.71 5.51,7.55 6.49,6.72 7.59,6 8.4,4.97 8.891,4.08 9.38,3.18 9.88,2.279 10.91,-1.551 9.38,-6.521 5.41,-7.98 3.08,-8.79 0.58,-8.82 -1.76,-8.091 -6.92,-6.19 -8.31,0.939 -4.979,5.02" /></g></g></g></g></svg>