<?xml version="1.0" encoding="UTF-8" standalone="no"?>
<svg
   xmlns:dc="http://purl.org/dc/elements/1.1/"
   xmlns:cc="http://creativecommons.org/ns#"
   xmlns:rdf="http://www.w3.org/1999/02/22-rdf-syntax-ns#"
   xmlns:svg="http://www.w3.org/2000/svg"
   xmlns="http://www.w3.org/2000/svg"
   viewBox="0 0 2400 758.66669"
   height="758.66669"
   width="2400"
   xml:space="preserve"
   id="svg2"
   version="1.1"><metadata
     id="metadata8"><rdf:RDF><cc:Work
         rdf:about=""><dc:format>image/svg+xml</dc:format><dc:type
           rdf:resource="http://purl.org/dc/dcmitype/StillImage" /></cc:Work></rdf:RDF></metadata><defs
     id="defs6"><clipPath
       id="clipPath18"
       clipPathUnits="userSpaceOnUse"><path
         id="path16"
         d="M 0,569 H 1800 V 0 H 0 Z" /></clipPath></defs><g
     transform="matrix(1.3333333,0,0,-1.3333333,0,758.66667)"
     id="g10"><g
       id="g12"><g
         clip-path="url(#clipPath18)"
         id="g14"><g
           transform="translate(1436.25,568.5)"
           id="g20"><path
             id="path22"
             style="fill:#ffffff;fill-opacity:1;fill-rule:nonzero;stroke:none"
             d="m 0,0 h 7.56 c 10.74,-1.53 20.01,-10.33 21.65,-21.12 1.46,-8.46 -1.52,-17.56 -7.98,-23.27 -7.56,-7.18 -19.65,-8.67 -28.86,-3.94 -6.33,3.12 -11.12,9.02 -13.04,15.78 -1.96,7.47 -0.82,15.89 3.89,22.14 C -12.9,-4.79 -6.6,-1.32 0,0" /></g><g
           transform="translate(697.25,567.5601)"
           id="g24"><path
             id="path26"
             style="fill:#ffffff;fill-opacity:1;fill-rule:nonzero;stroke:none"
             d="m 0,0 c 40.24,0.25 80.5,-0.01 120.74,0.05 11.4,-0.1 22.81,0.35 34.21,-0.07 0.1,-13.42 0.05,-26.83 0.02,-40.24 -35.85,-0.07 -71.69,-0.1 -107.53,0.02 -0.47,-21.26 -0.03,-42.53 -0.22,-63.8 0.17,-1.29 -0.76,-4.19 1.58,-3.77 28.46,-0.01 56.92,0.01 85.38,-0.01 0.13,-13.57 0.13,-27.15 0,-40.73 -28.98,-0.11 -57.96,0.15 -86.94,-0.12 0.16,-23.07 -0.31,-46.17 0.24,-69.22 37.83,0.16 75.66,0.07 113.49,0.04 -0.13,-13.59 0.4,-27.23 -0.27,-40.8 -53.55,0.17 -107.11,0.1 -160.66,0.03 C -0.06,-172.41 0.04,-86.2 0,0" /></g><g
           transform="translate(224.8198,514.7202)"
           id="g28"><path
             id="path30"
             style="fill:#ffffff;fill-opacity:1;fill-rule:nonzero;stroke:none"
             d="m 0,0 c 26.51,26.46 66.54,38.25 103.17,30.42 61.46,-14.21 117.21,-51.47 153.95,-102.74 23.27,-32.22 39.12,-69.76 45.91,-108.92 7.02,-39.49 4.57,-80.52 -6.57,-119.03 -0.77,0.439 -1.18,1.12 -1.24,2.02 -8.28,34.629 -29.55,65.93 -58.6,86.5 -35.58,25.56 -82.56,34.08 -124.93,23.08 -25.28,-7.23 -53.05,-5.53 -77.17,4.99 -25.24,10.81 -46.23,31.18 -57.72,56.14 -6.64,14.46 -10.48,30.32 -10.38,46.27 C -34.25,-51.08 -21.61,-21.01 0,0" /></g><g
           transform="translate(961.4004,492.0601)"
           id="g32"><path
             id="path34"
             style="fill:#ffffff;fill-opacity:1;fill-rule:nonzero;stroke:none"
             d="M 0,0 C 16.989,9.09 38.04,9.82 55.85,2.69 70.04,-3 80.05,-16.23 84.08,-30.7 c 0.71,0.47 1.279,1.1 1.699,1.87 7.111,12.83 18.63,22.95 31.79,29.27 15.701,7.71 34.151,8.82 50.991,4.58 11.299,-2.85 21.679,-9.56 28.339,-19.2 8.771,-12.6 11.63,-28.27 12.201,-43.35 -0.02,-41.83 0.049,-83.66 -0.031,-125.49 -15.5,-0.08 -30.989,-0.08 -46.479,0 0.01,38.49 0.019,76.98 0,115.47 -0.311,8.68 -1.3,18.06 -6.851,25.12 -5.529,6.67 -14.989,8.1 -23.13,7.06 -11.37,-1.13 -21.679,-7.73 -28.479,-16.74 -9.67,-12.63 -13.66,-28.8 -13.74,-44.5 -0.09,-21.64 -0.021,-43.28 -0.04,-64.92 -0.17,-7.21 0.339,-14.45 -0.27,-21.64 -15.431,0.4 -30.9,-0.28 -46.31,0.34 0.19,32.75 0.03,65.51 0.08,98.26 -0.14,10.71 0.69,21.65 -2.02,32.13 -1.57,6.18 -5.23,12.22 -11.19,14.99 -7.47,3.32 -16.08,2.82 -23.79,0.6 -9.611,-2.79 -17.72,-9.48 -23.33,-17.66 -5.791,-8.4 -9.411,-18.17 -11.22,-28.17 -1.62,-10.89 -1.12,-21.94 -1.2,-32.91 -0.05,-22.47 0.08,-44.95 -0.06,-67.43 -15.421,-0.18 -30.841,0.16 -46.25,-0.17 -0.45,62.01 -0.04,124.04 -0.21,186.06 14.72,0.15 29.449,0.08 44.17,0.05 l 0.54,-0.47 c 0.079,-11.37 0.29,-22.76 -0.49,-34.12 C -24.341,-18.28 -13.28,-7.06 0,0" /></g><g
           transform="translate(1292.0596,459.3599)"
           id="g36"><path
             id="path38"
             style="fill:#ffffff;fill-opacity:1;fill-rule:nonzero;stroke:none"
             d="m 0,0 c -12.869,-0.77 -25.22,-7.65 -32.399,-18.39 -8.72,-12.64 -11.071,-28.54 -10.571,-43.58 0.781,-16.61 6.821,-34.02 20.09,-44.74 15.181,-12.33 38.86,-11.57 53.63,1.05 13.54,11.33 18.87,29.64 18.95,46.76 0.151,16.93 -4.25,34.98 -16.59,47.24 C 24.48,-3.13 12.03,1.04 0,0 m -8.02,37.24 c 19.1,5.15 40.161,3.59 58.041,-5.02 C 65.87,24.51 78.37,10.8 85.811,-5.08 94.74,-23.9 97.521,-45.18 96.341,-65.84 95.16,-86.78 88.74,-107.89 75.62,-124.5 64.99,-138.15 49.71,-148 32.96,-152.23 c -19.05,-4.72 -40.31,-3.4 -57.3,7.06 -6.92,3.96 -12.51,9.71 -17.739,15.63 0.779,-13.44 0.46,-26.9 0.519,-40.35 -0.019,-17.81 0.031,-35.62 -0.019,-53.43 -15.5,-0.059 -31,-0.099 -46.49,0.02 0.019,86.29 0.019,172.59 0,258.88 14.16,0.11 28.319,0.1 42.479,0.01 0.011,-8.79 0.351,-17.62 -0.809,-26.36 8.91,13.53 22.649,23.86 38.379,28.01" /></g><g
           transform="translate(1681.04,446.5298)"
           id="g40"><path
             id="path42"
             style="fill:#ffffff;fill-opacity:1;fill-rule:nonzero;stroke:none"
             d="m 0,0 c -4.56,-6.37 -7.58,-13.85 -8.81,-21.59 27.02,0.22 54.05,-0.14 81.07,0.18 C 71.85,-8.78 66.82,4.71 55.57,11.51 37.77,22.16 12.08,16.97 0,0 m 7.92,49.09 c 16.51,4.6 34.2,5.23 50.92,1.4 C 75.3,46.71 90.56,37.37 100.8,23.86 112.18,9.26 117.55,-9.15 118.96,-27.4 v -14.34 c -0.33,-3.83 -0.69,-7.66 -0.981,-11.49 -42.729,-0.1 -85.469,-0.05 -128.199,-0.02 0.81,-12.79 6.28,-25.41 15.71,-34.19 11.65,-11.19 28.43,-15.86 44.32,-14.75 18,1.22 34.77,9.42 49.06,20.04 2.97,-4.22 4.91,-9.08 7.55,-13.52 3.28,-6.31 6.89,-12.46 10.04,-18.84 0.68,-1.9 -2.16,-2.66 -3.15,-3.85 -31.59,-23.88 -75.74,-30.61 -112.67,-15.97 -17.9,7.13 -33.48,19.98 -43.68,36.34 -11.61,18.3 -16.3,40.54 -14.64,62.03 1.26,19.57 7.77,39.04 19.909,54.58 11.381,14.77 27.761,25.47 45.691,30.47" /></g><g
           transform="translate(1569.5498,486.04)"
           id="g44"><path
             id="path46"
             style="fill:#ffffff;fill-opacity:1;fill-rule:nonzero;stroke:none"
             d="m 0,0 c 12.03,9.23 27.9,13.51 42.91,10.89 0.06,-15.26 0.08,-30.52 -0.01,-45.78 -11.11,1.42 -22.85,0.83 -33.04,-4.19 -12.37,-5.63 -21.88,-16.54 -26.83,-29.09 -4.57,-11.19 -5.8,-23.41 -5.84,-35.4 0.07,-24.41 -0.11,-48.83 0.09,-73.25 -15.42,-0.6 -30.88,0.06 -46.31,-0.33 -0.619,23.84 -0.09,47.74 -0.27,71.6 -0.04,38.1 0.09,76.21 -0.059,114.31 14.92,0.45 29.88,0.14 44.819,0.15 -0.13,-15.13 0.351,-30.28 -0.58,-45.4 C -20.399,-22.31 -12.09,-9.02 0,0" /></g><g
           transform="translate(1417.1699,495.1099)"
           id="g48"><path
             id="path50"
             style="fill:#ffffff;fill-opacity:1;fill-rule:nonzero;stroke:none"
             d="m 0,0 c 15.42,-0.27 30.84,-0.03 46.271,-0.12 0.149,-62.01 0,-124.03 0.069,-186.04 -15.44,0.02 -30.88,0.19 -46.319,-0.08 -0.451,22.85 -0.061,45.73 -0.191,68.59 C -0.06,-78.43 -0.4,-39.21 0,0" /></g><g
           transform="translate(1033.5801,261.8701)"
           id="g52"><path
             id="path54"
             style="fill:#ffffff;fill-opacity:1;fill-rule:nonzero;stroke:none"
             d="m 0,0 c 13.11,2.71 26.76,3.26 40.01,1.27 -0.15,-13.15 -0.17,-26.31 0.02,-39.45 -12.21,1.3 -25.96,1.1 -36.04,-6.87 -8.08,-6.36 -9.94,-17.39 -9.28,-27.09 13.229,0.03 26.46,0.03 39.7,0 -0.04,-12.35 0.13,-24.7 -0.09,-37.05 -13.23,0.02 -26.48,0.31 -39.7,-0.14 0.04,-49.6 0.16,-99.21 -0.06,-148.81 -15.42,0.03 -30.84,0.05 -46.25,-0.01 -0.3,49.62 -0.09,99.26 -0.1,148.879 -7.64,0.331 -15.28,0.101 -22.91,0.121 -0.29,12.33 -0.08,24.67 -0.1,37 7.65,0.07 15.3,0.01 22.96,0.03 -0.62,16.62 1.819,34.29 11.9,48.019 C -30.64,-10.97 -15.45,-3.26 0,0" /></g><g
           transform="translate(905.5498,262.7598)"
           id="g56"><path
             id="path58"
             style="fill:#ffffff;fill-opacity:1;fill-rule:nonzero;stroke:none"
             d="m 0,0 c 9.44,2.38 19.97,-1.22 26.03,-8.83 8.29,-9.92 7.25,-26.01 -2.349,-34.699 -8.721,-8.591 -23.66,-9.29 -33.241,-1.741 -7.02,5.27 -10.84,14.36 -9.85,23.06 0.9,10.521 9.15,19.851 19.41,22.21" /></g><g
           transform="translate(697.0098,262.7197)"
           id="g60"><path
             id="path62"
             style="fill:#ffffff;fill-opacity:1;fill-rule:nonzero;stroke:none"
             d="m 0,0 c 15.74,0.05 31.47,0.05 47.21,-0.01 0.02,-72.7 0.09,-145.41 -0.04,-218.11 37.94,-0.23 75.88,-0.029 113.82,-0.109 -0.06,-13.601 0.11,-27.201 -0.09,-40.8 -53.61,0.109 -107.22,0.079 -160.84,0.019 C -0.1,-172.68 0.02,-86.34 0,0" /></g><g
           transform="translate(1143.8398,151.7197)"
           id="g64"><path
             id="path66"
             style="fill:#ffffff;fill-opacity:1;fill-rule:nonzero;stroke:none"
             d="m 0,0 c -11.01,-6.87 -17.89,-19.17 -19.74,-31.83 26.91,0.19 53.841,0.17 80.761,0.02 C 60.88,-22.14 58.03,-12.17 51.54,-4.819 46.141,1.351 38.34,5.11 30.29,6.24 19.891,7.42 8.91,5.69 0,0 m 11.16,41.69 c 18.941,2.34 39.03,0.4 55.97,-8.919 15.35,-8.17 27.06,-22.291 33.5,-38.331 7.61,-18.299 8.391,-38.56 6.34,-58.049 -42.8,-0.321 -85.619,0.08 -128.43,-0.201 1.36,-14.87 8.521,-29.48 20.89,-38.2 12.51,-9.01 28.64,-12.219 43.79,-10.08 16.4,2.231 31.7,9.811 44.74,19.83 5.98,-11.09 11.87,-22.229 17.97,-33.25 -18.51,-16.099 -42.789,-24.7 -67.06,-26.71 H 23.391 c -22.651,1.42 -45.241,9.64 -62,25.22 -16.83,15.351 -27.211,37.12 -29.731,59.65 -3.05,27.19 3.41,56.25 21.111,77.58 14.359,17.64 35.959,28.64 58.389,31.46" /></g><g
           transform="translate(1252.1104,194.3203)"
           id="g68"><path
             id="path70"
             style="fill:#ffffff;fill-opacity:1;fill-rule:nonzero;stroke:none"
             d="m 0,0 c 8.87,-0.15 17.739,-0.03 26.62,-0.08 0.01,-1.26 0.029,-2.53 0.079,-3.811 -3.649,-0.29 -7.29,-0.189 -10.929,-0.139 -0.27,-9.56 -0.15,-19.14 -0.041,-28.71 -1.58,0.019 -3.129,0.01 -4.669,-0.021 0.099,9.58 0.2,19.16 -0.04,28.731 C 7.29,-4.09 3.56,-4.09 -0.15,-4.021 -0.12,-2.681 -0.07,-1.34 0,0" /></g><g
           transform="translate(1281.9199,194.3096)"
           id="g72"><path
             id="path74"
             style="fill:#ffffff;fill-opacity:1;fill-rule:nonzero;stroke:none"
             d="m 0,0 c 2.16,-0.04 4.33,-0.069 6.51,-0.14 2.88,-8.99 5.801,-17.99 9.18,-26.799 3,8.91 6.13,17.79 8.93,26.759 2.16,0.101 4.33,0.14 6.52,0.191 0.4,-10.931 0.12,-21.88 0.15,-32.821 -1.49,0 -2.96,0 -4.41,-0.009 -0.16,8.71 0.04,17.42 -0.08,26.13 -2.98,-8.691 -5.98,-17.38 -8.8,-26.121 -1.64,0.031 -3.26,0.04 -4.86,0.04 -2.81,8.72 -5.95,17.34 -8.77,26.06 -0.39,-8.68 0.2,-17.399 -0.07,-26.1 -1.489,0.01 -2.97,0.01 -4.44,0.01 C -0.1,-21.869 -0.38,-10.93 0,0" /></g><g
           transform="translate(888.2998,189.4297)"
           id="g76"><path
             id="path78"
             style="fill:#ffffff;fill-opacity:1;fill-rule:nonzero;stroke:none"
             d="m 0,0 0.53,0.551 c 15.1,0.039 30.21,0.039 45.31,0 l 0.56,-0.54 c 0.121,-61.891 0.02,-123.79 0.04,-185.691 -15.49,-0.009 -30.97,0.02 -46.46,-0.009 C -0.05,-123.79 -0.1,-61.89 0,0" /></g><g
           transform="translate(192.7402,541.73)"
           id="g80"><path
             id="path82"
             style="fill:#ffffff;fill-opacity:1;fill-rule:nonzero;stroke:none"
             d="m 0,0 c 3.68,1.08 7.37,2.2 11.19,2.68 -28.76,-25.83 -46.89,-63.25 -48.91,-101.89 -2.57,-41.73 14,-83.96 43.65,-113.33 16.96,-16.51 28.64,-38.43 32.49,-61.81 4.87,-27.6 -1.33,-56.92 -16.76,-80.3 -15.01,-23.15 -38.79,-40.32 -65.43,-47.46 -25.03,-6.85 -52.41,-4.78 -76.13,5.74 -23.19,10.08 -42.81,28.11 -54.6,50.49 -8.62,15.93 -12.2,33.9 -15.22,51.58 -1.71,9.72 -2.27,19.59 -3.02,29.42 v 22.32 c 0.79,11.46 1.77,22.91 3.87,34.22 8.05,46.22 29.01,90.05 59.59,125.61 C -95.57,-43.24 -49.95,-14.13 0,0" /></g><g
           transform="translate(316.4702,278.9902)"
           id="g84"><path
             id="path86"
             style="fill:#ffffff;fill-opacity:1;fill-rule:nonzero;stroke:none"
             d="m 0,0 c 21.12,12.27 46.24,17.19 70.45,14.3 22.66,-2.56 44.51,-12.13 61.67,-27.16 15.27,-13.22 26.82,-30.65 33.07,-49.85 5.63,-16.96 6.99,-35.261 4.26,-52.91 -3.49,-21.46 -13.26,-41.82 -27.94,-57.88 -38.01,-39.84 -88.89,-66.99 -143,-77 -45.47,-8.46 -93.12,-4.96 -136.83,10.189 -39.03,13.321 -74.85,35.96 -103.66,65.471 -0.56,0.659 -1.1,1.33 -1.62,2.02 16.84,-5.12 34.53,-7.6 52.13,-6.781 26.37,1.091 52.41,9.321 74.63,23.551 31.32,19.869 54.58,51.86 63.99,87.72 C -45.2,-39.74 -25.74,-14.601 0,0" /></g></g></g></g></svg>