<?xml version="1.0" encoding="UTF-8" standalone="no"?>
<svg
   xmlns:dc="http://purl.org/dc/elements/1.1/"
   xmlns:cc="http://creativecommons.org/ns#"
   xmlns:rdf="http://www.w3.org/1999/02/22-rdf-syntax-ns#"
   xmlns:svg="http://www.w3.org/2000/svg"
   xmlns="http://www.w3.org/2000/svg"
   viewBox="0 0 610.66669 325.33334"
   height="325.33334"
   width="610.66669"
   xml:space="preserve"
   id="svg2"
   version="1.1"><metadata
     id="metadata8"><rdf:RDF><cc:Work
         rdf:about=""><dc:format>image/svg+xml</dc:format><dc:type
           rdf:resource="http://purl.org/dc/dcmitype/StillImage" /></cc:Work></rdf:RDF></metadata><defs
     id="defs6"><clipPath
       id="clipPath18"
       clipPathUnits="userSpaceOnUse"><path
         id="path16"
         d="M 0,244 H 458 V 0 H 0 Z" /></clipPath></defs><g
     transform="matrix(1.3333333,0,0,-1.3333333,0,325.33333)"
     id="g10"><g
       id="g12"><g
         clip-path="url(#clipPath18)"
         id="g14"><g
           transform="translate(202.4585,219.1094)"
           id="g20"><path
             id="path22"
             style="fill:#ffffff;fill-opacity:1;fill-rule:nonzero;stroke:none"
             d="M 0,0 C 3.12,1.49 6.34,3.29 9.93,3 20.66,2.87 31.39,3.11 42.11,2.89 48.93,1.32 54.94,-2.8 60.23,-7.28 49.56,-9.76 38.86,-12.14 28.2,-14.69 c -0.01,-3.59 -0.01,-7.17 0,-10.76 16.969,-5.66 34.17,-10.56 51.19,-16.07 0.79,-9.36 0.22,-18.91 -3.24,-27.72 -3.17,-8.35 -9.04,-16.8 -18.28,-18.84 -6.05,-1.93 -14.69,2.87 -13.51,9.87 0.09,2.08 1.74,3.7 3.63,4.34 2.06,0.61 3.71,-1.01 5.37,-1.92 0.21,-1.03 0.42,-2.07 0.65,-3.1 0.34,0.96 0.699,1.92 1.06,2.87 -0.28,1.08 -0.56,2.16 -0.83,3.23 -1.8,1.53 -3.77,3.23 -6.27,3.25 -3.131,0.31 -5.54,-1.96 -8.011,-3.48 1.761,4.62 6.471,6.45 10.591,8.36 -3.05,0.28 -6.44,0.89 -9.2,-0.81 -2.35,-1.07 -3.7,-3.35 -5.16,-5.35 0.31,3.57 2.18,6.67 3.97,9.68 -5.92,-3.46 -10.14,-9.98 -9.89,-16.95 -0.061,-3.25 1.22,-6.27 2.31,-9.26 -1.871,-0.01 -3.741,-0.01 -5.61,0 -1.68,18.86 -3.68,37.68 -5.61,56.51 1.38,-0.02 2.76,-0.04 4.14,-0.06 -0.01,1.49 -0.02,2.97 -0.02,4.45 -2.42,0.02 -4.83,0.03 -7.24,0.03 -0.07,4.66 -0.03,9.31 -0.06,13.97 2.1,0.03 4.21,0.05 6.32,0.13 -3.65,2.61 -7.35,5.31 -11.49,7.06 -4.2,-2 -8.02,-4.73 -12.06,-7.04 1.53,-0.11 3.07,-0.2 4.61,-0.29 -0.05,-4.62 -0.01,-9.24 -0.03,-13.87 -1.27,-0.03 -2.54,-0.07 -3.81,-0.11 -0.02,-1.4 -0.03,-2.8 -0.05,-4.21 0.81,-0.04 2.42,-0.12 3.23,-0.16 -1.23,-9.82 -3.27,-19.51 -4.8,-29.28 -1.52,-9.02 -2.81,-18.07 -4.67,-27.02 -2.59,-0.01 -5.18,-0.15 -7.77,0.06 -2.9,0.47 -5.14,2.64 -7.01,4.75 -9.28,11.86 -13.02,27.77 -10.35,42.54 3,16.93 14.19,32.33 29.7,39.89" /></g><g
           transform="translate(277.3486,128.5396)"
           id="g24"><path
             id="path26"
             style="fill:#ffffff;fill-opacity:1;fill-rule:nonzero;stroke:none"
             d="M 0,0 C -0.521,-1.63 0.05,-2.16 1.72,-1.59 2.229,0.03 1.66,0.56 0,0 M -1.94,1.53 C -0.061,1.32 1.84,1.17 3.729,0.99 3.569,-1.65 3.689,-4.33 3.21,-6.96 2.97,-6.01 2.489,-4.11 2.25,-3.16 1.59,-3.1 0.26,-2.99 -0.4,-2.94 -0.551,-3.92 -0.851,-5.9 -1.011,-6.88 -2.32,-4.27 -2.04,-1.29 -1.94,1.53" /></g><g
           transform="translate(191.4282,127.3794)"
           id="g28"><path
             id="path30"
             style="fill:#ffffff;fill-opacity:1;fill-rule:nonzero;stroke:none"
             d="M 0,0 C 14.67,0.38 29.37,0.25 44.041,0.07 38.29,-3.33 31.51,-3.82 25.03,-4.57 16.53,-5.12 7.48,-4.48 0,0" /></g><g
           transform="translate(232.4785,121.8394)"
           id="g32"><path
             id="path34"
             style="fill:#ffffff;fill-opacity:1;fill-rule:nonzero;stroke:none"
             d="M 0,0 C 9.06,2.77 18.5,4.73 28.01,4.4 21.319,-0.91 13.24,-4.18 4.96,-6.05 c -3.01,-0.25 -6,-0.72 -9.02,-0.93 -7.62,-0.17 -15.05,1.78 -22.34,3.78 5.79,0.56 11.64,0.33 17.41,1.22 C -6,-1.29 -3,-0.629 0,0" /></g><g
           transform="translate(231.8887,74.3594)"
           id="g36"><path
             id="path38"
             style="fill:#ffffff;fill-opacity:1;fill-rule:nonzero;stroke:none"
             d="m 0,0 c -3.51,-2.54 -4.03,-7.29 -4.061,-11.3 0.091,-4.58 -0.349,-9.27 0.811,-13.76 1.66,-7.629 13.76,-8.25 17.239,-1.76 2.891,5 2.261,11.01 2.2,16.54 -0.059,4.27 -1.37,9.39 -5.62,11.301 C 7.12,1.7 3.06,2.05 0,0 m -16.97,25.98 c 4.349,-0.06 8.69,-0.05 13.04,-0.01 0.07,-8.55 0.09,-17.1 0.01,-25.64 5.029,4.34 12.119,4.92 18.329,3.3 5.131,-1.54 8.32,-6.65 8.62,-11.819 0.42,-7.451 0.87,-16.141 -4.689,-21.951 -6.01,-5.41 -15.351,-4.28 -22.2,-1.18 -2.1,-0.77 -4.17,-1.619 -6.23,-2.49 -0.12,16.831 -0.031,33.67 -0.031,50.51 0,1.89 -0.359,3.74 -0.71,5.58 -2.119,0.62 -4.279,1.031 -6.469,1.321 0.11,0.789 0.219,1.589 0.33,2.379" /></g><g
           transform="translate(254.8486,100.3398)"
           id="g40"><path
             id="path42"
             style="fill:#ffffff;fill-opacity:1;fill-rule:nonzero;stroke:none"
             d="m 0,0 c 4.359,-0.061 8.71,-0.04 13.069,-0.021 0.17,-17.769 -0.139,-35.559 0.151,-53.33 0.05,-3.599 4.519,-3.019 7.009,-3.399 -0.019,-0.561 -0.049,-1.69 -0.069,-2.25 -6.78,0.17 -13.56,0.12 -20.341,0.029 -0.019,0.54 -0.08,1.63 -0.109,2.17 2.05,0.28 4.09,0.631 6.12,1.021 0.239,0.61 0.739,1.83 0.989,2.439 C 6.93,-39.311 6.8,-25.28 6.89,-11.261 6.96,-8.71 6.649,-6.19 6.17,-3.69 4.06,-2.95 1.84,-2.601 -0.37,-2.4 -0.28,-1.801 -0.09,-0.601 0,0" /></g><g
           transform="translate(395.5479,93.96)"
           id="g44"><path
             id="path46"
             style="fill:#ffffff;fill-opacity:1;fill-rule:nonzero;stroke:none"
             d="m 0,0 c 1.32,3.85 5.271,5.43 8.851,6.479 3.2,-0.4 7.11,-0.29 9.2,-3.229 C 19.66,1.46 19.28,-1.061 19.45,-3.28 17.5,-3.301 15.57,-3.301 13.641,-3.301 13.49,-0.881 13.171,1.55 12.2,3.789 9.5,4.13 6.341,3.399 5.551,0.409 4.961,-4.94 5.44,-10.351 5.301,-15.73 c 3.12,-0.02 6.239,-0.02 9.37,-0.01 -0.04,-1.12 -0.07,-2.25 -0.11,-3.38 -3.09,0.04 -6.18,0.029 -9.271,0.01 0.04,-8.601 -0.04,-17.201 0.011,-25.8 0.139,-1.49 -0.28,-3.33 1.09,-4.391 2.089,-0.889 4.389,-0.859 6.62,-1.099 -0.011,-0.55 -0.031,-1.63 -0.04,-2.17 -7.13,0.04 -14.26,0.019 -21.38,0.019 -0.37,3.721 4.54,2.24 6.8,3.29 0.53,5.111 0.259,10.24 0.32,15.361 -0.03,5.08 0.079,10.17 -0.141,15.25 -2.16,-0.021 -4.33,-0.04 -6.49,-0.05 0.051,0.739 0.16,2.229 0.221,2.97 2.12,-0.02 4.25,-0.031 6.38,-0.041 C -1.229,-10.521 -1.6,-5.07 0,0" /></g><g
           transform="translate(148.9185,96.4092)"
           id="g48"><path
             id="path50"
             style="fill:#ffffff;fill-opacity:1;fill-rule:nonzero;stroke:none"
             d="M 0,0 C 1.87,0.67 4.67,0.891 5.8,-1.12 8.6,-4.359 5.91,-11 1.24,-9.76 -2.64,-8.31 -3.11,-2.359 0,0" /></g><g
           transform="translate(371.8379,95.3398)"
           id="g52"><path
             id="path54"
             style="fill:#ffffff;fill-opacity:1;fill-rule:nonzero;stroke:none"
             d="m 0,0 c 1.83,1.08 4.03,2.199 6.131,1.1 2.43,-1.39 2.42,-4.54 1.88,-6.941 C 7.21,-8.17 4.511,-8.7 2.381,-9.011 -0.479,-6.83 -0.449,-3.24 0,0" /></g><g
           transform="translate(16.1582,93.5693)"
           id="g56"><path
             id="path58"
             style="fill:#ffffff;fill-opacity:1;fill-rule:nonzero;stroke:none"
             d="M 0,0 C -0.01,0.78 -0.02,1.55 -0.02,2.33 2.05,2.32 4.13,2.311 6.21,2.311 10.55,2.29 14.9,2.3 19.25,2.311 26.79,2.32 34.33,2.271 41.87,2.36 c -0.03,-4.549 -0.02,-9.1 0,-13.65 -1.34,0.01 -2.68,0 -4.02,0 -0.19,3.04 -0.62,6.061 -1.29,9.04 -1.71,0.73 -3.45,1.57 -5.36,1.48 -5.81,0.13 -11.63,0.01 -17.44,0.03 0.01,-7.18 0.01,-14.36 -0.02,-21.54 3.8,0.06 7.64,-0.25 11.41,0.27 3.51,0.81 2.7,5.21 3.35,7.861 0.8,-0.011 2.39,-0.031 3.18,-0.051 0.01,-6.38 0.07,-12.76 -0.01,-19.14 -1.11,0.09 -2.23,0.21 -3.33,0.35 -0.48,2.23 -0.63,4.5 -0.92,6.75 -4.34,1.761 -9.08,1.261 -13.65,1.27 -0.01,-7.99 -0.07,-15.98 0.03,-23.969 5.45,0.109 10.9,-0.081 16.34,0.089 2.6,0.08 5.44,1.33 6.32,3.97 0.81,2.86 1.07,5.83 1.4,8.771 0.99,0.009 2.98,0.039 3.97,0.059 0.04,-5.36 0.02,-10.72 0.04,-16.07 -13.96,-0.02 -27.93,0.05 -41.89,-0.029 0.02,0.679 0.05,2.049 0.06,2.739 1.9,0.13 3.81,0.27 5.71,0.431 0.6,1.75 1.11,3.559 1.02,5.429 C 6.69,-30.18 6.86,-16.8 6.68,-3.43 6.55,-0.24 2.4,-0.189 0,0" /></g><g
           transform="translate(322.958,95.8496)"
           id="g60"><path
             id="path62"
             style="fill:#ffffff;fill-opacity:1;fill-rule:nonzero;stroke:none"
             d="m 0,0 c 7.41,-0.061 14.83,-0.101 22.24,0.01 0.04,-0.56 0.12,-1.68 0.16,-2.24 -2.5,-0.14 -4.96,-0.57 -7.349,-1.3 -0.601,-15.91 -0.141,-31.85 -0.24,-47.77 6.149,0.19 12.359,-0.43 18.469,0.38 5.35,1.51 4.7,8.04 5.111,12.41 1.469,0.05 2.939,0.09 4.42,0.13 0.009,-4.63 -0.01,-9.26 0.009,-13.9 2.29,0.219 4.691,0.31 6.75,1.469 0.77,9.021 0.281,18.131 0.29,27.181 0.01,3.54 -4.53,3.15 -6.969,3.529 0.049,0.841 0.099,1.671 0.16,2.5 4.38,-0.059 8.769,-0.059 13.149,-0.009 0.53,-11.201 -0.74,-22.5 0.78,-33.64 2.13,-0.42 4.27,-0.79 6.44,-1.03 0.051,-0.56 0.16,-1.66 0.21,-2.21 -21.21,0.15 -42.43,0.07 -63.64,0.08 0,0.57 0.01,1.7 0.01,2.26 2.32,0.27 4.63,0.6 6.94,0.94 0.491,2.109 0.9,4.25 0.84,6.43 -0.07,13.03 0.01,26.06 -0.05,39.1 -0.27,0.6 -0.799,1.82 -1.07,2.43 -2.2,0.55 -4.45,0.83 -6.71,0.97 0.01,0.57 0.04,1.71 0.05,2.28" /></g><g
           transform="translate(166.7983,88.7197)"
           id="g64"><path
             id="path66"
             style="fill:#ffffff;fill-opacity:1;fill-rule:nonzero;stroke:none"
             d="m 0,0 c 2.09,0.92 4.17,1.859 6.22,2.85 0.11,-4.44 0.04,-8.88 0.09,-13.33 2.99,-0.03 5.99,-0.03 8.99,0 -0.02,-1.13 -0.04,-2.25 -0.06,-3.38 -2.98,0.02 -5.97,0.02 -8.95,-0.01 -0.04,-8.66 0.03,-17.33 -0.02,-26 0.86,-1.691 1.26,-4.09 3.28,-4.79 2.44,-1.021 5.05,0.28 7.48,0.76 0.11,-0.55 0.33,-1.65 0.43,-2.201 -3.87,-1.519 -7.96,-2.359 -12.13,-2.04 -2.47,1.37 -4.88,3.401 -5.07,6.431 -0.55,9.26 -0.08,18.56 -0.26,27.84 -2.01,0.019 -4.01,0.019 -6.02,0.01 -0.03,1.12 -0.06,2.24 -0.08,3.36 2.04,-0.01 4.08,-0.021 6.12,-0.01 C 0.01,-7.01 0.01,-3.5 0,0" /></g><g
           transform="translate(72.9585,75.4297)"
           id="g68"><path
             id="path70"
             style="fill:#ffffff;fill-opacity:1;fill-rule:nonzero;stroke:none"
             d="m 0,0 c -4.48,-1.54 -5.78,-6.73 -6.24,-10.92 -0.33,-5.09 -0.62,-10.41 1.13,-15.29 2.24,-7.811 14.95,-7.601 17.99,-0.5 1.12,5.74 0.89,11.59 0.85,17.399 0.01,3.071 -1.06,6.371 -3.65,8.201 C 7.12,0.8 3.32,0.51 0,0 M -2.93,2.729 C 1.76,3.76 6.88,3.68 11.26,1.5 c 2.98,-1.72 5.91,1.05 8.72,1.859 -0.02,-14.899 0,-29.809 -0.01,-44.71 0.01,-3.129 -0.27,-6.379 0.91,-9.359 2.08,-0.391 4.16,-0.8 6.25,-1.181 l -0.11,-1.679 c -6.79,0.049 -13.58,0.049 -20.37,0 l -0.32,1.69 c 2.17,0.44 4.34,0.84 6.52,1.22 1.57,6.08 0.63,12.4 0.93,18.59 -0.2,0.24 -0.6,0.719 -0.8,0.96 -2.16,-1.741 -4.71,-2.84 -7.36,-3.6 -4.88,-0.391 -10.42,-0.34 -14.14,3.37 -5.29,5.14 -5.19,13.05 -4.7,19.87 0.28,6.17 4.08,12.51 10.29,14.199" /></g><g
           transform="translate(194.8682,58.6494)"
           id="g72"><path
             id="path74"
             style="fill:#ffffff;fill-opacity:1;fill-rule:nonzero;stroke:none"
             d="m 0,0 c -4.26,-2.14 -3.54,-7.81 -2.74,-11.689 2.34,-4.391 8.61,-4.051 12.4,-1.971 3.79,3.78 1.98,9.86 2.41,14.65 C 8.08,0.76 3.79,1.59 0,0 m -6.45,16.33 c 4.11,4.32 10.64,3.95 16.1,3.6 4.1,-0.13 8.01,-3.22 8.43,-7.43 0.84,-8.81 -0.62,-17.75 1.03,-26.5 1.91,-0.38 3.82,-0.76 5.74,-1.11 0.01,-0.53 0.05,-1.59 0.07,-2.11 -4.16,-0.009 -8.32,0.02 -12.47,-0.08 -0.03,0.74 -0.09,2.23 -0.12,2.97 -4.3,-3.67 -10.42,-4.63 -15.77,-2.99 -8.77,1.94 -9.25,16.89 -0.83,19.7 5.27,1.74 10.88,1.35 16.34,1.31 -0.32,3.89 0.98,8.331 -1.28,11.8 -2.86,2.59 -7.42,2.86 -10.84,1.26 -2.92,-1.84 -2.44,-5.81 -3.02,-8.76 -1.64,-0.03 -3.29,-0.03 -4.93,0 -0.18,2.821 -0.61,6.1 1.55,8.34" /></g><g
           transform="translate(283.9287,74.5693)"
           id="g76"><path
             id="path78"
             style="fill:#ffffff;fill-opacity:1;fill-rule:nonzero;stroke:none"
             d="M 0,0 C -3.29,-3.12 -3.301,-7.99 -3.521,-12.189 2.63,-12.21 8.779,-12.29 14.92,-12.14 14.699,-8.109 14.76,-3.38 11.58,-0.39 8.54,2.66 3.3,2.54 0,0 M -6.53,-0.6 C -2.5,3.88 3.93,4.68 9.609,4.05 14.029,3.8 18.159,0.99 20.02,-3.03 21.88,-6.72 21.85,-10.95 22,-14.99 13.5,-15.01 5.01,-14.979 -3.49,-15 c 0.25,-4.38 -0.09,-9.18 2.479,-12.99 2.641,-3.699 7.901,-3.85 11.901,-2.71 4.009,1.49 4.61,6.12 5.46,9.74 1.66,0.03 3.32,0.03 4.99,-0.01 -0.3,-5.28 -3.611,-10.469 -8.851,-12 -5.699,-1.77 -12.54,-1.61 -17.46,2.111 -3.8,3.259 -5.16,8.519 -5.25,13.349 -0.21,5.76 -0.689,12.44 3.691,16.91" /></g><g
           transform="translate(423.4687,76.4297)"
           id="g80"><path
             id="path82"
             style="fill:#ffffff;fill-opacity:1;fill-rule:nonzero;stroke:none"
             d="M 0,0 C -0.58,-0.24 -1.761,-0.71 -2.351,-0.95 -6.521,-3.96 -6.96,-9.34 -6.98,-14.061 -0.841,-14.08 5.3,-14.16 11.439,-14.01 11.409,-9.95 11.17,-5.3 8.14,-2.23 6,-0.061 2.85,0.12 0,0 m -11.671,-4.8 c 2.45,4.48 7.601,6.989 12.601,7.07 4.58,0.35 9.689,-0.161 13.099,-3.61 4.151,-3.95 4.401,-10.15 4.361,-15.511 -8.43,0.011 -16.87,-0.019 -25.3,0 0.22,-4.379 -0.24,-9.219 2.41,-13 2.649,-3.629 7.85,-3.839 11.829,-2.729 2.711,0.84 3.811,3.68 4.961,5.99 0.109,1.239 0.23,2.48 0.359,3.71 1.67,0.069 3.361,0.109 5.05,0.109 -0.05,-4.169 -2.029,-8.389 -5.639,-10.609 -5.13,-3.011 -11.661,-3.221 -17.191,-1.24 -5.779,2.11 -8.25,8.66 -8.609,14.33 -0.21,5.189 -0.781,10.859 2.069,15.49" /></g><g
           transform="translate(95.0483,78.1992)"
           id="g84"><path
             id="path86"
             style="fill:#ffffff;fill-opacity:1;fill-rule:nonzero;stroke:none"
             d="m 0,0 c 4.55,0.011 9.11,0.141 13.64,-0.37 0.01,-9.39 -0.31,-18.8 0.17,-28.18 0.25,-5.599 7.17,-6.78 11.48,-5.29 4.36,0.811 5.74,5.79 5.83,9.62 0.11,6.821 0.34,13.68 -0.26,20.491 -1.99,0.889 -4.15,1.219 -6.31,1.389 0.05,0.59 0.16,1.771 0.21,2.361 C 29.08,0 33.42,0.17 37.72,-0.39 37.8,-11.42 37.38,-22.47 37.97,-33.479 40.19,-34 42.43,-34.38 44.69,-34.66 l -0.05,-2.159 c -4.49,0.049 -8.97,0.08 -13.45,-0.031 -0.01,1.43 -0.02,2.84 -0.02,4.26 -4.47,-4.349 -10.93,-5.59 -16.96,-4.93 -2.81,1.26 -6.11,2.791 -6.72,6.161 C 6.45,-26.37 7.23,-21.189 7,-16.12 6.76,-11.689 7.8,-6.989 5.82,-2.83 3.85,-2.68 1.87,-2.54 -0.11,-2.42 -0.08,-1.819 -0.03,-0.609 0,0" /></g><g
           transform="translate(141.6382,78.1797)"
           id="g88"><path
             id="path90"
             style="fill:#ffffff;fill-opacity:1;fill-rule:nonzero;stroke:none"
             d="m 0,0 c 4.42,0.04 8.84,0.17 13.25,-0.19 0.07,-10.36 -0.16,-20.72 0.1,-31.07 -0.03,-3.591 4.57,-2.86 6.98,-3.37 -0.01,-0.551 -0.04,-1.641 -0.06,-2.19 -6.8,0.12 -13.6,0.09 -20.39,0.009 0.01,0.54 0.03,1.63 0.04,2.17 2.14,0.311 4.27,0.691 6.39,1.131 0.65,9.869 0.42,19.81 0.12,29.699 -2.11,0.761 -4.3,1.201 -6.51,1.42 C -0.06,-1.79 -0.02,-0.601 0,0" /></g></g></g></g></svg>