<?xml version="1.0" encoding="UTF-8" standalone="no"?>
<svg
   xmlns:dc="http://purl.org/dc/elements/1.1/"
   xmlns:cc="http://creativecommons.org/ns#"
   xmlns:rdf="http://www.w3.org/1999/02/22-rdf-syntax-ns#"
   xmlns:svg="http://www.w3.org/2000/svg"
   xmlns="http://www.w3.org/2000/svg"
   viewBox="0 0 1413.4268 261.452"
   height="261.452"
   width="1413.4268"
   xml:space="preserve"
   id="svg2"
   version="1.1"><metadata
     id="metadata8"><rdf:RDF><cc:Work
         rdf:about=""><dc:format>image/svg+xml</dc:format><dc:type
           rdf:resource="http://purl.org/dc/dcmitype/StillImage" /></cc:Work></rdf:RDF></metadata><defs
     id="defs6"><clipPath
       id="clipPath18"
       clipPathUnits="userSpaceOnUse"><path
         id="path16"
         d="M 0,196.089 H 1060.068 V 0 H 0 Z" /></clipPath></defs><g
     transform="matrix(1.3333333,0,0,-1.3333333,0,261.452)"
     id="g10"><g
       id="g12"><g
         clip-path="url(#clipPath18)"
         id="g14"><g
           transform="translate(94.1875,127.9068)"
           id="g20"><path
             id="path22"
             style="fill:#ffffff;fill-opacity:1;fill-rule:nonzero;stroke:none"
             d="m 0,0 c -0.06,-37.79 -0.01,-75.59 -0.02,-113.39 9.55,9.31 19.13,18.59 28.71,27.89 C 28.66,-47.72 28.7,-9.94 28.67,27.83 19.06,18.61 9.58,9.25 0,0 m -47.18,0 c -0.04,-37.82 -0.01,-75.65 -0.02,-113.47 9.56,9.32 19.1,18.66 28.71,27.92 0.01,37.8 0.03,75.59 -0.01,113.39 C -28.1,18.6 -37.59,9.25 -47.18,0 m 94.61,0.43 c -0.12,-37.82 -0.02,-75.639 -0.05,-113.46 9.58,9.31 19.16,18.63 28.74,27.95 C 76.06,-47.31 76.11,-9.55 76.09,28.21 66.53,18.96 57,9.67 47.43,0.43 M -94.18,68.17 c 63.99,0.01 127.99,0.02 191.98,0 0.01,-64.1 0,-128.2 0,-192.299 -63.99,-0.011 -127.99,-0.011 -191.98,0 -0.01,64.099 -0.01,128.199 0,192.299" /></g><g
           transform="translate(819.3179,148.5172)"
           id="g24"><path
             id="path26"
             style="fill:#ffffff;fill-opacity:1;fill-rule:nonzero;stroke:none"
             d="m 0,0 c 3.729,0.68 7.55,0.46 11.33,0.45 0.01,-39.3 0.01,-78.6 0,-117.901 0.23,-5.67 -0.761,-12.009 2.42,-17.059 2.12,-3.031 6.14,-2.97 9.439,-3.27 -0.009,-2.22 -0.009,-4.45 -0.009,-6.69 -16.63,0 -33.271,-0.01 -49.901,0.01 -0.009,2.24 -0.009,4.48 -0.009,6.71 3.45,0.18 7.52,0.1 10,2.94 2.52,3.55 2.33,8.189 2.49,12.34 0.019,26.679 0,53.349 0.01,80.02 -0.05,6.68 0.12,13.36 -0.3,20.03 -0.281,3.23 -0.71,6.97 -3.51,9.04 -2.36,2.01 -5.62,1.76 -8.49,1.77 -0.42,2.25 -0.84,4.51 -1.241,6.75 9.22,1.78 18.5,3.28 27.771,4.86" /></g><g
           transform="translate(870.6675,148.317)"
           id="g28"><path
             id="path30"
             style="fill:#ffffff;fill-opacity:1;fill-rule:nonzero;stroke:none"
             d="M 0,0 C 7.61,2.47 16.51,-2.11 18.84,-9.77 21.72,-17.67 16.56,-27.03 8.53,-29.19 0.92,-31.63 -7.9,-26.75 -10.09,-19.12 -12.8,-11.4 -7.9,-2.12 0,0" /></g><g
           transform="translate(932.3774,132.857)"
           id="g32"><path
             id="path34"
             style="fill:#ffffff;fill-opacity:1;fill-rule:nonzero;stroke:none"
             d="M 0,0 C 9.13,11.02 23.74,16.43 37.84,16.03 44.39,15.99 51.44,14.46 56.18,9.61 61,4.78 61.13,-4.23 55.73,-8.68 51.67,-11.77 45.43,-12.52 41.23,-9.31 37.14,-6.35 35.13,-1.52 31.771,2.11 28.13,5.89 21.18,4.98 18.32,0.69 c -2.21,-3.25 -2.65,-7.3 -2.96,-11.12 -0.29,-7.14 -0.1,-14.29 -0.15,-21.44 6.27,-0.02 12.53,0 18.811,-0.01 0,-4.02 0,-8.04 -0.011,-12.06 -6.27,-0.01 -12.54,0.01 -18.8,-0.01 0.04,-21.64 -0.07,-43.28 0.05,-64.92 0.24,-4.171 0.35,-9.62 4.57,-11.84 4.42,-2.06 9.47,-1.07 14.191,-1.3 -0.011,-2.26 -0.011,-4.52 0,-6.79 -20.081,-0.01 -40.161,-0.01 -60.241,-0.01 -0.009,2.269 -0.009,4.54 0,6.79 4.491,0.15 9.93,-0.78 13.41,2.79 2.65,3.52 2.48,8.22 2.65,12.4 0.02,20.96 0.01,41.92 0,62.88 -5.35,0.02 -10.71,0 -16.06,0.01 -0.009,4.02 -0.009,8.04 0,12.06 5.35,0.01 10.69,0 16.04,0.01 C -10.61,-20.51 -7.56,-8.71 0,0" /></g><g
           transform="translate(244.5976,146.4469)"
           id="g36"><path
             id="path38"
             style="fill:#ffffff;fill-opacity:1;fill-rule:nonzero;stroke:none"
             d="m 0,0 h 54.95 c 16.45,-34.47 32.83,-68.98 49.29,-103.45 16.17,34.46 32.62,68.8 48.66,103.33 18.52,0.28 37.04,0.05 55.56,0.11 -0.01,-2.23 -0.01,-4.46 -0.01,-6.7 -5.97,-0.21 -12.4,0.33 -17.81,-2.64 -3.6,-2 -5.35,-6.07 -6.01,-9.95 -0.89,-5.32 -0.64,-10.73 -0.69,-16.1 0.02,-26.32 -0.04,-52.64 0.03,-78.96 0.15,-5.88 0.24,-12.57 4.54,-17.099 5.42,-4.851 13.21,-4.041 19.95,-4.141 -0.01,-2.26 0,-4.52 0,-6.79 -26.07,-0.01 -52.15,-0.02 -78.22,0 v 6.78 c 6.02,0.12 12.56,-0.55 17.96,2.66 3.67,2.15 5.32,6.43 5.95,10.43 0.77,5.351 0.58,10.77 0.62,16.16 -0.06,28.45 0.09,56.9 -0.08,85.35 -19.19,-40.38 -37.97,-80.949 -57.02,-121.4 -2.2,0.01 -4.4,0.02 -6.6,0.06 -19.03,39.74 -37.94,79.54 -57.17,119.18 -0.16,-28.75 -0.01,-57.51 -0.07,-86.27 0.29,-7.88 -1.04,-18.17 6.32,-23.37 5.04,-3.16 11.23,-2.72 16.94,-2.81 -0.01,-2.25 0,-4.5 0,-6.77 -18.95,-0.029 -37.91,0 -56.86,-0.01 -0.01,2.26 -0.01,4.53 -0.01,6.78 5.41,0.09 11.22,-0.32 16.11,2.43 3.33,1.75 5.15,5.32 5.95,8.84 1.04,4.59 0.91,9.31 0.98,13.97 -0.01,25.99 -0.01,51.99 0,77.98 -0.08,5.18 0.13,10.48 -1.28,15.52 -0.89,3.25 -2.87,6.34 -5.97,7.84 C 11.07,-6.56 5.37,-6.92 0,-6.7 Z" /></g><g
           transform="translate(484.6377,44.5773)"
           id="g40"><path
             id="path42"
             style="fill:#ffffff;fill-opacity:1;fill-rule:nonzero;stroke:none"
             d="m 0,0 c -7.8,-8.221 -3.13,-24.78 8.52,-26.3 8.11,0.02 15.23,5 21.24,10.01 0.01,10.18 0,20.359 0,30.529 C 19.53,10.39 7.72,8.399 0,0 m -9.03,55.04 c 11.16,5.74 24.19,6.28 36.43,4.88 8.38,-1.23 17.46,-3.66 23.11,-10.42 4.659,-5.55 4.71,-13.21 4.61,-20.07 0.06,-16.991 -0.17,-33.991 0.12,-50.97 -0.04,-2.79 0.79,-7 4.36,-6.92 4.64,0.25 7.73,4.3 10.76,7.34 1.15,-1.641 2.29,-3.3 3.36,-5.01 -5.2,-7.221 -11.62,-14.29 -20.28,-17.2 -6.41,-2.09 -14.38,-1.79 -19.37,3.24 -3.58,3.38 -4.54,8.5 -4.38,13.22 -6.55,-5.981 -14.03,-10.891 -21.96,-14.83 -8.03,-4.12 -18.43,-3.92 -25.86,1.41 -9.44,7.12 -11.85,20.87 -8.21,31.649 C -23.69,-0.69 -16.8,4.83 -9.62,8.59 2.85,15.109 16.53,18.71 29.75,23.33 29.54,30 30.3,36.76 29.04,43.35 28.3,47.5 24.88,50.91 20.69,51.52 15.5,52.41 9.8,52.55 5.01,50.05 1.87,48.5 -0.22,45.06 0.03,41.54 0.11,37.91 0.47,33.95 -1.59,30.729 -4.64,25.489 -12.25,24.62 -17.15,27.64 c -3.89,2.469 -5.28,7.5 -4.46,11.86 0.97,7.02 6.49,12.47 12.58,15.54" /></g><g
           transform="translate(588.0571,104.527)"
           id="g44"><path
             id="path46"
             style="fill:#ffffff;fill-opacity:1;fill-rule:nonzero;stroke:none"
             d="m 0,0 c 3.75,1.03 7.66,0.59 11.5,0.64 0,-4.86 0.011,-9.71 -0.01,-14.57 8.58,7.46 19,13.62 30.571,14.41 9.549,0.87 19.889,-2.27 26.149,-9.8 4.66,-5.61 5.78,-13.13 6.16,-20.18 0.66,-15.31 0.221,-30.65 0.34,-45.97 0.141,-5.06 -0.439,-10.65 2.391,-15.13 2.719,-3.34 7.45,-3.04 11.349,-3.12 -0.01,-2.23 0,-4.46 0.04,-6.69 -17.42,-0.16 -34.84,-0.03 -52.26,-0.07 v 6.74 c 3.75,0.12 8.331,0.01 10.84,3.35 2.21,3.52 2.13,7.88 2.271,11.89 -0.03,14 0.119,28 -0.111,41.99 -0.169,4.39 -0.2,8.97 -2.11,13.02 -2.12,4.5 -7.01,7.4 -11.95,7.4 -8.71,0.11 -16.859,-3.91 -23.609,-9.13 -0.13,-17.76 -0.031,-35.52 -0.05,-53.27 0.12,-4.1 0.029,-8.62 2.42,-12.16 3.149,-3.66 8.46,-2.94 12.79,-3.05 0,-2.25 0,-4.51 0.009,-6.77 -17.969,-0.03 -35.94,0 -53.91,-0.01 -0.019,2.25 -0.019,4.5 -0.019,6.74 3.659,0.11 8.04,-0.04 10.639,3.04 2.441,3.53 2.331,8.06 2.47,12.17 0.01,15.36 0.05,30.71 -0.019,46.07 -0.231,5.07 0.149,10.61 -2.54,15.12 -2.3,3.59 -7,3.71 -10.771,3.09 0.021,2.49 0.021,4.98 0.03,7.47 C -18.26,-4.51 -9.119,-2.31 0,0" /></g><g
           transform="translate(875.7778,104.6769)"
           id="g48"><path
             id="path50"
             style="fill:#ffffff;fill-opacity:1;fill-rule:nonzero;stroke:none"
             d="m 0,0 c 3.71,0.84 7.55,0.44 11.33,0.49 0.01,-26.38 -0.011,-52.76 0.01,-79.139 0.12,-4 0.05,-8.33 2.22,-11.861 2.629,-3.71 7.71,-3.24 11.719,-3.35 -0.009,-2.25 -0.009,-4.51 0.011,-6.76 -18.261,-0.01 -36.511,-0.01 -54.761,-0.01 0,2.27 0,4.53 0.011,6.79 4.35,0.09 9.77,-0.62 12.87,3.16 2.44,3.85 2.22,8.63 2.35,13.01 -0.05,16.32 0.12,32.65 -0.1,48.97 -0.29,4.62 -0.16,10.04 -3.671,13.57 -2.719,2.71 -6.849,2.2 -10.219,1.33 -0.55,2.29 -1.1,4.58 -1.64,6.87 C -19.931,-4.55 -9.96,-2.32 0,0" /></g><g
           transform="translate(1002.1675,91.067)"
           id="g52"><path
             id="path54"
             style="fill:#ffffff;fill-opacity:1;fill-rule:nonzero;stroke:none"
             d="m 0,0 c -5.33,-5.01 -7.42,-12.41 -8.14,-19.48 12.36,-0.01 24.72,-0.01 37.08,0 0.04,7.28 -1.2,15.37 -6.78,20.57 C 16.05,6.76 5.771,5.55 0,0 m -19.74,-2.2 c 7.94,10.31 20.88,16.15 33.79,16.24 12.1,0.5 24.88,-3.73 32.81,-13.21 7.4,-8.48 10,-20.08 9.75,-31.11 -21.51,-0.02 -43.01,0 -64.52,-0.01 0.85,-12.36 5.41,-25.45 15.77,-33 8.8,-6.67 21.38,-6.86 30.911,-1.6 5.919,3.09 10.599,8.13 14.009,13.81 1.7,-0.98 3.4,-1.95 5.12,-2.93 -3.37,-11.15 -10.45,-21.03 -19.39,-28.42 -14.29,-11.54 -36.489,-11.39 -50.739,0.14 -11.301,8.9 -17.151,23.16 -18.361,37.21 -1.35,14.9 1.42,30.89 10.85,42.88" /></g><g
           transform="translate(677.7974,100.9772)"
           id="g56"><path
             id="path58"
             style="fill:#ffffff;fill-opacity:1;fill-rule:nonzero;stroke:none"
             d="m 0,0 c 11.91,0.01 23.82,0.01 35.73,0 0.041,-21.3 -0.06,-42.61 0.05,-63.911 0.241,-5.539 0.12,-12.029 4.54,-16.099 5.15,-5.09 13.37,-5.111 19.73,-2.5 4.7,2 9.27,4.42 13.341,7.52 -0.101,18.38 0.069,36.76 -0.08,55.13 -0.21,3.9 -0.351,8.57 -3.661,11.21 -3.7,2.41 -8.379,1.67 -12.56,1.87 -0.01,2.27 -0.01,4.52 0,6.78 13.95,0 27.9,0.01 41.85,-0.01 0.07,-23.95 -0.15,-47.91 0.121,-71.861 0.239,-3.909 -0.271,-8.649 2.879,-11.589 3.17,-2.55 7.42,-0.93 10.951,-0.21 0,-2.36 0,-4.73 0.019,-7.09 -9.38,-3.17 -18.809,-6.14 -28.19,-9.29 -3.63,-1.4 -7.57,-0.77 -11.35,-0.87 -0.019,4.92 0.01,9.839 -0.03,14.75 -8.949,-7.72 -19.87,-13.93 -31.89,-14.69 -11.36,-0.96 -23.309,5.34 -28.01,15.91 -3.1,7.23 -3.22,15.26 -3.27,23 -0.069,13.36 0,26.73 -0.04,40.1 -0.12,4.09 -0.109,8.58 -2.529,12.08 -1.741,2.42 -4.921,2.7 -7.611,3.05 -0.01,2.25 0,4.48 0.01,6.72" /></g></g></g></g></svg>