<?xml version="1.0" encoding="UTF-8" standalone="no"?>
<svg
   xmlns:dc="http://purl.org/dc/elements/1.1/"
   xmlns:cc="http://creativecommons.org/ns#"
   xmlns:rdf="http://www.w3.org/1999/02/22-rdf-syntax-ns#"
   xmlns:svg="http://www.w3.org/2000/svg"
   xmlns="http://www.w3.org/2000/svg"
   viewBox="0 0 725.33331 298.66666"
   height="298.66666"
   width="725.33331"
   xml:space="preserve"
   id="svg2"
   version="1.1"><metadata
     id="metadata8"><rdf:RDF><cc:Work
         rdf:about=""><dc:format>image/svg+xml</dc:format><dc:type
           rdf:resource="http://purl.org/dc/dcmitype/StillImage" /></cc:Work></rdf:RDF></metadata><defs
     id="defs6"><clipPath
       id="clipPath18"
       clipPathUnits="userSpaceOnUse"><path
         id="path16"
         d="M 0,224 H 544 V 0 H 0 Z" /></clipPath></defs><g
     transform="matrix(1.3333333,0,0,-1.3333333,0,298.66667)"
     id="g10"><g
       id="g12"><g
         clip-path="url(#clipPath18)"
         id="g14"><g
           transform="translate(20.457,199.2231)"
           id="g20"><path
             id="path22"
             style="fill:#ffffff;fill-opacity:1;fill-rule:nonzero;stroke:none"
             d="m 0,0 c 25.268,-11.699 50.559,-23.375 75.837,-35.062 -0.082,-11.427 -0.094,-22.866 0.013,-34.305 -14.929,6.897 -29.846,13.805 -44.774,20.69 0.011,-23.6 -0.012,-47.187 0.011,-70.786 14.929,-6.873 29.834,-13.829 44.774,-20.666 -0.118,-11.44 -0.142,-22.89 0.012,-34.329 -25.303,11.64 -50.546,23.421 -75.861,35.05 C -0.047,-92.942 -0.023,-46.465 0,0" /></g><g
           transform="translate(336.6416,169.2832)"
           id="g24"><path
             id="path26"
             style="fill:#ffffff;fill-opacity:1;fill-rule:nonzero;stroke:none"
             d="m 0,0 c -2.058,-4.791 -3.938,-9.641 -5.926,-14.443 3.88,-0.024 7.772,-0.036 11.663,-0.012 C 3.75,-9.665 1.846,-4.838 0,0 m -9.356,24.711 c 4.329,0.06 8.659,0.06 13,0.024 8.587,-20.831 17.223,-41.651 25.835,-62.47 -4.838,0.011 -9.665,0.024 -14.491,-0.024 -1.503,3.525 -2.945,7.086 -4.305,10.67 -7.217,0.095 -14.433,0.047 -21.636,0.035 -1.42,-3.536 -2.852,-7.073 -4.247,-10.622 h -14.538 c 7.949,18.075 15.933,36.138 23.847,54.237 -1.171,2.709 -2.318,5.43 -3.465,8.15" /></g><g
           transform="translate(202.5571,131.666)"
           id="g28"><path
             id="path30"
             style="fill:#ffffff;fill-opacity:1;fill-rule:nonzero;stroke:none"
             d="M 0,0 C -0.036,20.938 -0.059,41.876 0.012,62.813 8.15,56.521 16.431,50.417 24.581,44.159 c 1.041,-0.71 2.449,-2.165 3.679,-0.852 8.695,6.412 17.235,13.024 25.894,19.495 -0.011,-20.95 0.012,-41.9 -0.011,-62.861 H 40.314 C 40.255,11.9 40.35,23.86 40.267,35.819 35.89,32.448 31.454,29.159 26.971,25.918 c -4.366,3.3 -8.754,6.554 -13.143,9.83 -0.071,-11.936 0,-23.871 -0.035,-35.807 C 9.191,-0.071 4.59,-0.012 0,0" /></g><g
           transform="translate(376.708,188.9434)"
           id="g32"><path
             id="path34"
             style="fill:#ffffff;fill-opacity:1;fill-rule:nonzero;stroke:none"
             d="m 0,0 c 5.891,5.974 15.39,6.009 22.83,3.241 -1.715,-3.868 -3.466,-7.724 -5.24,-11.557 -2.579,0.71 -5.844,2.248 -8.104,-0.023 -2.377,-2.437 -1.241,-6.175 -1.537,-9.216 2.768,0.036 5.525,-0.023 8.304,0 -0.024,-3.927 -0.024,-7.854 0,-11.781 -2.768,0.023 -5.524,-0.048 -8.292,-0.024 0.047,-9.345 0.023,-18.69 0.023,-28.036 -4.258,0.012 -8.505,0.012 -12.74,0 -0.012,9.346 -0.035,18.691 0.012,28.024 -1.904,0.012 -3.785,0.059 -5.678,0.071 0.012,3.904 0.012,7.807 0,11.711 1.881,0.012 3.762,0.059 5.654,0.059 C -5.063,-11.427 -4.626,-4.566 0,0" /></g><g
           transform="translate(266.5298,169.0229)"
           id="g36"><path
             id="path38"
             style="fill:#ffffff;fill-opacity:1;fill-rule:nonzero;stroke:none"
             d="M 0,0 C 6.708,9.535 20.595,12.326 30.898,7.37 35.263,5.312 38.433,1.538 41.177,-2.318 37.711,-4.4 34.222,-6.458 30.78,-8.576 c -2.461,3.3 -5.572,7.003 -10.126,6.719 -7.524,0.828 -13.971,-6.778 -12.385,-14.077 0.875,-7.145 9.191,-11.936 15.827,-9.203 2.982,0.982 4.803,3.667 6.554,6.068 3.513,-2.07 7.026,-4.163 10.527,-6.245 -3.028,-4.602 -7.156,-8.636 -12.431,-10.493 -10.068,-3.868 -22.82,-0.627 -28.959,8.481 C -5.903,-19.353 -5.844,-7.878 0,0" /></g><g
           transform="translate(410.1133,160.979)"
           id="g40"><path
             id="path42"
             style="fill:#ffffff;fill-opacity:1;fill-rule:nonzero;stroke:none"
             d="M 0,0 C 6.802,-0.154 13.616,-0.142 20.418,0 18.146,3.845 14.195,7.098 9.476,6.625 5.217,6.636 1.94,3.501 0,0 m -11.072,4.128 c 3.289,7.181 10.493,12.279 18.312,13.19 10.303,1.751 21.269,-4.436 25.137,-14.136 1.964,-4.306 1.928,-9.132 1.964,-13.769 -11.546,-0.106 -23.091,0.189 -34.624,-0.047 1.856,-3.916 5.287,-7.382 9.83,-7.689 4.093,-0.675 7.878,1.36 10.906,3.927 3.454,-1.846 6.885,-3.703 10.339,-5.56 -5.288,-5.997 -13.107,-9.984 -21.222,-9.451 -6.967,0.378 -13.947,3.572 -18.123,9.274 -5.228,6.813 -6.281,16.525 -2.519,24.261" /></g><g
           transform="translate(461.8076,160.9556)"
           id="g44"><path
             id="path46"
             style="fill:#ffffff;fill-opacity:1;fill-rule:nonzero;stroke:none"
             d="M 0,0 C 6.813,-0.083 13.627,-0.249 20.44,-0.036 18.453,2.839 16.017,5.855 12.326,6.388 7.216,7.725 2.177,4.554 0,0 m -6.932,10.22 c 8.328,8.967 23.777,9.913 32.921,1.656 6.613,-5.358 8.943,-14.242 8.351,-22.452 -11.533,-0.023 -23.067,0.095 -34.601,-0.059 1.799,-4.045 5.466,-7.488 10.079,-7.712 4.034,-0.58 7.701,1.467 10.682,3.986 3.407,-1.892 6.837,-3.773 10.291,-5.631 -5.736,-6.458 -14.479,-10.551 -23.196,-9.226 -8.032,0.851 -15.497,6.021 -18.762,13.449 -4.069,8.458 -2.283,19.247 4.235,25.989" /></g><g
           transform="translate(96.2944,164.1611)"
           id="g48"><path
             id="path50"
             style="fill:#ffffff;fill-opacity:1;fill-rule:nonzero;stroke:none"
             d="m 0,0 c 25.244,11.747 50.535,23.363 75.791,35.074 0.035,-46.477 0.047,-92.943 -0.012,-139.408 -25.256,-11.652 -50.523,-23.315 -75.743,-35.062 -0.154,11.439 -0.13,22.889 -0.012,34.329 14.869,6.92 29.762,13.781 44.655,20.653 0.036,23.612 0,47.211 0.012,70.81 C 29.81,-20.536 14.87,-27.337 0.012,-34.305 -0.094,-22.866 -0.083,-11.427 0,0" /></g><g
           transform="translate(211.1333,110.835)"
           id="g52"><path
             id="path54"
             style="fill:#ffffff;fill-opacity:1;fill-rule:nonzero;stroke:none"
             d="m 0,0 c 9.452,5.051 20.891,2.792 30.259,-1.325 -1.396,-3.229 -2.756,-6.47 -4.045,-9.747 -5.726,1.869 -11.889,4.625 -17.957,2.732 -3.798,-1.372 -4.874,-6.932 -1.68,-9.499 6.139,-4.708 14.255,-6.399 19.767,-12.054 6.967,-7.239 5.015,-21.044 -4.247,-25.468 -9.451,-4.602 -20.985,-3.443 -30.484,0.52 0,3.963 -0.012,7.926 0,11.889 7.015,-2.827 14.786,-6.4 22.476,-4.188 4.424,1.088 5.264,7.594 1.632,10.09 -6.719,5.253 -16.478,6.637 -21.115,14.445 C -9.889,-15.272 -7.807,-4.223 0,0" /></g><g
           transform="translate(251.1396,112.7749)"
           id="g56"><path
             id="path58"
             style="fill:#ffffff;fill-opacity:1;fill-rule:nonzero;stroke:none"
             d="m 0,0 c 11.475,-0.13 22.937,0.177 34.399,-0.071 -0.046,-3.407 -0.046,-6.814 -0.023,-10.221 -7.216,-0.059 -14.432,-0.011 -21.647,-0.035 0,-4.318 0,-8.624 -0.012,-12.941 6.707,-0.024 13.414,-0.012 20.134,-0.012 -0.013,-3.478 0,-6.956 0,-10.433 -6.72,-0.024 -13.427,0 -20.146,-0.024 0.035,-5.052 0.035,-10.114 0,-15.178 7.228,-0.023 14.443,0.013 21.671,-0.023 -0.023,-3.489 -0.023,-6.979 -0.012,-10.48 -11.438,0 -22.889,-0.012 -34.328,0.011 C 0.024,-39.605 0.083,-19.802 0,0" /></g><g
           transform="translate(302.9053,107.8066)"
           id="g60"><path
             id="path62"
             style="fill:#ffffff;fill-opacity:1;fill-rule:nonzero;stroke:none"
             d="M 0,0 C 9.96,8.115 24.438,7.015 35.476,1.715 34.067,-1.704 32.695,-5.134 31.359,-8.588 25.35,-5.915 18.323,-2.922 11.853,-5.915 5.016,-9.227 3.075,-17.531 3.004,-24.499 c 0.071,-6.47 0.982,-14.277 6.896,-18.157 7.241,-4.141 15.899,-1.184 23.257,1.052 -0.023,-3.548 -0.023,-7.109 0.024,-10.669 -8.234,-3.171 -17.532,-3.928 -26.072,-1.68 C -1.94,-51.47 -7.937,-42.799 -9.204,-33.809 -11.345,-22.085 -9.677,-8.08 0,0" /></g><g
           transform="translate(346.2119,112.6802)"
           id="g64"><path
             id="path66"
             style="fill:#ffffff;fill-opacity:1;fill-rule:nonzero;stroke:none"
             d="m 0,0 c 4.259,0.083 8.517,0.083 12.787,0.047 0.012,-12.586 -0.083,-25.161 0.024,-37.747 0,-4.471 1.869,-9.771 6.625,-11.095 4.435,-0.971 9.888,-1.314 13.543,1.892 3.088,2.957 3.384,7.547 3.408,11.557 -0.047,11.805 0.035,23.623 -0.06,35.429 4.236,0.189 8.47,0.094 12.694,-0.083 -0.095,-12.941 0,-25.882 -0.036,-38.835 0.107,-6.814 -3.171,-13.829 -9.121,-17.402 -6.186,-3.927 -13.84,-4.258 -20.914,-3.536 -6.376,0.757 -12.68,4.093 -15.933,9.782 -2.899,4.744 -2.922,10.493 -3.005,15.864 0,11.379 0,22.759 -0.012,34.127" /></g><g
           transform="translate(419.9316,102.4834)"
           id="g68"><path
             id="path70"
             style="fill:#ffffff;fill-opacity:1;fill-rule:nonzero;stroke:none"
             d="m 0,0 c -0.023,-5.359 -0.012,-10.729 -0.023,-16.088 3.939,0.095 8.115,-0.26 11.794,1.479 4.376,2.01 5.05,8.505 2.045,11.947 C 9.973,0.473 4.625,-0.095 0,0 m -12.74,10.244 c 10.694,-0.532 21.991,1.81 32.164,-2.46 8.99,-3.597 11.438,-15.958 6.648,-23.765 -1.94,-3.395 -5.347,-5.501 -8.612,-7.441 5.832,-8.553 11.475,-17.224 17.436,-25.693 -4.708,-0.024 -9.416,-0.012 -14.124,-0.012 -4.743,7.535 -9.427,15.106 -14.124,22.677 -2.236,0.012 -4.46,0.035 -6.683,0.035 0.023,-7.57 0.012,-15.142 0.023,-22.712 h -12.717 c 0.013,19.79 0.025,39.581 -0.011,59.371" /></g><g
           transform="translate(461.1807,112.7158)"
           id="g72"><path
             id="path74"
             style="fill:#ffffff;fill-opacity:1;fill-rule:nonzero;stroke:none"
             d="m 0,0 c 11.438,0.236 22.901,-0.071 34.353,-0.012 -0.013,-3.395 -0.013,-6.802 0.011,-10.197 -7.252,-0.094 -14.491,-0.035 -21.742,-0.047 -0.012,-4.318 -0.012,-8.636 -0.012,-12.965 6.707,-0.011 13.426,0 20.133,-0.011 0,-3.467 0,-6.945 0.024,-10.422 -6.719,-0.024 -13.438,-0.012 -20.145,-0.012 -0.012,-5.063 -0.012,-10.126 -0.012,-15.189 7.263,-0.047 14.526,0.083 21.789,-0.094 -0.046,-3.467 -0.059,-6.933 -0.046,-10.399 -11.452,-0.035 -22.89,-0.011 -34.33,0 C 0.047,-39.569 0.083,-19.791 0,0" /></g><g
           transform="translate(502.7842,111.2842)"
           id="g76"><path
             id="path78"
             style="fill:#ffffff;fill-opacity:1;fill-rule:nonzero;stroke:none"
             d="m 0,0 c 2.555,4.33 8.529,-0.733 11.983,1.964 1.538,-2.591 2.496,-5.453 3.407,-8.316 0.899,2.59 1.869,5.145 2.744,7.748 0.651,0.023 1.94,0.083 2.591,0.118 0.036,-3.454 0.059,-6.908 0.059,-10.362 -0.462,0 -1.372,0.023 -1.834,0.023 -0.012,2.532 -0.023,5.052 -0.035,7.571 -1.656,-2.035 -0.958,-7.559 -4.211,-7.582 -1.112,2.472 -1.881,5.063 -2.768,7.606 -0.072,-2.662 -0.142,-5.335 -0.213,-7.997 -3.667,1.266 -0.911,6.565 -1.645,9.464 -1.099,-0.131 -3.311,-0.391 -4.412,-0.521 0.023,-2.839 0.06,-5.69 0.06,-8.529 H 3.727 c 0.035,2.887 0,5.761 0.035,8.636 C 2.827,-0.13 0.946,-0.047 0,0" /></g></g></g></g></svg>