<?xml version="1.0" encoding="UTF-8" standalone="no"?>
<svg
   xmlns:dc="http://purl.org/dc/elements/1.1/"
   xmlns:cc="http://creativecommons.org/ns#"
   xmlns:rdf="http://www.w3.org/1999/02/22-rdf-syntax-ns#"
   xmlns:svg="http://www.w3.org/2000/svg"
   xmlns="http://www.w3.org/2000/svg"
   viewBox="0 0 994.66669 202.66667"
   height="202.66667"
   width="994.66669"
   xml:space="preserve"
   id="svg2"
   version="1.1"><metadata
     id="metadata8"><rdf:RDF><cc:Work
         rdf:about=""><dc:format>image/svg+xml</dc:format><dc:type
           rdf:resource="http://purl.org/dc/dcmitype/StillImage" /></cc:Work></rdf:RDF></metadata><defs
     id="defs6"><clipPath
       id="clipPath18"
       clipPathUnits="userSpaceOnUse"><path
         id="path16"
         d="M 0,152 H 746 V 0 H 0 Z" /></clipPath></defs><g
     transform="matrix(1.3333333,0,0,-1.3333333,0,202.66667)"
     id="g10"><g
       id="g12"><g
         clip-path="url(#clipPath18)"
         id="g14"><g
           transform="translate(652.8848,81.874)"
           id="g20"><path
             id="path22"
             style="fill:#ffffff;fill-opacity:1;fill-rule:nonzero;stroke:none"
             d="m 0,0 c -0.08,-19.38 -0.09,-38.76 0.01,-58.13 5.69,-0.46 11.41,-0.13 17.12,-0.25 6.76,-0.24 13.77,1.67 18.98,6.1 6.11,5.091 9.25,13.14 9.28,20.98 0.36,6.81 -0.56,13.96 -4.36,19.77 C 36.57,-4.06 27.89,0.28 19.3,0.22 12.87,0.17 6.42,0.48 0,0 m -47,-0.01 c -0.07,-19.32 -0.1,-38.639 0.01,-57.969 5,-0.731 10.06,-0.25 15.09,-0.38 8.37,0.21 16.79,-0.461 25.129,0.38 0.081,3.309 0.051,6.629 0.061,9.939 l -1.28,1.28 h -24.89 v 12.8 c 7.37,0.13 14.76,-0.28 22.12,0.24 0.07,3.611 0.06,7.22 0.01,10.83 -7.37,0.281 -14.75,0.06 -22.13,0.13 v 11.401 c 8.34,0.079 16.7,-0.161 25.04,0.109 0.21,0.2 0.64,0.62 0.85,0.83 0.2,3.28 0.25,6.6 -0.06,9.88 -1.28,1.29 -3.27,0.61 -4.87,0.8 -11.69,-0.2 -23.4,0.31 -35.08,-0.27 m -52.86,0.02 c 0.03,-19.15 -0.161,-38.3 0.089,-57.44 0.21,-0.2 0.641,-0.61 0.861,-0.82 3.94,-0.21 7.91,-0.21 11.86,-0.01 0.27,0.27 0.81,0.8 1.07,1.071 0.26,6.479 0.02,12.979 0.1,19.469 h 7.33 c 3.55,-6.87 7.09,-13.74 10.59,-20.639 4.63,0.139 9.29,-0.33 13.89,0.269 0.1,0.401 0.299,1.18 0.4,1.58 -3.67,7.51 -7.83,14.79 -11.66,22.22 10.309,4.87 12.79,19.84 5.49,28.24 -4.52,4.92 -11.5,6.38 -17.92,6.3 -7.37,-0.13 -14.75,0.26 -22.1,-0.24 M -155,-0.01 c -0.1,-12.82 -0.04,-25.639 -0.04,-38.469 0.04,-6.42 2.84,-13.081 8.32,-16.701 6.55,-4.36 15.02,-4.549 22.49,-2.969 8.12,1.859 14.49,9.349 14.69,17.719 -0.01,13.5 0.13,27.01 -0.08,40.51 -4.5,0.25 -9.02,0.25 -13.52,0 -0.24,-12.82 -0.03,-25.65 -0.1,-38.47 -0.02,-3.25 -1.16,-7.02 -4.42,-8.37 -4.69,-1.67 -12.13,-0.77 -13.05,5.17 -0.53,13.67 0.18,27.39 -0.34,41.06 -0.25,0.17 -0.74,0.5 -0.99,0.66 -4.31,0.24 -8.66,0.21 -12.96,-0.14 m -37.311,0.33 c -7.329,-1.7 -13.289,-7.4 -15.809,-14.41 -2.71,-6.76 -2.21,-14.17 -2.01,-21.29 0.7,-9.51 6.1,-19.47 15.68,-22.42 8.55,-2.41 18.79,-1.65 25.69,4.441 4.28,3.739 6.32,9.38 6.82,14.92 -0.3,0.239 -0.89,0.729 -1.19,0.979 -4.2,0.271 -8.41,0.021 -12.61,0.101 -0.37,-2.891 -0.72,-6.221 -3.21,-8.151 -3.21,-2.38 -7.75,-2.28 -11.4,-1.11 -4.73,2.391 -5.61,8.2 -5.89,12.96 -0.01,6.16 -0.7,12.79 2.219,18.46 2.671,5.06 9.821,5.66 14.441,3.11 3.1,-1.84 3.519,-5.7 3.92,-8.93 4.53,0.51 9.43,-0.82 13.75,0.75 -0.42,6.081 -2.89,12.28 -7.68,16.23 -6.28,5.06 -15.04,6.01 -22.721,4.36 M -255.5,-3.27 c 0.189,-18.36 -0.29,-36.73 0.25,-55.07 13.2,0.03 26.41,-0.16 39.6,0.1 0.2,3.77 0.18,7.551 0.03,11.32 -8.691,0.36 -17.401,0.061 -26.09,0.16 v 12.8 c 7.16,0.13 14.34,-0.26 21.48,0.18 0.19,0.2 0.58,0.6 0.77,0.801 -0.02,3.25 1.07,7.259 -0.601,10.089 -7.21,0.33 -14.439,0.031 -21.649,0.13 -0.01,3.8 0,7.6 0,11.401 8.7,0.149 17.42,-0.321 26.1,0.269 0.13,3.72 0.14,7.45 -0.01,11.17 -12.75,0.33 -25.52,0.14 -38.27,0.11 -1.96,0.2 -1.54,-2.24 -1.61,-3.46 m -48.41,-3.03 c -4.77,-5.66 -4.46,-14.98 0.95,-20.139 5.56,-5.701 13.62,-7.301 20.75,-10.151 2.81,-0.96 5.57,-3.559 4.89,-6.809 -0.951,-3.641 -5.11,-4.491 -8.35,-4.381 -2.76,0.23 -5.89,0.66 -7.78,2.93 -1.72,1.75 -0.81,4.661 -2.48,6.4 -3.96,0.16 -7.94,0.21 -11.9,-0.029 -0.3,-0.241 -0.92,-0.721 -1.22,-0.96 -0.15,-6.441 3.47,-12.831 9.16,-15.92 6.18,-3.811 13.76,-4.12 20.79,-3.301 6.28,0.89 12.75,4.471 14.89,10.78 1.57,5.46 0.97,11.93 -2.99,16.28 -5.34,5.97 -13.49,7.701 -20.68,10.39 -2.65,1.061 -6.51,3.19 -5.17,6.65 1.52,4.72 7.71,4.64 11.61,3.48 3.27,-1.02 3.75,-4.74 5.11,-7.38 4.25,-0.18 8.51,-0.05 12.769,-0.019 0.761,6.199 -2.489,12.439 -7.689,15.769 -5.67,3.77 -12.82,4.27 -19.4,3.38 -4.96,-0.93 -10.02,-2.93 -13.26,-6.97 m -69.9,4.92 c -0.17,-18.03 -0.01,-36.07 -0.08,-54.11 -0.2,-1.239 0.21,-3.159 1.9,-2.84 12.16,-0.069 24.32,-0.02 36.47,-0.02 0.3,3.59 0.41,7.21 0.11,10.8 -0.18,0.16 -0.52,0.5 -0.69,0.66 -7.92,0.32 -15.86,0.031 -23.78,0.13 -0.12,15.401 0.23,30.83 -0.17,46.21 -2.53,1.66 -5.96,0.43 -8.85,0.82 -1.56,-0.24 -4.81,0.74 -4.91,-1.65 m -44.49,-1.47 c -4.88,-2.99 -7.83,-8.79 -7.12,-14.5 0.2,-5 3.54,-9.29 7.6,-11.93 5.91,-4.159 13.33,-5.06 19.59,-8.48 3.21,-1.69 3.53,-6.77 0.42,-8.73 -3.67,-1.92 -8.26,-1.58 -11.96,0.08 -3.1,1.44 -3.17,5.09 -4.19,7.88 -3.98,0.301 -8,0.27 -11.98,0.051 -2.25,-0.471 -1.04,-3.021 -1.04,-4.581 1.39,-8.71 9.74,-14.43 18.02,-15.58 7.27,-0.839 15.36,-0.65 21.46,3.93 6.29,4.55 7.5,13.93 3.88,20.521 -2.83,4.909 -8.07,7.689 -13.16,9.719 -4.55,1.85 -9.72,2.55 -13.59,5.79 -1.92,1.69 -1.37,4.81 0.43,6.37 2.55,2.39 6.46,1.99 9.63,1.451 3.57,-0.771 4.64,-4.571 5.4,-7.641 4.11,0.021 8.22,-0.2 12.32,0.09 1.58,0.63 0.73,2.61 0.81,3.88 -1.08,7.45 -7.46,13.22 -14.63,14.77 -7.3,1.62 -15.46,0.97 -21.89,-3.09 m -42.2,3.42 c -6.47,-1.11 -13,-4.91 -15.3,-11.36 -1.24,-4.49 -1.06,-9.76 1.85,-13.6 3.74,-5.33 10.07,-7.86 16.01,-9.88 3.34,-1.22 7.03,-1.98 9.75,-4.4 2.4,-2.13 1.83,-6.689 -1.11,-8.059 -3.63,-1.63 -7.94,-1.301 -11.5,0.319 -3,1.49 -3.49,5.011 -4.08,7.96 -4.44,0.13 -8.89,0.19 -13.33,-0.07 -0.55,-5.879 2.09,-11.83 6.82,-15.379 6.53,-5.111 15.34,-5.741 23.29,-4.731 4.77,0.85 9.58,3.01 12.56,6.97 4.4,6 3.73,15.051 -1.36,20.44 -4.65,4.97 -11.4,6.95 -17.66,9.01 -2.8,1.03 -5.91,2.05 -7.72,4.58 -1.49,3.07 1.4,6.59 4.51,6.941 2.83,0.299 6.06,0.58 8.52,-1.17 2.15,-1.54 2.46,-4.33 3.23,-6.661 4.15,0.07 8.3,-0.19 12.44,0.121 1.57,0.609 0.71,2.519 0.77,3.769 -0.93,5.42 -4.42,10.39 -9.38,12.83 -5.56,3.03 -12.17,3.32 -18.31,2.37 m 138.38,25.42 c -0.05,-0.49 -0.15,-1.45 -0.2,-1.94 3.54,-0.02 7.08,-0.01 10.62,-0.01 -0.01,0.48 -0.05,1.44 -0.06,1.92 -3.46,0.06 -6.91,0.05 -10.36,0.03 m 49.88,15.25 v -2.2 h 10.36 V 11.35 c 0.54,-0.02 1.62,-0.07 2.16,-0.09 0.02,9.26 0,18.52 0.01,27.78 3.6,0.01 7.2,-0.06 10.8,0.11 -0.02,0.5 -0.06,1.51 -0.08,2.01 -7.75,0.18 -15.5,0.04 -23.25,0.08 m -7.66,-3.52 c 0.03,-8.79 0.02,-17.58 0.02,-26.37 0.54,-0.02 1.62,-0.07 2.16,-0.09 0.03,8.12 -0.02,16.25 0.03,24.37 -0.081,2.21 0.44,4.74 -1.3,6.48 -0.66,-1.37 -1.02,-2.86 -0.91,-4.39 m -26.3,3.5 c -0.09,-9.98 -0.02,-19.96 -0.04,-29.94 4.14,0.07 8.29,-0.19 12.42,0.14 4,0.44 7.36,4.11 7.12,8.19 0.01,3.07 -2.17,5.45 -4.46,7.19 3.92,3.26 4.38,10.49 -0.45,13.11 -4.53,2.15 -9.75,1.09 -14.59,1.31 m -34.35,-4.02 c -4.23,-4.79 -3.88,-11.6 -3.63,-17.57 0.27,-6.08 7.21,-10.64 12.87,-8.28 7.42,3.14 7.94,15.91 0.48,19.31 -3.82,1.57 -7.94,0.05 -11.31,-1.9 1.17,3.91 3.03,8.29 7.24,9.71 2.25,1.2 5.9,0.09 6.59,3.28 -4.44,0.11 -9.34,-0.9 -12.24,-4.55 m -23.69,4.05 c -0.62,-5.15 -1.23,-10.32 -1.28,-15.51 3.26,1.47 7.02,3.82 10.62,1.92 4.5,-2.25 4.92,-8.57 2.42,-12.44 -2.72,-3.37 -8.83,-2.9 -10.97,0.88 -0.63,1.46 -1,3.02 -1.47,4.53 -0.42,-0.42 -1.26,-1.26 -1.68,-1.68 -0.04,-7.52 10.23,-10.78 15.3,-5.92 4.29,4.89 3.56,14.72 -3.23,16.98 -2.84,1.28 -5.86,0.1 -8.7,-0.47 0.45,3.15 0.62,6.33 0.95,9.49 4.45,0.04 8.9,-0.07 13.35,0.11 -0.01,0.51 -0.03,1.51 -0.05,2.01 -5.08,0.17 -10.17,0.06 -15.26,0.1 m -21.99,-0.37 c -3.73,-1.56 -5.77,-5.91 -4.85,-9.82 2.78,2.24 2.64,7.1 6.62,7.99 4.38,1.89 9.65,-2.28 8.32,-7.01 -2.85,-8.24 -11.28,-12.9 -14.95,-20.65 6.49,-0.17 12.98,-0.19 19.46,0.01 -0.32,0.53 -0.98,1.59 -1.3,2.13 -4.72,0.29 -9.46,0.02 -14.19,0.12 3.59,4.47 7.71,8.52 10.98,13.25 2.02,2.9 3.31,6.8 1.77,10.2 -1.81,4.49 -7.79,5.59 -11.86,3.78 m -40.68,-7.32 c 0.15,-4.37 4.64,-6.76 8.41,-7.63 3.9,-1.23 9.72,-2.13 10.08,-7.22 -0.9,-5.91 -8.62,-6.84 -13.14,-4.66 -3.21,1 -3.66,4.67 -5.03,7.24 -2.94,-2.65 0.1,-6.77 2.55,-8.56 5.36,-2.99 14.07,-2.99 17.29,3.12 0.93,2.49 0.79,5.71 -1.23,7.65 -3.82,4.45 -10.61,3.45 -14.99,7 -2.04,1.61 -2.18,4.89 -0.24,6.64 3.5,3.27 9.9,3.21 13.01,-0.59 1.11,-1.36 1.32,-3.15 1.91,-4.75 0.51,0.16 1.53,0.49 2.05,0.65 -0.13,5.61 -5.46,9.72 -10.87,9.22 -4.56,0.14 -10.16,-2.97 -9.8,-8.11 m -23.11,7.63 c -0.05,-9.96 -0.03,-19.91 -0.01,-29.87 6.13,0 12.27,-0.19 18.39,0.07 0.19,0.4 0.56,1.18 0.74,1.57 -5.39,1.54 -11.24,0.27 -16.81,0.68 v 11.83 c 4.78,0.01 9.57,-0.02 14.36,0.03 -0.01,0.76 -0.01,1.52 0.01,2.28 -4.79,0.05 -9.58,0.02 -14.37,0.03 v 11.23 c 5.46,0.02 10.92,-0.03 16.38,0.03 0,0.54 -0.01,1.61 -0.01,2.14 -6.23,0.04 -12.46,0.07 -18.68,-0.02 m -17.8,0.06 c -3.75,-10.07 -7.6,-20.1 -11.27,-30.19 4.29,0.13 3.9,5.69 5.64,8.57 4.48,0.02 8.96,0.01 13.44,0.01 1.76,-2.92 1.37,-8.21 5.49,-8.76 -3.22,10.28 -7.47,20.21 -11.09,30.35 -0.55,0.01 -1.66,0.02 -2.21,0.02 m -39.06,20.39 H 58.24 c 3.35,0.36 6.8,-1.79 7.66,-5.09 0.36,-2.28 0.19,-4.6 0.23,-6.89 -0.04,-38.71 0.03,-77.42 -0.04,-116.12 0.21,-4.12 -3.89,-7.45 -7.88,-6.91 -188.36,0.02 -376.73,0.011 -565.09,0.011 z" /></g><g
           transform="translate(60.6445,54.4844)"
           id="g24"><path
             id="path26"
             style="fill:#ffffff;fill-opacity:1;fill-rule:nonzero;stroke:none"
             d="m 0,0 c 0.14,-2.38 2.07,-4.021 3.51,-5.71 0.06,-2.99 -0.3,-6.02 0.22,-8.98 1.2,-2.57 5.12,-2.56 6.28,0.049 0.49,2.951 0.15,5.96 0.2,8.931 1.43,1.689 3.39,3.33 3.5,5.73 0.3,4.02 -3.57,7.64 -7.55,7.209 C 2.83,6.59 -0.11,3.49 0,0 M -7.11,54.39 C -9.54,48.65 -8,42.24 -8.49,36.21 c 10.23,-0.04 20.47,-0.04 30.7,0 -0.1,4.25 0.03,8.51 -0.08,12.76 -0.2,6.95 -5.88,13.13 -12.69,14.24 -6.7,1.27 -13.81,-2.63 -16.55,-8.82 m -13.03,4.14 C -15.96,69.6 -4.46,77.46 7.41,76.98 18.94,77 29.87,69.18 33.9,58.43 c 2.86,-7.05 1.7,-14.8 1.87,-22.2 4.13,0.16 9.77,0.38 11.47,-4.38 0.28,-19.281 0.04,-38.58 0.12,-57.871 0.23,-3.549 -3.56,-6.199 -6.88,-5.899 h -67.25 c -3.31,-0.29 -7.09,2.34 -6.87,5.87 v 56.2 c -0.28,2.53 1.79,4.66 3.99,5.54 2.44,0.82 5.07,0.42 7.6,0.54 0.17,7.44 -1,15.23 1.91,22.3" /></g><g
           transform="translate(349.0049,120.9141)"
           id="g28"><path
             id="path30"
             style="fill:#ffffff;fill-opacity:1;fill-rule:nonzero;stroke:none"
             d="m 0,0 c 3.72,-0.08 7.68,0.5 11.17,-1.12 3.5,-2.09 3.23,-8.04 -0.64,-9.53 C 7.14,-11.75 3.49,-11.06 0,-11.23 Z" /></g><g
           transform="translate(180.3047,103.854)"
           id="g32"><path
             id="path34"
             style="fill:#ffffff;fill-opacity:1;fill-rule:nonzero;stroke:none"
             d="M 0,0 C 1.96,5.22 3.91,10.45 5.86,15.68 7.77,10.46 9.75,5.26 11.7,0.05 7.8,0 3.9,0.04 0,0" /></g><g
           transform="translate(314.4248,109.9941)"
           id="g36"><path
             id="path38"
             style="fill:#ffffff;fill-opacity:1;fill-rule:nonzero;stroke:none"
             d="M 0,0 C 2.17,0.95 4.91,1.58 7.05,0.19 12.88,-3.21 11.41,-14.06 4.52,-15.13 -3.22,-15.87 -7.21,-3.4 0,0" /></g><g
           transform="translate(349.0049,107.3442)"
           id="g40"><path
             id="path42"
             style="fill:#ffffff;fill-opacity:1;fill-rule:nonzero;stroke:none"
             d="m 0,0 c 4.49,-0.39 9.98,1.37 13.51,-2.29 2.98,-3.15 0.76,-8.65 -3.35,-9.39 C 6.78,-12.01 3.38,-11.78 0,-11.82 Z" /></g><g
           transform="translate(567.0049,70.5146)"
           id="g44"><path
             id="path46"
             style="fill:#ffffff;fill-opacity:1;fill-rule:nonzero;stroke:none"
             d="M 0,0 C 3.92,-0.12 7.92,0.39 11.78,-0.48 17.95,-2.271 17.7,-12.811 11.41,-14.29 7.66,-15.04 3.79,-14.49 0,-14.631 Z" /></g><g
           transform="translate(666.6045,70.5342)"
           id="g48"><path
             id="path50"
             style="fill:#ffffff;fill-opacity:1;fill-rule:nonzero;stroke:none"
             d="m 0,0 c 4.37,-0.07 9.37,0.51 12.931,-2.62 4.13,-3.43 4.519,-9.24 4.859,-14.21 C 17.681,-22.35 17.34,-28.72 12.97,-32.7 9.44,-35.89 4.4,-35.48 0.01,-35.42 -0.01,-23.61 0,-11.81 0,0" /></g></g></g></g></svg>