<?xml version="1.0" encoding="UTF-8" standalone="no"?>
<svg
   xmlns:dc="http://purl.org/dc/elements/1.1/"
   xmlns:cc="http://creativecommons.org/ns#"
   xmlns:rdf="http://www.w3.org/1999/02/22-rdf-syntax-ns#"
   xmlns:svg="http://www.w3.org/2000/svg"
   xmlns="http://www.w3.org/2000/svg"
   viewBox="0 0 994.66669 202.66667"
   height="202.66667"
   width="994.66669"
   xml:space="preserve"
   id="svg2"
   version="1.1"><metadata
     id="metadata8"><rdf:RDF><cc:Work
         rdf:about=""><dc:format>image/svg+xml</dc:format><dc:type
           rdf:resource="http://purl.org/dc/dcmitype/StillImage" /></cc:Work></rdf:RDF></metadata><defs
     id="defs6"><clipPath
       id="clipPath18"
       clipPathUnits="userSpaceOnUse"><path
         id="path16"
         d="M 0,152 H 746 V 0 H 0 Z" /></clipPath></defs><g
     transform="matrix(1.3333333,0,0,-1.3333333,0,202.66667)"
     id="g10"><g
       id="g12"><g
         clip-path="url(#clipPath18)"
         id="g14"><g
           transform="translate(58.5,111.5)"
           id="g20"><path
             id="path22"
             style="fill:#ffffff;fill-opacity:1;fill-rule:nonzero;stroke:none"
             d="m 0,0 c -2.91,-7.07 -1.74,-14.86 -1.91,-22.3 -2.53,-0.12 -5.16,0.28 -7.6,-0.54 -2.2,-0.88 -4.27,-3.01 -3.99,-5.54 v -56.2 c -0.22,-3.53 3.56,-6.16 6.87,-5.87 h 67.25 c 3.32,-0.3 7.11,2.35 6.88,5.9 -0.08,19.29 0.16,38.59 -0.12,57.87 -1.7,4.76 -7.34,4.54 -11.47,4.38 -0.17,7.4 0.99,15.15 -1.87,22.2 C 50.01,10.65 39.08,18.47 27.55,18.45 15.68,18.93 4.18,11.07 0,0 m 105.5,30.5 v -135 c 188.36,0 376.73,0.01 565.09,-0.01 3.99,-0.54 8.09,2.79 7.88,6.91 0.07,38.7 0,77.41 0.04,116.12 -0.04,2.29 0.13,4.61 -0.23,6.89 -0.86,3.3 -4.31,5.45 -7.66,5.09 z M -47.08,33 c 3.77,0.97 7.73,0.36 11.58,0.51 232.33,-0.02 464.67,-0.01 697,-0.01 4.16,-0.1 8.38,0.35 12.51,-0.38 4.69,-1.06 7.88,-5.83 7.49,-10.56 -0.03,-40.06 0.06,-80.13 -0.05,-120.18 0.16,-5.71 -5.28,-10.39 -10.87,-9.88 -238.04,0 -476.08,0.01 -714.13,0 -4.39,-0.3 -8.57,2.91 -9.69,7.12 -0.5,3.26 -0.22,6.58 -0.27,9.87 0.02,38.03 0.01,76.06 0.01,114.09 -0.3,4.14 2.59,8.04 6.42,9.42" /></g><g
           transform="translate(198.2998,102.3398)"
           id="g24"><path
             id="path26"
             style="fill:#ffffff;fill-opacity:1;fill-rule:nonzero;stroke:none"
             d="M 0,0 C 3.9,0.04 7.8,0 11.7,0.05 9.75,5.26 7.77,10.46 5.86,15.68 3.91,10.45 1.96,5.22 0,0 m 4.76,19.27 c 0.55,0 1.66,-0.01 2.21,-0.02 3.62,-10.14 7.87,-20.07 11.09,-30.35 -4.12,0.55 -3.73,5.84 -5.49,8.76 -4.48,0 -8.96,0.01 -13.44,-0.01 -1.74,-2.88 -1.35,-8.44 -5.64,-8.57 3.67,10.09 7.52,20.12 11.27,30.19" /></g><g
           transform="translate(220.8599,121.5498)"
           id="g28"><path
             id="path30"
             style="fill:#ffffff;fill-opacity:1;fill-rule:nonzero;stroke:none"
             d="m 0,0 c 6.22,0.09 12.45,0.06 18.68,0.02 0,-0.53 0.01,-1.6 0.01,-2.14 C 13.23,-2.18 7.77,-2.13 2.31,-2.15 v -11.23 c 4.79,-0.01 9.58,0.02 14.37,-0.03 -0.02,-0.76 -0.02,-1.52 -0.01,-2.28 -4.79,-0.05 -9.58,-0.02 -14.36,-0.03 v -11.83 c 5.57,-0.41 11.42,0.86 16.81,-0.68 -0.18,-0.39 -0.55,-1.17 -0.74,-1.57 C 12.26,-30.06 6.12,-29.87 -0.01,-29.87 -0.03,-19.91 -0.05,-9.96 0,0" /></g><g
           transform="translate(243.9702,113.9199)"
           id="g32"><path
             id="path34"
             style="fill:#ffffff;fill-opacity:1;fill-rule:nonzero;stroke:none"
             d="M 0,0 C -0.36,5.14 5.24,8.25 9.8,8.11 15.21,8.61 20.54,4.5 20.67,-1.11 20.15,-1.27 19.13,-1.6 18.62,-1.76 18.03,-0.16 17.82,1.63 16.71,2.99 13.6,6.79 7.2,6.85 3.7,3.58 1.76,1.83 1.9,-1.45 3.94,-3.06 c 4.38,-3.55 11.17,-2.55 14.99,-7 2.02,-1.94 2.16,-5.16 1.23,-7.65 -3.22,-6.11 -11.93,-6.11 -17.29,-3.12 -2.45,1.79 -5.49,5.91 -2.55,8.56 1.37,-2.57 1.82,-6.24 5.03,-7.24 4.52,-2.18 12.24,-1.25 13.14,4.66 -0.36,5.09 -6.18,5.99 -10.08,7.22 C 4.64,-6.76 0.15,-4.37 0,0" /></g><g
           transform="translate(284.6499,121.2402)"
           id="g36"><path
             id="path38"
             style="fill:#ffffff;fill-opacity:1;fill-rule:nonzero;stroke:none"
             d="m 0,0 c 4.07,1.81 10.05,0.71 11.86,-3.78 1.54,-3.4 0.25,-7.3 -1.77,-10.2 -3.27,-4.73 -7.39,-8.78 -10.98,-13.25 4.73,-0.1 9.47,0.17 14.19,-0.12 0.32,-0.54 0.98,-1.6 1.3,-2.13 -6.48,-0.2 -12.97,-0.18 -19.46,-0.01 3.67,7.75 12.1,12.41 14.95,20.65 1.33,4.73 -3.94,8.9 -8.32,7.01 C -2.21,-2.72 -2.07,-7.58 -4.85,-9.82 -5.77,-5.91 -3.73,-1.56 0,0" /></g><g
           transform="translate(306.6401,121.6099)"
           id="g40"><path
             id="path42"
             style="fill:#ffffff;fill-opacity:1;fill-rule:nonzero;stroke:none"
             d="m 0,0 c 5.09,-0.04 10.18,0.07 15.26,-0.1 0.02,-0.5 0.04,-1.5 0.05,-2.01 -4.45,-0.18 -8.9,-0.07 -13.35,-0.11 -0.33,-3.16 -0.5,-6.34 -0.95,-9.49 2.84,0.57 5.86,1.75 8.7,0.47 6.79,-2.26 7.52,-12.09 3.23,-16.98 -5.07,-4.86 -15.34,-1.6 -15.3,5.92 0.42,0.42 1.26,1.26 1.68,1.68 0.47,-1.51 0.84,-3.07 1.47,-4.53 2.14,-3.78 8.25,-4.25 10.97,-0.88 2.5,3.87 2.08,10.19 -2.42,12.44 -3.6,1.9 -7.36,-0.45 -10.62,-1.92 C -1.23,-10.32 -0.62,-5.15 0,0" /></g><g
           transform="translate(332.4199,108.48)"
           id="g44"><path
             id="path46"
             style="fill:#ffffff;fill-opacity:1;fill-rule:nonzero;stroke:none"
             d="m 0,0 c -7.21,-3.4 -3.22,-15.87 4.52,-15.13 6.89,1.07 8.36,11.92 2.53,15.32 C 4.91,1.58 2.17,0.95 0,0 m -2.09,9.08 c 2.9,3.65 7.8,4.66 12.24,4.55 C 9.46,10.44 5.81,11.55 3.56,10.35 -0.65,8.93 -2.51,4.55 -3.68,0.64 c 3.37,1.95 7.49,3.47 11.31,1.9 7.46,-3.4 6.94,-16.17 -0.48,-19.31 -5.66,-2.36 -12.6,2.2 -12.87,8.28 -0.25,5.97 -0.6,12.78 3.63,17.57" /></g><g
           transform="translate(367,105.8301)"
           id="g48"><path
             id="path50"
             style="fill:#ffffff;fill-opacity:1;fill-rule:nonzero;stroke:none"
             d="m 0,0 v -11.82 c 3.38,0.04 6.78,-0.19 10.16,0.14 4.11,0.74 6.33,6.24 3.35,9.39 C 9.98,1.37 4.49,-0.39 0,0 M 0,13.57 V 2.34 c 3.49,0.17 7.14,-0.52 10.53,0.58 3.87,1.49 4.14,7.44 0.64,9.53 C 7.68,14.07 3.72,13.49 0,13.57 m -2.32,2.18 c 4.84,-0.22 10.06,0.84 14.59,-1.31 4.83,-2.62 4.37,-9.85 0.45,-13.11 2.29,-1.74 4.47,-4.12 4.46,-7.19 0.24,-4.08 -3.12,-7.75 -7.12,-8.19 -4.13,-0.33 -8.28,-0.07 -12.42,-0.14 0.02,9.98 -0.05,19.96 0.04,29.94" /></g><g
           transform="translate(390.9805,118.0801)"
           id="g52"><path
             id="path54"
             style="fill:#ffffff;fill-opacity:1;fill-rule:nonzero;stroke:none"
             d="M 0,0 C -0.11,1.53 0.25,3.02 0.909,4.39 2.649,2.65 2.13,0.12 2.21,-2.09 c -0.051,-8.12 0,-16.25 -0.03,-24.37 -0.54,0.02 -1.62,0.07 -2.16,0.09 C 0.02,-17.58 0.029,-8.79 0,0" /></g><g
           transform="translate(398.6396,121.6001)"
           id="g56"><path
             id="path58"
             style="fill:#ffffff;fill-opacity:1;fill-rule:nonzero;stroke:none"
             d="m 0,0 c 7.75,-0.04 15.5,0.1 23.25,-0.08 0.021,-0.5 0.061,-1.51 0.08,-2.01 -3.6,-0.17 -7.2,-0.1 -10.8,-0.11 -0.009,-9.26 0.01,-18.52 -0.009,-27.78 -0.541,0.02 -1.621,0.07 -2.161,0.09 V -2.2 L 0,-2.2 Z" /></g><g
           transform="translate(71.5298,107.3599)"
           id="g60"><path
             id="path62"
             style="fill:#ffffff;fill-opacity:1;fill-rule:nonzero;stroke:none"
             d="m 0,0 c 2.74,6.19 9.85,10.09 16.55,8.82 6.81,-1.11 12.49,-7.29 12.69,-14.24 0.11,-4.25 -0.02,-8.51 0.08,-12.76 -10.23,-0.04 -20.47,-0.04 -30.7,0 C -0.89,-12.15 -2.43,-5.74 0,0" /></g><g
           transform="translate(348.7598,106.3501)"
           id="g64"><path
             id="path66"
             style="fill:#ffffff;fill-opacity:1;fill-rule:nonzero;stroke:none"
             d="m 0,0 c 3.45,0.02 6.9,0.03 10.36,-0.03 0.01,-0.48 0.05,-1.44 0.06,-1.92 -3.54,0 -7.08,-0.01 -10.62,0.01 0.05,0.49 0.15,1.45 0.2,1.94" /></g><g
           transform="translate(210.3799,80.9302)"
           id="g68"><path
             id="path70"
             style="fill:#ffffff;fill-opacity:1;fill-rule:nonzero;stroke:none"
             d="m 0,0 c 6.14,0.95 12.75,0.66 18.31,-2.37 4.96,-2.44 8.45,-7.41 9.38,-12.83 -0.06,-1.25 0.8,-3.16 -0.77,-3.77 -4.14,-0.31 -8.29,-0.05 -12.44,-0.12 -0.77,2.33 -1.08,5.12 -3.23,6.66 -2.46,1.75 -5.69,1.47 -8.52,1.17 -3.11,-0.35 -6,-3.87 -4.51,-6.94 1.81,-2.53 4.92,-3.55 7.72,-4.58 6.26,-2.06 13.01,-4.04 17.66,-9.011 5.09,-5.389 5.76,-14.439 1.36,-20.439 -2.98,-3.96 -7.79,-6.12 -12.56,-6.97 -7.95,-1.01 -16.76,-0.381 -23.29,4.73 -4.73,3.55 -7.37,9.5 -6.82,15.38 4.44,0.259 8.89,0.2 13.33,0.07 0.59,-2.95 1.08,-6.47 4.08,-7.96 3.56,-1.62 7.87,-1.95 11.5,-0.32 2.94,1.37 3.51,5.929 1.11,8.06 -2.72,2.42 -6.41,3.18 -9.75,4.4 -5.94,2.02 -12.27,4.549 -16.01,9.88 -2.91,3.839 -3.09,9.11 -1.85,13.6 C -13,-4.91 -6.47,-1.11 0,0" /></g><g
           transform="translate(252.5801,77.5098)"
           id="g72"><path
             id="path74"
             style="fill:#ffffff;fill-opacity:1;fill-rule:nonzero;stroke:none"
             d="m 0,0 c 6.43,4.06 14.59,4.71 21.89,3.09 7.17,-1.55 13.55,-7.319 14.63,-14.77 -0.08,-1.27 0.77,-3.25 -0.81,-3.88 -4.1,-0.29 -8.21,-0.07 -12.32,-0.089 -0.76,3.069 -1.83,6.87 -5.4,7.639 -3.17,0.54 -7.08,0.941 -9.63,-1.45 -1.8,-1.56 -2.35,-4.68 -0.43,-6.37 3.87,-3.239 9.04,-3.94 13.59,-5.79 5.09,-2.029 10.33,-4.81 13.16,-9.72 3.62,-6.59 2.41,-15.97 -3.88,-20.519 -6.1,-4.58 -14.19,-4.771 -21.46,-3.931 -8.28,1.15 -16.63,6.87 -18.02,15.58 0,1.561 -1.21,4.11 1.04,4.58 3.98,0.22 8,0.25 11.98,-0.05 1.02,-2.79 1.09,-6.44 4.19,-7.88 3.7,-1.66 8.29,-2 11.96,-0.08 3.11,1.96 2.79,7.04 -0.42,8.73 -6.26,3.42 -13.68,4.32 -19.59,8.48 -4.06,2.64 -7.4,6.93 -7.6,11.93 C -7.83,-8.79 -4.88,-2.99 0,0" /></g><g
           transform="translate(297.0698,78.98)"
           id="g76"><path
             id="path78"
             style="fill:#ffffff;fill-opacity:1;fill-rule:nonzero;stroke:none"
             d="m 0,0 c 0.1,2.39 3.35,1.41 4.91,1.65 2.89,-0.39 6.32,0.84 8.85,-0.82 0.4,-15.38 0.05,-30.81 0.17,-46.21 7.92,-0.1 15.86,0.19 23.78,-0.13 0.17,-0.16 0.51,-0.5 0.69,-0.66 0.3,-3.59 0.19,-7.21 -0.11,-10.8 -12.15,0 -24.31,-0.05 -36.47,0.02 -1.69,-0.32 -2.1,1.6 -1.9,2.84 C -0.01,-36.07 -0.17,-18.03 0,0" /></g><g
           transform="translate(366.9702,74.0596)"
           id="g80"><path
             id="path82"
             style="fill:#ffffff;fill-opacity:1;fill-rule:nonzero;stroke:none"
             d="m 0,0 c 3.24,4.041 8.299,6.041 13.26,6.97 6.579,0.89 13.73,0.39 19.4,-3.38 5.2,-3.329 8.45,-9.569 7.69,-15.77 -4.261,-0.03 -8.52,-0.16 -12.77,0.021 -1.36,2.639 -1.84,6.359 -5.11,7.38 -3.9,1.16 -10.091,1.239 -11.61,-3.481 -1.34,-3.46 2.519,-5.59 5.17,-6.649 7.19,-2.691 15.34,-4.42 20.679,-10.391 3.96,-4.349 4.561,-10.819 2.991,-16.279 -2.14,-6.311 -8.611,-9.891 -14.89,-10.78 -7.03,-0.821 -14.61,-0.51 -20.79,3.299 -5.69,3.09 -9.31,9.481 -9.16,15.92 0.3,0.241 0.92,0.72 1.22,0.96 3.96,0.241 7.94,0.191 11.9,0.031 1.67,-1.741 0.76,-4.651 2.479,-6.401 1.891,-2.269 5.021,-2.7 7.781,-2.929 3.24,-0.111 7.4,0.74 8.349,4.379 0.681,3.25 -2.079,5.85 -4.889,6.81 -7.13,2.851 -15.19,4.45 -20.75,10.15 C -4.46,-14.979 -4.77,-5.659 0,0" /></g><g
           transform="translate(415.3799,77.0898)"
           id="g84"><path
             id="path86"
             style="fill:#ffffff;fill-opacity:1;fill-rule:nonzero;stroke:none"
             d="m 0,0 c 0.07,1.22 -0.35,3.66 1.61,3.46 12.75,0.03 25.52,0.22 38.27,-0.11 0.15,-3.72 0.141,-7.45 0.01,-11.17 -8.68,-0.59 -17.4,-0.119 -26.1,-0.27 0,-3.8 -0.01,-7.599 0,-11.4 7.21,-0.1 14.44,0.2 21.65,-0.13 1.67,-2.83 0.581,-6.84 0.6,-10.09 -0.189,-0.2 -0.58,-0.6 -0.769,-0.8 C 28.13,-30.95 20.95,-30.56 13.79,-30.689 V -43.49 c 8.69,-0.1 17.4,0.2 26.09,-0.159 C 40.03,-47.42 40.05,-51.2 39.851,-54.97 26.66,-55.229 13.45,-55.04 0.25,-55.07 -0.29,-36.729 0.19,-18.359 0,0" /></g><g
           transform="translate(478.5703,80.6802)"
           id="g88"><path
             id="path90"
             style="fill:#ffffff;fill-opacity:1;fill-rule:nonzero;stroke:none"
             d="m 0,0 c 7.68,1.65 16.439,0.7 22.72,-4.36 4.79,-3.95 7.259,-10.15 7.679,-16.23 -4.319,-1.571 -9.219,-0.241 -13.75,-0.75 -0.399,3.23 -0.819,7.09 -3.92,8.929 -4.62,2.551 -11.769,1.951 -14.439,-3.109 -2.92,-5.67 -2.23,-12.3 -2.221,-18.46 0.281,-4.76 1.16,-10.57 5.891,-12.96 3.649,-1.17 8.189,-1.27 11.399,1.109 2.491,1.931 2.84,5.261 3.21,8.151 4.201,-0.08 8.41,0.17 12.611,-0.1 0.299,-0.25 0.889,-0.74 1.19,-0.98 -0.5,-5.54 -2.54,-11.18 -6.82,-14.92 -6.901,-6.09 -17.14,-6.85 -25.691,-4.441 -9.58,2.951 -14.979,12.911 -15.679,22.421 -0.201,7.119 -0.701,14.53 2.009,21.289 C -13.29,-7.4 -7.33,-1.7 0,0" /></g><g
           transform="translate(515.8799,80.3501)"
           id="g92"><path
             id="path94"
             style="fill:#ffffff;fill-opacity:1;fill-rule:nonzero;stroke:none"
             d="m 0,0 c 4.3,0.35 8.65,0.38 12.96,0.14 0.25,-0.16 0.74,-0.49 0.99,-0.66 0.52,-13.67 -0.19,-27.39 0.34,-41.061 0.92,-5.939 8.36,-6.839 13.05,-5.169 3.261,1.35 4.4,5.12 4.42,8.37 0.07,12.82 -0.14,25.65 0.1,38.47 4.5,0.25 9.02,0.25 13.52,0 0.21,-13.5 0.07,-27.01 0.08,-40.51 -0.2,-8.371 -6.57,-15.86 -14.689,-17.72 C 23.3,-59.72 14.83,-59.53 8.28,-55.17 2.8,-51.55 0,-44.89 -0.04,-38.47 -0.04,-25.64 -0.1,-12.82 0,0" /></g><g
           transform="translate(585,69)"
           id="g96"><path
             id="path98"
             style="fill:#ffffff;fill-opacity:1;fill-rule:nonzero;stroke:none"
             d="m 0,0 v -14.63 c 3.79,0.14 7.66,-0.41 11.41,0.34 6.29,1.48 6.54,12.02 0.37,13.81 C 7.92,0.39 3.92,-0.12 0,0 m -13.98,11.37 c 7.35,0.5 14.73,0.11 22.1,0.24 6.42,0.08 13.4,-1.38 17.92,-6.3 7.3,-8.4 4.82,-23.37 -5.49,-28.24 3.83,-7.43 7.99,-14.71 11.66,-22.22 -0.1,-0.4 -0.3,-1.18 -0.4,-1.58 -4.6,-0.6 -9.26,-0.13 -13.89,-0.27 -3.5,6.9 -7.04,13.77 -10.59,20.64 H 0 c -0.08,-6.49 0.16,-12.99 -0.1,-19.47 -0.26,-0.27 -0.8,-0.8 -1.07,-1.07 -3.95,-0.2 -7.92,-0.2 -11.86,0.01 -0.22,0.21 -0.65,0.62 -0.86,0.82 -0.25,19.14 -0.06,38.29 -0.09,57.44" /></g><g
           transform="translate(623.8799,80.3501)"
           id="g100"><path
             id="path102"
             style="fill:#ffffff;fill-opacity:1;fill-rule:nonzero;stroke:none"
             d="m 0,0 c 11.68,0.58 23.39,0.07 35.08,0.27 1.6,-0.19 3.59,0.49 4.87,-0.8 0.31,-3.28 0.26,-6.6 0.06,-9.88 -0.21,-0.21 -0.64,-0.631 -0.85,-0.83 -8.34,-0.27 -16.7,-0.03 -25.04,-0.11 v -11.4 c 7.38,-0.07 14.76,0.15 22.13,-0.13 0.05,-3.61 0.061,-7.22 -0.01,-10.83 -7.36,-0.52 -14.75,-0.11 -22.12,-0.24 v -12.8 h 24.89 c 0.32,-0.32 0.96,-0.96 1.28,-1.28 -0.01,-3.31 0.021,-6.63 -0.06,-9.94 -8.34,-0.84 -16.76,-0.17 -25.129,-0.38 C 10.07,-58.22 5.01,-58.7 0.01,-57.97 -0.1,-38.64 -0.07,-19.32 0,0" /></g><g
           transform="translate(684.5996,69.0195)"
           id="g104"><path
             id="path106"
             style="fill:#ffffff;fill-opacity:1;fill-rule:nonzero;stroke:none"
             d="m 0,0 c 0,-11.81 -0.01,-23.609 0.011,-35.42 4.389,-0.059 9.429,-0.47 12.96,2.721 4.37,3.979 4.71,10.349 4.819,15.87 -0.34,4.97 -0.729,10.779 -4.859,14.21 C 9.37,0.511 4.37,-0.069 0,0 m -13.72,11.34 c 6.42,0.48 12.87,0.17 19.3,0.221 8.59,0.06 17.271,-4.281 21.731,-11.75 C 31.11,-6 32.03,-13.149 31.67,-19.96 31.641,-27.8 28.5,-35.85 22.391,-40.939 c -5.21,-4.43 -12.221,-6.34 -18.981,-6.1 -5.71,0.119 -11.43,-0.211 -17.12,0.25 -0.1,19.369 -0.09,38.75 -0.01,58.129" /></g><g
           transform="translate(78.6401,52.9697)"
           id="g108"><path
             id="path110"
             style="fill:#ffffff;fill-opacity:1;fill-rule:nonzero;stroke:none"
             d="M 0,0 C -0.11,3.49 2.83,6.59 6.16,7.23 10.14,7.66 14.01,4.04 13.71,0.021 13.6,-2.38 11.64,-4.02 10.21,-5.71 10.16,-8.68 10.5,-11.689 10.01,-14.64 8.85,-17.25 4.93,-17.26 3.73,-14.689 3.21,-11.729 3.57,-8.7 3.51,-5.71 2.07,-4.02 0.14,-2.38 0,0" /></g><g
           transform="translate(670.8799,80.3599)"
           id="g112"><path
             id="path114"
             style="fill:#ffffff;fill-opacity:1;fill-rule:nonzero;stroke:none"
             d="m 0,0 c -0.08,-19.379 -0.09,-38.76 0.01,-58.129 5.69,-0.461 11.41,-0.131 17.12,-0.25 6.76,-0.241 13.77,1.67 18.98,6.099 6.11,5.09 9.25,13.14 9.28,20.98 0.36,6.81 -0.56,13.96 -4.36,19.77 C 36.57,-4.06 27.89,0.28 19.3,0.22 12.87,0.17 6.42,0.48 0,0 m -47,-0.01 c -0.07,-19.32 -0.1,-38.64 0.01,-57.97 5,-0.729 10.06,-0.25 15.091,-0.38 8.369,0.21 16.789,-0.46 25.129,0.38 0.081,3.311 0.05,6.63 0.06,9.94 -0.32,0.32 -0.96,0.96 -1.28,1.28 h -24.89 v 12.801 c 7.37,0.129 14.76,-0.281 22.12,0.239 0.071,3.61 0.06,7.22 0.01,10.83 -7.37,0.28 -14.75,0.06 -22.13,0.13 v 11.4 c 8.34,0.08 16.7,-0.16 25.04,0.11 0.21,0.2 0.64,0.621 0.85,0.831 0.2,3.279 0.25,6.599 -0.06,9.879 -1.28,1.29 -3.27,0.61 -4.87,0.8 -11.69,-0.2 -23.4,0.31 -35.08,-0.27 m -52.86,0.02 c 0.03,-19.15 -0.16,-38.3 0.09,-57.44 0.21,-0.199 0.64,-0.61 0.86,-0.82 3.94,-0.209 7.91,-0.209 11.86,-0.01 0.27,0.27 0.81,0.801 1.071,1.07 0.259,6.481 0.019,12.981 0.099,19.47 h 7.33 c 3.55,-6.87 7.09,-13.739 10.59,-20.64 4.63,0.14 9.29,-0.33 13.89,0.27 0.1,0.4 0.3,1.18 0.4,1.58 -3.67,7.51 -7.83,14.79 -11.66,22.22 10.31,4.871 12.79,19.84 5.49,28.24 -4.52,4.92 -11.5,6.38 -17.92,6.3 -7.37,-0.13 -14.75,0.26 -22.1,-0.24 M -155,-0.01 c -0.1,-12.82 -0.04,-25.64 -0.04,-38.47 0.04,-6.42 2.84,-13.08 8.32,-16.7 6.55,-4.36 15.02,-4.55 22.491,-2.97 8.119,1.86 14.489,9.35 14.689,17.72 -0.01,13.5 0.13,27.011 -0.08,40.51 -4.5,0.25 -9.02,0.25 -13.52,0 -0.24,-12.82 -0.03,-25.65 -0.1,-38.47 -0.02,-3.25 -1.159,-7.02 -4.42,-8.37 -4.69,-1.67 -12.13,-0.77 -13.05,5.17 -0.53,13.671 0.18,27.39 -0.34,41.06 -0.25,0.17 -0.74,0.5 -0.99,0.66 -4.31,0.24 -8.66,0.21 -12.96,-0.14 m -37.31,0.33 c -7.33,-1.7 -13.29,-7.4 -15.81,-14.41 -2.71,-6.76 -2.21,-14.17 -2.01,-21.289 0.7,-9.511 6.1,-19.471 15.68,-22.421 8.551,-2.409 18.79,-1.65 25.69,4.44 4.281,3.74 6.321,9.38 6.821,14.92 -0.301,0.24 -0.891,0.731 -1.191,0.981 -4.2,0.269 -8.41,0.019 -12.61,0.099 -0.37,-2.89 -0.72,-6.22 -3.21,-8.15 -3.21,-2.38 -7.75,-2.28 -11.4,-1.11 -4.73,2.39 -5.61,8.201 -5.89,12.96 -0.01,6.16 -0.699,12.79 2.22,18.46 2.67,5.06 9.82,5.66 14.44,3.11 3.101,-1.84 3.52,-5.7 3.92,-8.93 4.53,0.51 9.431,-0.82 13.75,0.75 -0.42,6.08 -2.89,12.28 -7.68,16.23 -6.28,5.06 -15.04,6.01 -22.72,4.36 m -63.19,-3.59 c 0.19,-18.359 -0.29,-36.73 0.25,-55.07 13.2,0.03 26.41,-0.16 39.601,0.1 0.199,3.77 0.179,7.55 0.029,11.321 -8.69,0.359 -17.4,0.059 -26.09,0.159 v 12.801 c 7.16,0.129 14.34,-0.261 21.481,0.179 0.189,0.2 0.58,0.6 0.769,0.8 -0.019,3.25 1.07,7.26 -0.6,10.09 -7.21,0.33 -14.44,0.03 -21.65,0.13 -0.01,3.801 0,7.6 0,11.4 8.7,0.151 17.42,-0.32 26.1,0.27 0.131,3.72 0.14,7.45 -0.01,11.17 -12.75,0.33 -25.52,0.14 -38.27,0.11 -1.96,0.2 -1.54,-2.24 -1.61,-3.46 m -48.41,-3.03 c -4.77,-5.659 -4.46,-14.98 0.95,-20.14 5.56,-5.7 13.62,-7.3 20.75,-10.15 2.811,-0.96 5.57,-3.56 4.89,-6.81 -0.95,-3.64 -5.11,-4.49 -8.35,-4.38 -2.76,0.23 -5.89,0.66 -7.78,2.93 -1.72,1.75 -0.81,4.66 -2.48,6.4 -3.96,0.16 -7.94,0.21 -11.9,-0.03 -0.3,-0.24 -0.92,-0.72 -1.22,-0.96 -0.15,-6.439 3.47,-12.83 9.16,-15.92 6.18,-3.809 13.76,-4.12 20.79,-3.3 6.28,0.89 12.75,4.47 14.89,10.781 1.57,5.46 0.97,11.929 -2.99,16.279 -5.34,5.971 -13.489,7.7 -20.68,10.391 -2.65,1.059 -6.51,3.189 -5.17,6.649 1.52,4.72 7.71,4.641 11.611,3.48 3.269,-1.02 3.75,-4.74 5.109,-7.379 4.25,-0.181 8.51,-0.051 12.77,-0.021 0.76,6.2 -2.49,12.44 -7.69,15.77 -5.67,3.77 -12.82,4.27 -19.399,3.38 -4.961,-0.93 -10.021,-2.93 -13.261,-6.97 m -69.9,4.92 c -0.17,-18.03 -0.01,-36.07 -0.08,-54.11 -0.2,-1.24 0.21,-3.16 1.9,-2.84 12.16,-0.07 24.32,-0.02 36.47,-0.02 0.3,3.59 0.41,7.21 0.11,10.8 -0.18,0.16 -0.52,0.5 -0.69,0.66 -7.92,0.32 -15.86,0.03 -23.78,0.13 -0.12,15.4 0.23,30.83 -0.17,46.21 -2.53,1.66 -5.96,0.43 -8.85,0.82 -1.56,-0.24 -4.81,0.74 -4.91,-1.65 m -44.49,-1.47 c -4.88,-2.99 -7.83,-8.79 -7.12,-14.5 0.2,-5 3.54,-9.29 7.6,-11.93 5.91,-4.16 13.33,-5.06 19.59,-8.48 3.21,-1.69 3.53,-6.77 0.42,-8.73 -3.67,-1.92 -8.26,-1.58 -11.96,0.08 -3.1,1.44 -3.17,5.09 -4.19,7.88 -3.98,0.3 -8,0.27 -11.98,0.05 -2.25,-0.47 -1.04,-3.02 -1.04,-4.58 1.39,-8.71 9.74,-14.43 18.02,-15.58 7.27,-0.84 15.36,-0.65 21.46,3.931 6.29,4.549 7.5,13.929 3.88,20.519 -2.83,4.91 -8.07,7.69 -13.16,9.72 -4.55,1.85 -9.72,2.551 -13.59,5.79 -1.92,1.69 -1.37,4.81 0.43,6.37 2.55,2.391 6.46,1.99 9.63,1.45 3.57,-0.769 4.64,-4.57 5.4,-7.64 4.11,0.02 8.22,-0.2 12.32,0.09 1.58,0.63 0.73,2.61 0.81,3.88 -1.08,7.45 -7.46,13.22 -14.63,14.77 -7.3,1.62 -15.46,0.97 -21.89,-3.09 m -42.2,3.42 c -6.47,-1.11 -13,-4.91 -15.3,-11.36 -1.24,-4.49 -1.06,-9.76 1.85,-13.6 3.74,-5.33 10.07,-7.86 16.01,-9.88 3.34,-1.22 7.03,-1.98 9.75,-4.399 2.4,-2.131 1.83,-6.691 -1.11,-8.061 -3.63,-1.63 -7.94,-1.3 -11.5,0.32 -3,1.491 -3.49,5.01 -4.08,7.96 -4.44,0.13 -8.89,0.19 -13.33,-0.07 -0.55,-5.88 2.09,-11.83 6.82,-15.38 6.53,-5.11 15.34,-5.74 23.29,-4.729 4.77,0.849 9.58,3.009 12.56,6.969 4.4,6 3.73,15.05 -1.36,20.44 -4.65,4.97 -11.4,6.95 -17.66,9.011 -2.8,1.029 -5.91,2.049 -7.72,4.58 -1.49,3.069 1.4,6.589 4.51,6.939 2.83,0.3 6.06,0.58 8.52,-1.17 2.15,-1.54 2.46,-4.33 3.23,-6.66 4.15,0.07 8.3,-0.189 12.44,0.12 1.57,0.61 0.71,2.521 0.77,3.771 -0.93,5.42 -4.42,10.389 -9.38,12.829 -5.56,3.03 -12.17,3.32 -18.31,2.37 m 138.38,25.42 c -0.05,-0.49 -0.15,-1.45 -0.2,-1.94 3.54,-0.02 7.08,-0.01 10.62,-0.01 -0.01,0.48 -0.05,1.44 -0.06,1.92 -3.46,0.06 -6.91,0.05 -10.36,0.03 m 49.88,15.25 v -2.2 h 10.36 V 11.35 c 0.54,-0.02 1.62,-0.07 2.16,-0.09 0.02,9.26 0,18.52 0.01,27.78 3.6,0.01 7.2,-0.06 10.8,0.11 -0.02,0.5 -0.06,1.51 -0.08,2.01 -7.75,0.18 -15.5,0.04 -23.25,0.08 m -7.659,-3.52 c 0.029,-8.79 0.019,-17.58 0.019,-26.37 0.54,-0.02 1.62,-0.07 2.16,-0.09 0.031,8.12 -0.02,16.25 0.031,24.37 -0.081,2.21 0.439,4.74 -1.301,6.48 -0.659,-1.37 -1.02,-2.86 -0.909,-4.39 m -26.301,3.5 c -0.09,-9.98 -0.02,-19.96 -0.04,-29.94 4.14,0.07 8.29,-0.19 12.42,0.14 4,0.44 7.36,4.11 7.12,8.19 0.011,3.07 -2.17,5.45 -4.46,7.19 3.92,3.26 4.38,10.49 -0.45,13.11 -4.53,2.15 -9.75,1.09 -14.59,1.31 m -34.35,-4.02 c -4.23,-4.79 -3.88,-11.6 -3.63,-17.57 0.27,-6.08 7.21,-10.64 12.87,-8.28 7.42,3.14 7.94,15.91 0.48,19.31 -3.82,1.57 -7.94,0.05 -11.31,-1.9 1.17,3.91 3.03,8.29 7.24,9.71 2.25,1.2 5.9,0.09 6.59,3.28 -4.44,0.11 -9.34,-0.9 -12.24,-4.55 m -23.69,4.05 c -0.62,-5.15 -1.23,-10.32 -1.28,-15.51 3.26,1.47 7.02,3.82 10.62,1.92 4.5,-2.25 4.92,-8.57 2.42,-12.44 -2.72,-3.37 -8.83,-2.9 -10.97,0.88 -0.63,1.46 -1,3.02 -1.47,4.53 -0.42,-0.42 -1.26,-1.26 -1.68,-1.68 -0.04,-7.52 10.23,-10.78 15.3,-5.92 4.29,4.89 3.56,14.72 -3.23,16.98 -2.84,1.28 -5.86,0.1 -8.7,-0.47 0.45,3.15 0.62,6.33 0.95,9.49 4.45,0.04 8.9,-0.07 13.35,0.11 -0.01,0.51 -0.03,1.51 -0.05,2.01 -5.08,0.17 -10.17,0.06 -15.26,0.1 m -21.99,-0.37 c -3.73,-1.56 -5.77,-5.91 -4.85,-9.82 2.78,2.24 2.64,7.1 6.62,7.99 4.38,1.89 9.65,-2.28 8.32,-7.01 -2.85,-8.24 -11.28,-12.9 -14.95,-20.65 6.49,-0.17 12.98,-0.19 19.46,0.01 -0.32,0.53 -0.98,1.59 -1.3,2.13 -4.72,0.29 -9.46,0.02 -14.19,0.12 3.59,4.47 7.71,8.52 10.98,13.25 2.02,2.9 3.31,6.8 1.77,10.2 -1.81,4.49 -7.79,5.59 -11.86,3.78 m -40.68,-7.32 c 0.15,-4.37 4.64,-6.76 8.41,-7.63 3.9,-1.23 9.72,-2.13 10.08,-7.22 -0.9,-5.91 -8.62,-6.84 -13.14,-4.66 -3.21,1 -3.66,4.67 -5.03,7.24 -2.94,-2.65 0.1,-6.77 2.55,-8.56 5.36,-2.99 14.07,-2.99 17.29,3.12 0.93,2.49 0.79,5.71 -1.23,7.65 -3.82,4.45 -10.61,3.45 -14.99,7 -2.04,1.61 -2.18,4.89 -0.24,6.64 3.5,3.27 9.9,3.21 13.01,-0.59 1.11,-1.36 1.32,-3.15 1.91,-4.75 0.51,0.16 1.53,0.49 2.05,0.65 -0.13,5.61 -5.46,9.72 -10.87,9.22 -4.56,0.14 -10.16,-2.97 -9.8,-8.11 m -23.11,7.63 c -0.05,-9.96 -0.03,-19.91 -0.01,-29.87 6.13,0 12.27,-0.19 18.39,0.07 0.19,0.4 0.56,1.18 0.74,1.57 -5.39,1.54 -11.24,0.27 -16.81,0.68 v 11.83 c 4.78,0.01 9.57,-0.02 14.36,0.03 -0.01,0.76 -0.01,1.52 0.01,2.28 -4.79,0.05 -9.58,0.02 -14.37,0.03 v 11.23 c 5.46,0.02 10.92,-0.03 16.38,0.03 0,0.54 -0.01,1.61 -0.01,2.14 -6.23,0.04 -12.46,0.07 -18.68,-0.02 m -17.8,0.06 c -3.75,-10.07 -7.6,-20.1 -11.27,-30.19 4.29,0.13 3.9,5.69 5.64,8.57 4.48,0.02 8.96,0.01 13.44,0.01 1.76,-2.92 1.37,-8.21 5.49,-8.76 -3.22,10.28 -7.47,20.21 -11.09,30.35 -0.55,0.01 -1.66,0.02 -2.21,0.02 m -39.06,20.39 H 58.24 c 3.35,0.36 6.8,-1.79 7.66,-5.09 0.36,-2.28 0.19,-4.6 0.23,-6.89 -0.04,-38.71 0.03,-77.42 -0.04,-116.119 0.21,-4.121 -3.89,-7.451 -7.88,-6.911 -188.359,0.02 -376.73,0.01 -565.09,0.01 z" /></g><g
           transform="translate(78.6401,52.9697)"
           id="g116"><path
             id="path118"
             style="fill:#ffffff;fill-opacity:1;fill-rule:nonzero;stroke:none"
             d="m 0,0 c 0.14,-2.38 2.07,-4.02 3.51,-5.71 0.06,-2.99 -0.3,-6.019 0.22,-8.979 1.2,-2.571 5.12,-2.561 6.28,0.049 0.49,2.951 0.15,5.96 0.2,8.93 1.43,1.69 3.39,3.33 3.5,5.731 C 14.01,4.04 10.14,7.66 6.16,7.23 2.83,6.59 -0.11,3.49 0,0 M -7.11,54.39 C -9.54,48.65 -8,42.24 -8.49,36.21 c 10.23,-0.04 20.47,-0.04 30.7,0 -0.1,4.25 0.03,8.51 -0.08,12.76 -0.2,6.95 -5.88,13.13 -12.69,14.24 -6.7,1.27 -13.81,-2.63 -16.55,-8.82 m -13.03,4.14 C -15.96,69.6 -4.46,77.46 7.41,76.98 18.94,77 29.87,69.18 33.9,58.43 c 2.86,-7.05 1.7,-14.8 1.87,-22.2 4.13,0.16 9.77,0.38 11.47,-4.38 0.28,-19.28 0.04,-38.579 0.12,-57.87 0.23,-3.549 -3.56,-6.2 -6.88,-5.9 h -67.25 c -3.31,-0.29 -7.09,2.34 -6.87,5.87 v 56.2 c -0.28,2.53 1.79,4.66 3.99,5.54 2.44,0.82 5.07,0.42 7.6,0.54 0.17,7.44 -1,15.23 1.91,22.3" /></g><g
           transform="translate(367,119.3999)"
           id="g120"><path
             id="path122"
             style="fill:#ffffff;fill-opacity:1;fill-rule:nonzero;stroke:none"
             d="m 0,0 c 3.72,-0.08 7.68,0.5 11.17,-1.12 3.5,-2.09 3.23,-8.04 -0.64,-9.53 C 7.14,-11.75 3.49,-11.06 0,-11.23 Z" /></g><g
           transform="translate(198.2998,102.3398)"
           id="g124"><path
             id="path126"
             style="fill:#ffffff;fill-opacity:1;fill-rule:nonzero;stroke:none"
             d="M 0,0 C 1.96,5.22 3.91,10.45 5.86,15.68 7.77,10.46 9.75,5.26 11.7,0.05 7.8,0 3.9,0.04 0,0" /></g><g
           transform="translate(332.4199,108.48)"
           id="g128"><path
             id="path130"
             style="fill:#ffffff;fill-opacity:1;fill-rule:nonzero;stroke:none"
             d="M 0,0 C 2.17,0.95 4.91,1.58 7.05,0.19 12.88,-3.21 11.41,-14.06 4.52,-15.13 -3.22,-15.87 -7.21,-3.4 0,0" /></g><g
           transform="translate(367,105.8301)"
           id="g132"><path
             id="path134"
             style="fill:#ffffff;fill-opacity:1;fill-rule:nonzero;stroke:none"
             d="m 0,0 c 4.49,-0.39 9.98,1.37 13.51,-2.29 2.98,-3.15 0.76,-8.65 -3.35,-9.39 C 6.78,-12.01 3.38,-11.78 0,-11.82 Z" /></g><g
           transform="translate(585,69)"
           id="g136"><path
             id="path138"
             style="fill:#ffffff;fill-opacity:1;fill-rule:nonzero;stroke:none"
             d="M 0,0 C 3.92,-0.12 7.92,0.39 11.78,-0.48 17.95,-2.27 17.7,-12.81 11.41,-14.29 7.66,-15.04 3.79,-14.49 0,-14.63 Z" /></g><g
           transform="translate(684.5996,69.0195)"
           id="g140"><path
             id="path142"
             style="fill:#ffffff;fill-opacity:1;fill-rule:nonzero;stroke:none"
             d="m 0,0 c 4.37,-0.069 9.37,0.511 12.931,-2.619 4.13,-3.431 4.519,-9.24 4.859,-14.21 C 17.681,-22.35 17.341,-28.72 12.971,-32.699 9.44,-35.89 4.4,-35.479 0.011,-35.42 -0.01,-23.609 0,-11.81 0,0" /></g></g></g></g></svg>