<?xml version="1.0" encoding="UTF-8" standalone="no"?>
<svg
   xmlns:dc="http://purl.org/dc/elements/1.1/"
   xmlns:cc="http://creativecommons.org/ns#"
   xmlns:rdf="http://www.w3.org/1999/02/22-rdf-syntax-ns#"
   xmlns:svg="http://www.w3.org/2000/svg"
   xmlns="http://www.w3.org/2000/svg"
   viewBox="0 0 1041.3333 478.66666"
   height="478.66666"
   width="1041.3333"
   xml:space="preserve"
   id="svg2"
   version="1.1"><metadata
     id="metadata8"><rdf:RDF><cc:Work
         rdf:about=""><dc:format>image/svg+xml</dc:format><dc:type
           rdf:resource="http://purl.org/dc/dcmitype/StillImage" /></cc:Work></rdf:RDF></metadata><defs
     id="defs6"><clipPath
       id="clipPath18"
       clipPathUnits="userSpaceOnUse"><path
         id="path16"
         d="M 0,359 H 781 V 0 H 0 Z" /></clipPath></defs><g
     transform="matrix(1.3333333,0,0,-1.3333333,0,478.66667)"
     id="g10"><g
       id="g12"><g
         clip-path="url(#clipPath18)"
         id="g14"><g
           transform="translate(100.2729,298.4199)"
           id="g20"><path
             id="path22"
             style="fill:#ffffff;fill-opacity:1;fill-rule:nonzero;stroke:none"
             d="m 0,0 c 11.33,1.42 22.74,2.73 34.18,2.28 5.8,-0.55 11.88,-2.34 16.15,-6.5 3.33,-3.13 2.71,-8.44 0.59,-12.06 -2.56,-3.77 -6.81,-5.82 -9.95,-9.03 -39.69,-39.31 -76.18,-81.82 -109.12,-126.93 26.67,2.71 53.5,1.52 80.26,1.59 4.2,-0.05 9.41,-1.46 10.85,-5.94 1.09,-2.33 0.08,-4.73 -0.7,-6.97 -6.31,-3.09 -13.51,-2.12 -20.28,-2.65 -27.85,-1.7 -55.76,-4.08 -83.14,-9.68 -4.71,3.52 -9.8,7.59 -11.16,13.63 -0.23,4.71 -1.29,9.39 -0.97,14.12 1.07,7.27 5.86,13.21 10.47,18.64 28.72,32.51 56.73,65.74 87.73,96.14 3.96,3.62 7.56,7.67 12.01,10.71 -23.95,-1.67 -47.78,-5.4 -71.05,-11.35 -4.3,-1.02 -8.51,-2.54 -12.91,-3.03 -3.45,0.27 -6.29,2.68 -8.47,5.2 -1.86,2.13 -3.02,5.26 -1.71,7.96 1.29,2.38 3.91,3.44 6.25,4.49 C -48.4,-9.56 -24.32,-3.55 0,0" /></g><g
           transform="translate(729.5732,188.9302)"
           id="g24"><path
             id="path26"
             style="fill:#ffffff;fill-opacity:1;fill-rule:nonzero;stroke:none"
             d="m 0,0 c -9.95,-7.7 -16.15,-19.77 -18.36,-32.02 -0.26,-2.92 -1.3,-7.79 2.4,-8.891 3.71,0.221 6.32,3.491 8.59,6.111 7.059,9.21 11.93,20.54 12.11,32.25 C 4.8,-0.05 2.08,1.73 0,0 m -98.71,18.54 c -3.97,-2.2 -6.72,-6 -9.51,-9.48 -7.49,-9.76 -13.79,-20.81 -16.19,-33 -0.31,-2.41 -1.21,-5.53 1.17,-7.23 1.84,-0.04 3.21,1.52 4.53,2.62 5.68,5.67 9.52,12.84 13.32,19.83 4.43,8.67 8.15,17.68 11.52,26.81 -1.59,0.38 -3.3,1.61 -4.84,0.45 m -70.811,-2.23 c -6.739,-6.24 -11.33,-14.35 -15.639,-22.35 -3.42,-6.77 -6.651,-13.85 -7.49,-21.47 8.75,4.62 14.339,13.22 19.75,21.19 5.06,8.23 10.14,16.75 12.549,26.18 -3.549,1.26 -6.659,-1.39 -9.17,-3.55 m -69.469,62.33 c -6.76,-19.24 -13.41,-38.56 -18.6,-58.3 13.77,0.8 27.33,6.23 37.56,15.53 6.02,5.47 11.19,12.44 12.66,20.6 0.89,5.5 -1.96,10.96 -6.01,14.51 -6.931,6.04 -16.54,8.69 -25.61,7.66 m 184.76,23.38 c 2.459,2.28 6.02,1.81 8.959,0.9 2.831,-0.75 5.641,-2.66 6.381,-5.65 0.46,-2.68 -1.12,-5.04 -2.211,-7.34 C -46.88,79.09 -53.9,68.94 -59.26,57.87 -69.7,35.75 -79.18,12.96 -84.67,-10.94 c -0.91,-4.17 -1.73,-8.48 -0.98,-12.74 7.77,5.7 12.72,14.24 17.879,22.19 2.471,6.42 4.231,13.28 8.241,18.98 2.4,3.18 6.52,4.36 10.29,4.89 2.86,0.23 6.3,0.44 8.49,-1.77 1.97,-1.73 1.72,-4.77 0.83,-6.99 -4.23,-10.08 -8.49,-20.16 -12.27,-30.43 -1.65,-4.89 -3.661,-9.91 -3.44,-15.16 0.33,-3.321 4.16,-1.611 5.75,-0.28 8.41,6.28 14.64,15.06 19.76,24.12 3.58,7.13 7.599,14.13 12.95,20.09 2.75,2.79 6.03,5.37 9.97,6.12 4.07,1.23 8.47,-0.5 11.33,-3.47 3.86,0.35 8.09,-0.26 11.03,-3.01 4.15,-3.89 5.45,-9.72 6.16,-15.15 4.92,2.6 8.52,6.83 12.01,11.04 2.26,3.03 7,3.46 9.819,1 1.961,-2.41 1.631,-6 0.04,-8.51 C 36.83,-8.2 29.6,-17.08 18.85,-19.22 15.1,-30.25 10.06,-41.5 0.96,-49.15 c -7.79,-6.74 -19.8,-8.91 -29.01,-3.87 -5.27,2.729 -8.25,8.399 -9.21,14.07 -4.49,-4.74 -10.2,-8.98 -16.95,-9.39 -4.67,-0.41 -9.55,1.27 -12.67,4.83 -3.891,4.26 -4.91,10.24 -5.221,15.8 -4.219,-5.26 -9.799,-11 -17.189,-10.26 -6.38,-0.45 -11.36,4.889 -12.79,10.7 -4.86,-7.63 -11.04,-15.641 -20.1,-18.25 -9.48,-2.11 -16.93,6.87 -18.37,15.39 -4.66,-5.63 -12.18,-10.17 -19.67,-7.81 -5.79,1.44 -8.75,7.44 -9.24,12.97 -5.69,-7.89 -13.76,-15.26 -23.87,-16.2 -6.12,-0.75 -12.16,2.759 -14.83,8.27 -6.611,-4.41 -15.24,-5.761 -22.59,-2.38 -14.061,6.27 -25.09,17.48 -35.601,28.42 -4.389,-10.64 -7.379,-21.78 -10.049,-32.95 -0.65,-2.8 -3.39,-3.99 -5.84,-4.79 -6.91,1.59 -12.29,9.189 -10.44,16.229 11.829,38.621 21.28,78.001 35.09,116.011 1.279,4.49 4.42,8.5 9.17,9.56 14.319,3.36 30.149,0.4 42.01,-8.41 9.08,-6.8 16.68,-16.5 18.58,-27.91 1.55,-11.85 -4.64,-23.29 -13.22,-31.06 -13.65,-12.51 -31.59,-19.05 -49.35,-23.21 5.75,-7.05 11.839,-13.87 18.73,-19.84 4.22,-3.33 8.79,-7.07 14.399,-7.32 3.241,-0.13 6.031,1.72 8.371,3.75 2.47,12.4 8.299,23.86 15.37,34.24 6.19,8.41 13.78,17.27 24.41,19.68 6.07,1.55 11.91,-1.89 15.72,-6.39 5.41,1.28 11.82,1.05 16.129,-2.89 2.721,-2.67 2.121,-7.02 0.25,-10.01 -5.04,-8.92 -9.809,-18.02 -13.459,-27.61 -1.64,-4.44 -3.46,-8.94 -3.51,-13.74 6.32,5.14 11.01,11.88 16.15,18.12 1.73,2.06 2.68,4.61 3.88,6.98 4.73,9.21 11,17.61 18.49,24.75 3.15,2.89 6.74,5.81 11.14,6.31 5.16,0.5 9.8,-2.41 13.78,-5.38 7.91,19.8 15.89,39.6 25.4,58.7 3.15,5.63 5.97,11.75 10.92,16.06" /></g><g
           transform="translate(177.833,204.4902)"
           id="g28"><path
             id="path30"
             style="fill:#ffffff;fill-opacity:1;fill-rule:nonzero;stroke:none"
             d="m 0,0 c -6.32,-7.31 -11.22,-16.14 -12.86,-25.75 -0.3,-3.47 -1.4,-8.2 2.59,-9.98 3.3,0.95 6.24,2.88 8.47,5.49 7.14,8 11.9,18.17 13.43,28.78 0.2,2.66 1.04,6.65 -2.26,7.75 C 5.45,5.83 2.6,2.69 0,0 m -56.02,6.29 c -7.91,-5.34 -13.1,-13.87 -16.68,-22.55 -1.93,-5.52 -3.87,-11.64 -1.97,-17.44 1.95,-0.83 4.12,-0.79 5.89,0.47 5.19,3.51 8.79,8.85 11.86,14.2 3.74,6.97 6.57,14.72 6.61,22.71 0.36,3.14 -3.51,4.62 -5.71,2.61 M 158.59,6.3 c -2.19,-3.79 -4.24,-10.02 0.86,-12.42 5.84,3.89 8.47,10.87 10.19,17.37 0.26,2.45 1.59,5.33 -0.18,7.5 C 164.38,16.23 161.4,11 158.59,6.3 m 39.49,26.75 c 4.71,2.35 11.27,3.43 15.49,-0.41 2.951,-2.48 1.64,-6.62 1.31,-9.89 1.681,-0.38 3.36,-0.78 5.04,-1.18 2.24,2.14 4.46,4.77 7.681,5.32 4.239,0.9 8.699,-0.7 11.879,-3.53 2.19,-2 2.65,-5.53 1.13,-8.05 -1.6,-3.02 -5.13,-4.29 -6.839,-7.23 -7.151,-10.8 -13.691,-22.56 -15.471,-35.57 -0.19,-2.55 -0.91,-5.74 1.25,-7.7 3.011,0.12 5.38,2.29 7.48,4.22 6.13,6.17 10.37,13.87 14.59,21.39 1.151,1.66 2.56,3.86 4.87,3.71 3.66,0.3 6.781,-2.53 7.48,-6.03 -1.81,-7.27 -6.659,-13.21 -10.93,-19.19 -5.29,-6.95 -10.97,-14.551 -19.59,-17.42 -7.16,-1.99 -16.11,-1.08 -21.07,5.039 -4.01,4.861 -3.96,11.591 -3.18,17.511 1.44,10.95 5.87,21.17 10.22,31.22 -0.71,0.18 -2.14,0.55 -2.86,0.73 -7.54,-18.83 -19.26,-36.43 -35.77,-48.511 -9.56,-6.979 -22.37,-9.799 -33.78,-6.189 -5.09,1.649 -9.02,5.83 -10.83,10.81 -3.74,-3.52 -8.38,-6.97 -13.8,-6.621 -3.97,-0.2 -7.37,2.221 -10.02,4.911 -2.48,2.52 -5.47,4.93 -6.33,8.53 -1.3,5.65 0.96,11.26 2.99,16.42 -1.56,0.03 -1.36,-2.22 -2.22,-3.12 -4.35,-7.23 -8.53,-14.65 -13.99,-21.13 -3.01,-3.57 -7.67,-6.2 -12.47,-5.2 -4.77,0.48 -8.84,4.839 -8.26,9.74 0.61,6.36 2.58,12.49 4.25,18.62 -4.43,-6.88 -8.62,-13.91 -12.75,-20.98 -2.57,-4.1 -5.31,-8.951 -10.29,-10.36 -4.74,-0.591 -10.31,0.05 -13.76,3.699 -3.01,3.881 -2.99,9.281 -1.51,13.781 1.96,6.36 4.22,12.63 6.74,18.79 -2.58,-1.31 -5.32,-2.23 -8.14,-2.82 -3.71,-10.79 -9.02,-21.57 -17.83,-29.11 -8.44,-7.351 -21.3,-9.9 -31.53,-4.92 -6.13,2.899 -9.79,9.449 -10.29,16.06 -0.53,7.21 1.5,14.35 4.16,20.98 -2.17,-0.79 -4.38,-1.48 -6.62,-2.05 -4.2,-11.78 -10.19,-23.67 -20.61,-31.12 -7.62,-5.31 -17.86,-7.011 -26.65,-3.82 -5.4,1.93 -9.81,6.45 -11.41,11.97 -2.21,6.9 -0.83,14.3 1.25,21.04 3.56,11.19 9.48,21.58 16.91,30.65 3.35,3.94 7.5,7.65 12.72,8.7 4.29,1.08 8.97,-0.41 12.04,-3.54 3.78,0.25 7.86,-0.01 10.98,-2.41 5.09,-3.6 6.53,-10.1 7.39,-15.89 5.21,1.55 10.56,3.38 14.44,7.38 4.97,5.2 9.7,11.6 17.07,13.39 4.47,1.27 9.18,-0.43 12.48,-3.52 3.48,0.25 7.2,0.15 10.17,-1.92 5.48,-3.44 7.21,-10.26 7.98,-16.28 4.95,2.39 8.93,6.2 12.37,10.4 2.96,2.55 3.56,6.88 6.77,9.17 C 55.85,26.31 67.76,18.34 65.1,9.53 63.09,5.79 59.02,3.59 57.18,-0.3 53.9,-7.06 51.49,-14.24 48.79,-21.22 c 8.23,11.41 15.59,23.84 25.65,33.9 3.19,3.1 7.37,6.45 12.14,5.23 4.15,-1 5.61,-5.53 6.36,-9.21 -5.34,-7.86 -7.5,-17.29 -10.4,-26.21 7.9,12.85 16.17,25.58 26.02,37.04 3.35,3.37 6.8,7.74 11.94,8.01 4.97,-0.05 6.73,-5.34 9.61,-8.45 2.72,-3.24 0.27,-7.41 -1.97,-10.14 -7.55,-9.35 -13.28,-20.17 -16.55,-31.74 -0.72,-2.26 -0.52,-4.66 -0.4,-6.99 4.18,-0.26 6.96,3.3 9.35,6.19 2,2.66 4.32,5.17 5.72,8.21 3.75,14.68 10.34,28.66 19.42,40.8 3.54,4.77 8.62,9.02 14.77,9.5 5.02,0.49 9.08,-3.11 13.86,-3.92 3.3,-0.84 7.69,-1.75 8.64,-5.61 1.38,-9.43 -1.34,-19.09 -6.04,-27.24 -4.33,-7.38 -10.63,-14.03 -18.78,-17.07 -4.27,-1.64 -9,-1.18 -13.07,0.78 -1,-6.08 -2.35,-13.13 1.19,-18.64 3.22,-3.39 8.2,-0.81 11.75,0.67 10.46,5.74 19.66,14.51 24.66,25.45 4.39,8.52 7.99,17.45 10.77,26.62 -1.73,1.46 -3.98,2.95 -3.92,5.5 -0.45,5.36 4.21,9.4 8.57,11.59" /></g><g
           transform="translate(687.8027,235.3101)"
           id="g32"><path
             id="path34"
             style="fill:#ffffff;fill-opacity:1;fill-rule:nonzero;stroke:none"
             d="m 0,0 c 3.54,1.03 7.46,1.75 11.021,0.36 2.7,-0.89 4.469,-3.75 4.309,-6.57 0.66,-7.87 -7.63,-13.7 -14.84,-13.73 -4.99,-0.35 -10.92,3.07 -10.8,8.58 C -10.81,-5.43 -5.09,-1.42 0,0" /></g><g
           transform="translate(386.7129,130.0195)"
           id="g36"><path
             id="path38"
             style="fill:#ffffff;fill-opacity:1;fill-rule:nonzero;stroke:none"
             d="M 0,0 C 0.13,1.211 -0.31,3.69 1.66,3.521 3.22,4.311 4.63,2.41 4.36,0.971 4.44,-32.68 4.35,-66.34 4.4,-100 c -0.04,-2.55 0.3,-5.21 -0.76,-7.619 -0.77,0.01 -2.29,0.04 -3.06,0.059 -0.9,3.09 -0.52,6.34 -0.57,9.51 C 0.01,-65.369 0.03,-32.68 0,0" /></g><g
           transform="translate(438.5635,99.6797)"
           id="g40"><path
             id="path42"
             style="fill:#ffffff;fill-opacity:1;fill-rule:nonzero;stroke:none"
             d="m 0,0 c -3.48,-3.689 -2.4,-11.029 2.64,-12.83 4.549,-1.67 9.339,0.12 13.62,1.761 C 15.8,-7.029 15.319,-2.18 11.6,0.28 8.17,2.271 3.22,2.54 0,0 m -21.511,4.561 c 5.311,5.529 12.981,8.04 20.391,9.089 11.75,1.281 24.74,-0.759 33.72,-9.009 6.19,-5.571 8.679,-14.221 8.179,-22.351 0.45,-9.55 -4.87,-18.97 -13.13,-23.71 -7.189,-4.21 -15.729,-5.29 -23.929,-5.1 -7.76,-0.15 -15.88,1.19 -22.45,5.56 -3.22,2.16 -5.23,5.57 -6.72,9.061 6.609,1 13.32,0.769 19.95,1.549 3.59,-5.299 11.489,-6.32 16.6,-2.7 3.36,2.55 4.049,6.96 4.7,10.851 -7.3,-3.45 -15.651,-4.04 -23.53,-2.721 -5.98,1.221 -11.76,4.28 -15.451,9.231 -4.229,6.04 -3.46,14.969 1.67,20.25" /></g><g
           transform="translate(508.0029,78.04)"
           id="g44"><path
             id="path46"
             style="fill:#ffffff;fill-opacity:1;fill-rule:nonzero;stroke:none"
             d="m 0,0 c 0.49,-3.021 0.69,-6.26 2.38,-8.92 2.88,-4.49 9.73,-5.2 13.88,-2.12 3.49,3.6 2.48,10.74 -2.329,12.72 C 9.32,3.44 4.33,1.8 0,0 m -6.229,32.16 c 9.66,3.89 20.479,4.19 30.66,2.58 C 32.53,33.5 41.05,29.06 43.46,20.64 36.87,20.42 30.311,19.55 23.73,19.479 20.19,23.49 14.45,25.46 9.351,23.3 4.26,21.62 2.91,15.88 2.19,11.2 c 8.92,3.94 19.43,4.65 28.621,1.16 5.279,-2.12 10.5,-5.8 12.259,-11.48 1.201,-3.07 0.85,-6.401 0.491,-9.59 7.58,0.189 15.169,0.04 22.75,0.08 v -15.83 c -9.481,0.01 -18.951,0 -28.431,0.01 0,2.47 0.02,4.929 0.1,7.39 -7.15,-5.85 -16.6,-8.19 -25.709,-7.82 -11.101,-0.23 -22.981,3.69 -29.931,12.75 -5.19,6.87 -5.79,15.96 -4.71,24.22 1.41,8.9 7.92,16.57 16.141,20.07" /></g><g
           transform="translate(672.6934,112.4404)"
           id="g48"><path
             id="path50"
             style="fill:#ffffff;fill-opacity:1;fill-rule:nonzero;stroke:none"
             d="m 0,0 c 3.89,-0.04 7.779,-0.021 11.67,-0.011 1.71,-7.099 3.47,-14.199 4.88,-21.359 1.559,7.16 3.44,14.25 5.25,21.349 3.929,0 7.87,-0.009 11.82,-0.009 v -34.83 c -3.141,0.009 -6.28,0.009 -9.41,0.009 -0.04,5.941 0.019,11.88 0.03,17.821 -0.69,-5.95 -1.5,-11.88 -2.28,-17.821 -3.37,0 -6.74,0 -10.101,-0.019 C 10.71,-28.36 9.8,-21.82 9.029,-15.261 9,-21.79 9.06,-28.32 9.029,-34.851 6.01,-34.851 3,-34.851 0,-34.881 0.01,-23.25 0.02,-11.631 0,0" /></g><g
           transform="translate(160.313,111.8096)"
           id="g52"><path
             id="path54"
             style="fill:#ffffff;fill-opacity:1;fill-rule:nonzero;stroke:none"
             d="m 0,0 c 20.94,-0.21 41.88,-0.25 62.81,-0.189 0,-4.05 0.02,-8.101 -0.03,-12.151 C 53.31,-20.979 43.61,-30.85 41.27,-44 h 6.54 V -57.619 C 34.73,-57.5 21.64,-57.88 8.56,-57.39 c 0.04,4.47 0.03,8.93 0.01,13.401 1.94,-0.011 3.87,-0.011 5.81,-0.021 2.08,4.47 4.04,9.031 6.7,13.2 4.05,6.1 9,11.531 13.83,17.01 -5.1,-0.01 -10.21,-0.099 -15.3,0.2 0,-3 0,-6.009 0.01,-9.03 -6.71,0.021 -13.42,0 -20.14,0.021 C 0.24,-15.09 -0.04,-7.54 0,0" /></g><g
           transform="translate(577.3135,112.4102)"
           id="g56"><path
             id="path58"
             style="fill:#ffffff;fill-opacity:1;fill-rule:nonzero;stroke:none"
             d="M 0,0 C 19.87,0.02 39.739,-0.021 59.609,0.02 59.52,-4.101 59.83,-8.24 59.46,-12.351 52.64,-22.601 42.92,-31.391 39.51,-43.59 c 3.429,-0.011 6.86,-0.011 10.3,-0.011 V -58.22 H 4.189 v 14.619 c 3.331,0 6.67,0.011 10.01,-0.009 4.601,11.78 12.311,22.11 21.79,30.41 -6.13,-0.04 -12.26,-0.02 -18.38,-0.01 C 17.6,-16.15 17.6,-19.09 17.63,-22.04 11.75,-22 5.88,-22.021 0.01,-22.021 -0.011,-14.68 0,-7.34 0,0" /></g><g
           transform="translate(650.4932,112.4199)"
           id="g60"><path
             id="path62"
             style="fill:#ffffff;fill-opacity:1;fill-rule:nonzero;stroke:none"
             d="M 0,0 C 5.88,-0.01 11.76,-0.01 17.64,0.01 17.62,-2.07 17.62,-4.15 17.63,-6.229 H 8.82 c -0.01,-2.46 -0.01,-4.921 0,-7.381 h 8 c -0.01,-2.14 -0.01,-4.28 0,-6.42 h -8 v -14.8 c -2.94,0 -5.88,0 -8.82,-0.01 0.01,11.611 0.01,23.23 0,34.84" /></g><g
           transform="translate(237.4932,83.3799)"
           id="g64"><path
             id="path66"
             style="fill:#ffffff;fill-opacity:1;fill-rule:nonzero;stroke:none"
             d="M 0,0 C 4.41,0.05 8.82,0.05 13.23,0.021 13.2,3.521 13.2,7.01 13.25,10.51 8.9,6.92 4.5,3.39 0,0 M -20.98,-0.18 C -9.23,9.15 2.3,18.75 14.07,28.061 21.86,28.021 29.65,28.03 37.44,28.05 37.54,18.7 37.16,9.351 37.2,0 41.07,0.05 44.95,0.04 48.82,0.03 V -12.38 H 37.44 c -0.01,-0.849 -0.02,-2.55 -0.03,-3.4 2.8,0.01 5.6,0.01 8.41,0.01 v -14.02 c -13.62,0.13 -27.24,0.65 -40.87,0.41 0.09,4.54 0.06,9.08 0.05,13.62 2.74,-0.01 5.48,-0.01 8.23,-0.02 -0.01,0.85 -0.02,2.551 -0.03,3.4 -11.48,-0.14 -22.94,0.31 -34.42,0.191 0.15,4 0.27,8.009 0.24,12.009" /></g><g
           transform="translate(322.7129,97.5596)"
           id="g68"><path
             id="path70"
             style="fill:#ffffff;fill-opacity:1;fill-rule:nonzero;stroke:none"
             d="m 0,0 c -1.94,-1.109 -2.97,-3.369 -2.79,-5.569 0.06,-6.71 -0.18,-13.441 0.13,-20.151 0.92,-5.74 10.34,-6.05 11.65,-0.42 0.43,7.18 0.14,14.401 0.16,21.59 C 9.32,-0.079 3.46,2.471 0,0 m -4.78,12.761 c 9.73,1.5 20.16,0.239 28.64,-5.031 6.36,-3.78 11.6,-9.87 13.36,-17.16 2.14,-7.91 -0.43,-16.7 -5.94,-22.66 -11.48,-12.84 -31.89,-15.109 -46.94,-7.59 -8.2,4.031 -15.12,11.701 -16.37,20.981 -1.06,7.04 1.26,14.359 5.91,19.699 5.34,6.41 13.22,10.28 21.34,11.761" /></g><g
           transform="translate(95.1631,98.3096)"
           id="g72"><path
             id="path74"
             style="fill:#ffffff;fill-opacity:1;fill-rule:nonzero;stroke:none"
             d="m 0,0 c -0.75,-4.09 -1.36,-8.21 -2.13,-12.3 1.29,0 2.58,-0.01 3.87,-0.01 C 1.17,-8.21 0.49,-4.119 0,0 m -5.2,12.101 c 3.48,0.009 6.97,0.009 10.46,0 2.51,-11.691 5.16,-23.361 7.76,-35.04 -3.23,0.03 -6.47,0.019 -9.71,0.03 -0.42,2.189 -0.8,4.399 -1.15,6.599 h -4.94 c -0.22,-2.2 -0.46,-4.41 -0.68,-6.62 -3.18,0.021 -6.36,0.01 -9.53,0.021 2.4,11.71 5.26,23.319 7.79,35.01" /></g><g
           transform="translate(112.7031,110)"
           id="g76"><path
             id="path78"
             style="fill:#ffffff;fill-opacity:1;fill-rule:nonzero;stroke:none"
             d="m 0,0 c 4.15,0 8.3,0.01 12.45,-0.02 1.46,-6.92 2.82,-13.87 4.17,-20.82 1.57,6.97 3.4,13.88 5.12,20.81 4.1,0.05 8.19,0.03 12.29,0.03 0.32,-11.62 -0.58,-23.2 -0.42,-34.81 h -9 c -0.02,5.95 0.07,11.91 -0.08,17.87 -1.01,-5.91 -1.81,-11.85 -2.53,-17.8 -3.37,0.15 -6.76,0.15 -10.13,0.12 -0.94,5.43 -1.49,10.94 -2.54,16.35 C 8.89,-23.7 9,-29.17 9.05,-34.62 c -3.08,0.02 -6.17,0.02 -9.26,0 C -0.09,-23.08 0.1,-11.54 0,0" /></g></g></g><text
       id="text82"
       style="font-variant:normal;font-weight:bold;font-stretch:normal;font-size:30.71369934px;font-family:'Myriad Pro';-inkscape-font-specification:MyriadPro-Bold;writing-mode:lr-tb;fill:#ffffff;fill-opacity:1;fill-rule:nonzero;stroke:none"
       transform="matrix(1,0,0,-1,309.4751,305.3364)"><tspan
         id="tspan80"
         y="0"
         x="0 20.056046 33.385792 39.589958 57.588188 73.805023 90.021858 101.44735 119.75272 125.95689 143.6787">As heard on</tspan></text>
</g></svg>