
<svg width="392px" height="340px" viewBox="0 0 392 340" version="1.1" xmlns="http://www.w3.org/2000/svg" xmlns:xlink="http://www.w3.org/1999/xlink">
    <!-- Generator: Sketch 48.2 (47327) - http://www.bohemiancoding.com/sketch -->
    <desc>Created with Sketch.</desc>
    <defs>
        <polygon id="path-1" points="0.19143974 1.03201091 278.461556 1.03201091 278.461556 155.159748 0.19143974 155.159748"></polygon>
    </defs>
    <g id="Page-1" stroke="none" stroke-width="1" fill="none" fill-rule="evenodd">
        <g id="Homepage-TypeTrue-family" transform="translate(-289.000000, -114.000000)">
            <g id="family-img" transform="translate(289.000000, 114.000000)">
                <path d="M178.707029,323.211387 L178.489251,323.137521 C175.652696,322.163144 174.130429,319.051003 175.107162,316.220204 L282.934384,3.66895847 C283.910029,0.840332268 287.029696,-0.678261981 289.866251,0.295028754 L290.08294,0.369980831 C292.919496,1.34327157 294.441762,4.45541214 293.466118,7.2851246 L185.638896,319.837457 C184.663251,322.667169 181.543584,324.184677 178.707029,323.211387" id="Fill-1" fill="#808080"></path>
                <g id="Group-5" transform="translate(113.244444, 6.050479)">
                    <mask id="mask-2" fill="white">
                        <use xlink:href="#path-1"></use>
                    </mask>
                    <g id="Clip-4"></g>
                    <path class="animated pulse infinite" d="M278.220693,145.637099 C275.65636,153.890518 265.479604,157.079783 256.555071,154.015438 C250.684871,152.001508 246.454538,147.534799 244.846249,142.420677 C240.424271,145.463297 234.333027,146.38662 228.463916,144.371604 C223.282982,142.593393 219.366249,138.88924 217.422582,134.518121 C213.183538,136.765597 207.821849,137.284831 202.631116,135.502275 C196.771804,133.491604 192.540382,129.024895 190.922293,123.907514 C186.500316,126.950134 180.409071,127.873457 174.550849,125.8617 C169.360116,124.08023 165.443382,120.376077 163.499716,116.004958 C159.270471,118.25678 153.897893,118.771668 148.70716,116.989112 C142.847849,114.977355 138.617516,110.510645 137.009227,105.39761 C132.57636,108.436971 126.486204,109.360294 120.626893,107.348537 C115.43616,105.567067 111.530316,101.866173 109.57576,97.4917955 C105.346516,99.7425304 99.9750267,100.258505 94.7930044,98.4792077 C88.9249822,96.4641917 84.69356,91.9974824 83.0852711,86.8844473 C78.6632933,89.9270671 72.5731378,90.8503898 66.7040267,88.8353738 C61.5122044,87.0528179 57.60636,83.3530096 55.6616044,78.9818914 C51.4236489,81.2304537 46.0608711,81.7486006 40.8701378,79.9660447 C35.0010267,77.9510288 30.7706933,73.4843195 29.1613156,68.3712843 C24.7393378,71.4139042 18.6491822,72.3372268 12.7800711,70.3222109 C3.85553778,67.2578658 -1.84261778,58.8100064 0.871982222,50.4164601 C1.32931556,48.9923706 2.47809333,47.3999105 4.22140444,45.6955655 C7.25178222,42.7159489 12.0962489,39.3670032 18.3138044,35.879016 C24.6326267,32.3247668 32.38116,28.6282173 41.0498044,25.0218275 C47.3936711,22.3800383 54.2275378,19.7925623 61.3750044,17.3463003 C70.7405378,14.148345 80.6309156,11.1991438 90.6116711,8.70943131 C99.5971822,6.4782492 108.649116,4.61748243 117.471293,3.28789776 C138.256004,0.150773163 157.717716,-0.0328051118 171.721916,4.77607668 C185.737004,9.58713099 200.585093,21.5609968 214.611071,36.6393994 C220.57056,43.0537764 226.374338,50.0145431 231.911338,57.2218914 C238.066827,65.2624026 243.891293,73.6070671 249.192004,81.828984 C253.252471,88.1336486 257.012404,94.3579297 260.386871,100.326939 C265.034249,108.537994 268.959693,116.253712 271.953049,122.960294 C274.971449,129.730965 277.040338,135.477291 277.946293,139.672435 C278.515782,142.317482 278.622493,144.341188 278.220693,145.637099" id="Fill-3" fill="#FFFFFF" mask="url(#mask-2)"></path>
                </g>
                <path d="M345.156,63.272262 L203.855244,14.7598019 L230.714867,9.33826837 L327.855733,42.68977 C333.814133,49.1052332 339.619,56.0649137 345.156,63.272262" id="Fill-6" fill="#538CCF"></path>
                <path d="M373.631424,106.376984 L154.294358,31.0729585 L174.619558,23.396345 L362.436558,87.8790288 C366.497024,94.1847796 370.256958,100.409061 373.631424,106.376984" id="Fill-8" fill="#538CCF"></path>
                <path d="M385.197711,129.010773 L131.557378,41.9294952 C125.340911,45.4174824 120.496444,48.7664281 117.464978,51.7460447 L391.190956,145.722914 L385.197711,129.010773 Z" id="Fill-10" fill="#538CCF"></path>
                <path d="M261.80014,325.307546 C261.80014,332.448633 234.743429,338.238409 201.366807,338.238409 C167.990184,338.238409 140.933473,332.448633 140.933473,325.307546 C140.933473,318.16646 167.990184,312.376684 201.366807,312.376684 C234.743429,312.376684 261.80014,318.16646 261.80014,325.307546" id="Fill-12" fill="#FCD592"></path>
                <path d="M236.887016,155.397706 C236.887016,175.332786 220.687616,191.493105 200.704327,191.493105 C180.719949,191.493105 164.520549,175.332786 164.520549,155.397706 C164.520549,135.46154 180.719949,119.302307 200.704327,119.302307 C220.687616,119.302307 236.887016,135.46154 236.887016,155.397706" id="Fill-14" fill="#20336F"></path>
                <path d="M226.0615,155.397706 C226.0615,169.368121 214.708744,180.694575 200.703456,180.694575 C186.699256,180.694575 175.345411,169.368121 175.345411,155.397706 C175.345411,141.426204 186.699256,130.100837 200.703456,130.100837 C214.708744,130.100837 226.0615,141.426204 226.0615,155.397706" id="Fill-16" fill="#FFFFFF"></path>
                <path d="M189.617696,161.824575 C189.617696,162.948856 188.704118,163.86023 187.577118,163.86023 C186.450118,163.86023 185.53654,162.948856 185.53654,161.824575 C185.53654,160.700294 186.450118,159.78892 187.577118,159.78892 C188.704118,159.78892 189.617696,160.700294 189.617696,161.824575" id="Fill-18" fill="#000000"></path>
                <path d="M216.006809,161.824575 C216.006809,162.948856 215.093231,163.86023 213.966231,163.86023 C212.839231,163.86023 211.925653,162.948856 211.925653,161.824575 C211.925653,160.700294 212.839231,159.78892 213.966231,159.78892 C215.093231,159.78892 216.006809,160.700294 216.006809,161.824575" id="Fill-20" fill="#000000"></path>
                <path d="M155.111351,179.228121 C158.295262,171.151764 162.977484,166.595981 169.448751,166.242946" id="Stroke-22" stroke="#20336F" stroke-width="5.483115" stroke-linecap="round" stroke-linejoin="round"></path>
                <path d="M246.207469,179.228121 C243.023558,171.151764 238.341336,166.595981 231.870069,166.242946" id="Stroke-24" stroke="#20336F" stroke-width="5.483115" stroke-linecap="round" stroke-linejoin="round"></path>
                <path d="M209.301758,169.062447 C207.990736,171.38053 204.923336,173.006665 201.348513,173.006665 C198.004536,173.006665 195.104824,171.583661 193.671847,169.50347" id="Stroke-26" stroke="#000000" stroke-width="2.261853" stroke-linecap="round" stroke-linejoin="round"></path>
                <path d="M275.896678,256.917035 C275.896678,298.344895 242.2315,331.928856 200.703456,331.928856 C159.175411,331.928856 125.510233,298.344895 125.510233,256.917035 C125.510233,215.489176 159.175411,181.905214 200.703456,181.905214 C242.2315,181.905214 275.896678,215.489176 275.896678,256.917035" id="Fill-28" fill="#538CCF"></path>
                <path class="animated pulse infinite" d="M253.873356,256.917035 C253.873356,286.211348 230.068067,309.959208 200.704,309.959208 C171.338844,309.959208 147.533556,286.211348 147.533556,256.917035 C147.533556,227.623808 171.338844,203.875949 200.704,203.875949 C230.068067,203.875949 253.873356,227.623808 253.873356,256.917035" id="Fill-30" fill="#FFFFFF"></path>
                <path d="M177.664962,237.459259 C177.664962,239.795808 175.767029,241.689163 173.424829,241.689163 C171.083718,241.689163 169.184696,239.795808 169.184696,237.459259 C169.184696,235.123796 171.083718,233.229355 173.424829,233.229355 C175.767029,233.229355 177.664962,235.123796 177.664962,237.459259" id="Fill-32" fill="#000000"></path>
                <path d="M232.505436,237.459259 C232.505436,239.795808 230.606413,241.689163 228.265302,241.689163 C225.923102,241.689163 224.025169,239.795808 224.025169,237.459259 C224.025169,235.123796 225.923102,233.229355 228.265302,233.229355 C230.606413,233.229355 232.505436,235.123796 232.505436,237.459259" id="Fill-34" fill="#000000"></path>
                <path d="M215.651613,254.271987 C215.109347,257.685022 213.401969,260.718952 210.954147,262.957738 C210.846347,263.059847 210.733102,263.160869 210.619858,263.25646 C210.377036,263.465022 210.128769,263.668153 209.868524,263.853904 C207.357547,265.766812 204.225902,266.894351 200.844902,266.894351 C197.463902,266.894351 194.332258,265.760294 191.815836,263.860422 C191.443436,263.577994 191.081924,263.27384 190.736747,262.957738 C188.288924,260.718952 186.580458,257.685022 186.038191,254.271987 C185.885747,253.291093 186.649058,252.405789 187.644302,252.405789 L214.046591,252.405789 C215.040747,252.405789 215.805147,253.291093 215.651613,254.271987" id="Fill-36" fill="#20336F"></path>
                <path d="M209.868524,263.85423 C207.357547,265.767137 204.225902,266.894677 200.844902,266.894677 C197.463902,266.894677 194.332258,265.76062 191.815836,263.860748 C193.811769,261.028863 197.107836,259.172441 200.844902,259.172441 C204.576524,259.172441 207.872591,261.023431 209.868524,263.85423" id="Fill-38" fill="#FF6D6B"></path>
                <path d="M149.656344,221.074626 C144.291389,199.517757 147.283656,183.086958 160.257767,172.777246" id="Stroke-40" stroke="#538CCF" stroke-width="7.915941" stroke-linecap="round" stroke-linejoin="round"></path>
                <path d="M251.576453,221.074626 C256.941409,199.517757 253.949142,183.086958 240.975031,172.777246" id="Stroke-42" stroke="#538CCF" stroke-width="7.915941" stroke-linecap="round" stroke-linejoin="round"></path>
                <path d="M109.355696,324.868371 C109.355696,332.96754 86.4432956,339.532907 58.1779178,339.532907 C29.91254,339.532907 7.00014,332.96754 7.00014,324.868371 C7.00014,316.769201 29.91254,310.203834 58.1779178,310.203834 C86.4432956,310.203834 109.355696,316.769201 109.355696,324.868371" id="Fill-44" fill="#FCD592"></path>
                <path d="M353.266807,324.221284 C353.266807,329.563521 338.154118,333.893361 319.511251,333.893361 C300.868384,333.893361 285.755696,329.563521 285.755696,324.221284 C285.755696,318.879048 300.868384,314.549208 319.511251,314.549208 C338.154118,314.549208 353.266807,318.879048 353.266807,324.221284" id="Fill-46" fill="#FCD592"></path>
                <path d="M118.726129,271.581029 C118.726129,304.287291 92.1485289,330.801859 59.3631733,330.801859 C26.5778178,330.801859 0.000217777778,304.287291 0.000217777778,271.581029 C0.000217777778,239.433105 32.8215067,197.867291 47.82204,180.394767 C50.9155733,176.79055 56.5026622,176.79055 59.5972844,180.394767 C74.5978178,197.867291 118.726129,239.433105 118.726129,271.581029" id="Fill-48" fill="#FF6D80"></path>
                <path d="M72.3664667,300.909125 C39.5811111,300.909125 13.0035111,274.395642 13.0035111,241.68938 C13.0035111,236.456856 13.8778889,230.973406 15.3979778,225.38676 C6.68468889,240.649827 0,257.074109 0,271.581137 C0,304.287399 26.5776,330.801968 59.3629556,330.801968 C89.5273556,330.801968 114.435689,308.35545 118.225022,279.29577 C107.337222,292.492767 90.8372889,300.909125 72.3664667,300.909125" id="Fill-50" fill="#FC5975"></path>
                <path d="M69.9962822,251.329304 C70.41006,253.322594 69.1251711,255.273521 67.1259711,255.6863 C65.1267711,256.09908 63.1711267,254.817291 62.7584378,252.822914 C62.34466,250.829623 63.6295489,248.878696 65.62766,248.465917 C67.62686,248.053137 69.5825044,249.334927 69.9962822,251.329304" id="Fill-52" fill="#000000"></path>
                <path d="M102.327898,244.655201 C102.741676,246.649578 101.456787,248.600505 99.4575867,249.013284 C97.4583867,249.426064 95.5027422,248.143188 95.0900533,246.148812 C94.6762756,244.155521 95.9611644,242.204594 97.9603644,241.791815 C99.9584756,241.379035 101.91412,242.661911 102.327898,244.655201" id="Fill-54" fill="#000000"></path>
                <path d="M78.2633444,259.988658 L78.3983667,260.554601 C79.3533222,264.549872 83.4127,267.040671 87.4187222,266.088019 C91.4236556,265.135367 93.9204778,261.085783 92.9655222,257.089425 L92.8305,256.524569" id="Stroke-56" stroke="#000000" stroke-width="2.742102" stroke-linecap="round" stroke-linejoin="round"></path>
                <path d="M70.1047356,263.967636 C70.1047356,266.614856 66.9415133,268.76131 63.0378467,268.76131 C59.1352689,268.76131 55.9709578,266.614856 55.9709578,263.967636 C55.9709578,261.319329 59.1352689,259.172875 63.0378467,259.172875 C66.9415133,259.172875 70.1047356,261.319329 70.1047356,263.967636" id="Fill-58" fill="#FC5975"></path>
                <path d="M114.00634,253.072754 C114.841518,255.423425 112.731251,258.315054 109.29254,259.529495 C105.854918,260.743936 102.390073,259.822786 101.554896,257.472115 C100.720807,255.121444 102.831073,252.230901 106.269784,251.015374 C109.707407,249.800933 113.171162,250.720997 114.00634,253.072754" id="Fill-60" fill="#FC5975"></path>
                <path d="M280.891847,289.535201 C280.891847,310.968236 298.308624,328.344083 319.793491,328.344083 C341.278358,328.344083 359.331047,310.959546 358.695136,289.535201 C357.943802,264.243764 330.332847,241.229131 320.502358,229.77993 C318.475936,227.41731 314.814002,227.41731 312.786491,229.77993 C302.957091,241.229131 280.891847,268.468236 280.891847,289.535201" id="Fill-62" fill="#FF6D80"></path>
                <path d="M358.694809,289.535201 C358.470498,281.987853 355.844098,274.645808 352.022098,267.750217 C352.089609,268.492134 352.139698,269.236224 352.161476,269.982486 C352.797387,291.406831 334.744698,308.791367 313.259831,308.791367 C299.79572,308.791367 287.931187,301.964211 280.947053,291.594754 C282.020698,312.069706 299.000831,328.344083 319.793164,328.344083 C341.278031,328.344083 359.33072,310.959546 358.694809,289.535201" id="Fill-64" fill="#FC5975"></path>
                <path d="M312.825364,276.26347 C312.554231,277.570243 313.395942,278.848773 314.706964,279.119252 C316.015809,279.389732 317.297431,278.548965 317.568564,277.242192 C317.839698,275.935419 316.997987,274.656888 315.688053,274.386409 C314.37812,274.117016 313.096498,274.957783 312.825364,276.26347" id="Fill-66" fill="#000000"></path>
                <path d="M291.637764,271.890831 C291.366631,273.196518 292.208342,274.476134 293.519364,274.746613 C294.828209,275.016006 296.109831,274.176326 296.380964,272.869553 C296.652098,271.56278 295.810387,270.284249 294.500453,270.01377 C293.19052,269.743291 291.908898,270.584058 291.637764,271.890831" id="Fill-68" fill="#000000"></path>
                <path d="M312.754151,284.546217 C312.754151,286.280978 314.827396,287.687687 317.385196,287.687687 C319.942996,287.687687 322.01624,286.280978 322.01624,284.546217 C322.01624,282.810371 319.942996,281.403661 317.385196,281.403661 C314.827396,281.403661 312.754151,282.810371 312.754151,284.546217" id="Fill-70" fill="#FC5975"></path>
                <path d="M283.984727,277.405891 C283.438104,278.947297 284.820993,280.841738 287.073904,281.637968 C289.326816,282.434198 291.597149,281.830236 292.143771,280.288831 C292.691482,278.748511 291.308593,276.85407 289.054593,276.058927 C286.801682,275.26161 284.531349,275.865572 283.984727,277.405891" id="Fill-72" fill="#FC5975"></path>
                <path d="M309.519389,281.687284 C309.026122,283.047284 308.085322,284.15853 306.9017,284.886326 C306.849433,284.921086 306.794989,284.953674 306.741633,284.983003 C306.625122,285.050351 306.506433,285.113355 306.384478,285.16984 C305.201944,285.758594 303.825589,285.97476 302.436167,285.709712 C301.046744,285.443578 299.848967,284.73099 298.965878,283.751182 C298.834122,283.606709 298.709989,283.45246 298.592389,283.294952 C297.763744,282.18262 297.302056,280.801981 297.348878,279.356166 C297.363033,278.941214 297.747411,278.637061 298.155744,278.716358 L309.007611,280.793291 C309.415944,280.871502 309.659856,281.29623 309.519389,281.687284" id="Fill-74" fill="#FFFFFF"></path>
                <path d="M306.384587,285.169949 C305.202053,285.758703 303.825698,285.974869 302.436276,285.709821 C301.046853,285.443687 299.849076,284.731099 298.965987,283.751291 C300.009142,282.745412 301.51072,282.242473 303.047142,282.535764 C304.580298,282.830141 305.788964,283.849054 306.384587,285.169949" id="Fill-76" fill="#FFFFFF"></path>
            </g>
        </g>
    </g>
</svg>