<?xml version="1.0" standalone="no"?>
<!DOCTYPE svg PUBLIC "-//W3C//DTD SVG 20010904//EN"
 "http://www.w3.org/TR/2001/REC-SVG-20010904/DTD/svg10.dtd">
<svg version="1.0" xmlns="http://www.w3.org/2000/svg"
 width="70.000000pt" height="70.000000pt" viewBox="0 0 70.000000 70.000000"
 preserveAspectRatio="xMidYMid meet">
<metadata>
Created by potrace 1.11, written by Peter Selinger 2001-2013
</metadata>
<g transform="translate(0.000000,70.000000) scale(0.100000,-0.100000)"
fill="#000000" stroke="none">
<path d="M263 661 c-83 -21 -168 -96 -207 -180 -30 -69 -29 -189 4 -256 31
-63 91 -124 155 -155 40 -19 66 -24 131 -24 72 0 88 3 140 30 229 120 229 443
-1 561 -54 28 -161 40 -222 24z m210 -83 c175 -97 164 -363 -19 -454 -52 -26
-164 -26 -217 0 -81 40 -137 121 -145 211 -17 206 199 343 381 243z"/>
<path d="M293 489 c-98 -124 -112 -181 -61 -255 60 -87 203 -72 242 26 9 22
16 50 16 61 0 31 -54 127 -103 183 l-43 49 -51 -64z"/>
</g>
</svg>
